<?xml version="1.0" encoding="utf-8"?>
<!-- Generator: Adobe Illustrator 24.1.1, SVG Export Plug-In . SVG Version: 6.00 Build 0)  -->
<svg version="1.1"
	 id="svg1" xmlns:cc="http://creativecommons.org/ns#" xmlns:dc="http://purl.org/dc/elements/1.1/" xmlns:rdf="http://www.w3.org/1999/02/22-rdf-syntax-ns#" xmlns:svg="http://www.w3.org/2000/svg"
	 xmlns="http://www.w3.org/2000/svg" xmlns:xlink="http://www.w3.org/1999/xlink" x="0px" y="0px" viewBox="0 0 2651 2651.6"
	 style="enable-background:new 0 0 2651 2651.6;" xml:space="preserve">
<polygon points="2634.8,2651.3 2618.3,2651.3 1309,1342 -0.2,32.8 0,16.5 0.3,0.3 1325.8,1325.8 2651.3,2651.3 "/>
<polygon points="1833.3,2651.3 1816.3,2651.3 908,1743 -0.2,834.8 0,818 0.3,801.3 925.3,1726.3 1850.3,2651.3 "/>
<polygon points="1733.3,2651.3 1683.3,2651.3 841.6,1809.5 -0.2,967.8 0.1,918 0.3,868.3 891.8,1759.8 1783.3,2651.3 "/>
<polygon points="1632.8,2651.3 1616.3,2651.3 808,1843 -0.2,1034.8 0,1018.5 0.3,1002.3 824.8,1826.8 1649.3,2651.3 "/>
<path d="M1442.4,2581.5c-2.1,5.8-4.3,8.6-9.3,11.8c-8,5.1-13.6,6.5-26,6.5c-6.2,0-11.2,0-11.2,0c0.2,0,2.8,11,2.7,11.1
	c-0.1,0.1-1.4,0.4-2.9,0.8c-2.6,0.6-2.7,0.4-4.4-6.6c-0.9-4-2.4-7.8-3.2-8.4c-0.8-0.6-4.6-1.9-8.5-2.9c-6.8-1.7-7-1.8-6.3-4.3
	c0.4-1.4,0.6-3.7,0.4-5.1c-1.1-8.9-0.5-13.7,2.3-17.3c6.9-9.1,16.4-13.1,31.2-13.1c6.8,0,11.8,0.5,15.5,1.7
	C1437.4,2560,1446,2571.5,1442.4,2581.5L1442.4,2581.5z"/>
<path d="M1404.4,2640.3c-0.8,0-2,0.2-2.8,0.5c-1.9,0.7-6.2-16.6-4.5-17.7c3.3-2.1,4.4-0.8,6.6,7.7
	C1406.2,2640.8,1406.2,2640.3,1404.4,2640.3z"/>
<path d="M1362.1,2587.6c-0.3,1-1,1.6-1.6,1.4c-0.6-0.2-4.7-1.3-9-2.3c-7.6-1.8-7.8-1.9-7.2-4.4c0.4-1.4,0.8-2.7,0.9-2.8
	c0.8-0.8,17.5,4.2,17.4,5.2C1362.6,2585.3,1362.4,2586.6,1362.1,2587.6L1362.1,2587.6z"/>
<path d="M1333.2,2580.4c-0.4,1.5-1.3,1.4-9.1-0.6c-8-2-8.7-2.4-8.4-4.6c0.4-3.3,0.6-3.4,5.9-2
	C1334.7,2576.5,1334.3,2576.2,1333.2,2580.4L1333.2,2580.4z"/>
<path d="M1303.5,2573.9c-1.3,0.5-16.3-2.8-17.2-3.8c-0.2-0.2-0.1-1.4,0.2-2.6c0.7-2.6,1.8-2.7,10.8-0.4c5.8,1.5,7.1,2.2,7.3,4
	C1304.8,2572.3,1304.3,2573.6,1303.5,2573.9L1303.5,2573.9z"/>
<path d="M1275.8,2412.9c-1.6,7.7-8.7,14.4-19.3,18.1c-3.8,1.3-8.2,1.8-16.4,1.8c-6.2,0-11.2,0-11.2,0c0,0,0.6,2.4,1.4,5.3
	c1.4,5.3,1.4,5.3-1.1,6.3c-1.4,0.5-2.6,0.9-2.8,0.9c-0.2,0-1.2-3.4-2.2-7.6c-2-8.5-2.7-9.1-13.5-11.6c-4.7-1.1-5-1.3-4.4-3.7
	c0.8-3.2,0.8-4.4,0-10.2c-0.9-6.4,0.8-10.9,6.1-15.8c18.8-17.3,58.8-10.8,63.4,10.3C1276.1,2408.4,1276.2,2411.2,1275.8,2412.9
	L1275.8,2412.9z"/>
<path d="M1274.9,2566.8c-0.5,0.3-3.4,0-6.3-0.8l-5.3-1.4l0.9,6c3.3,21.6-10,43.4-25.1,41.3c-2.5-0.3-5-1-5.5-1.5
	c-0.5-0.5-2-0.3-3.5,0.5c-1.5,0.8-2.9,1.4-3.3,1.4c-0.4,0-1.2-2.4-1.9-5.2c-2.6-10.7-2.9-11.2-11.4-13.1c-5.7-1.3-7.6-2.2-7.6-3.4
	c0-3.7,1.3-4.2,7-2.6c3,0.8,5.5,1.5,5.5,1.5c0,0,0-5.5,0-12.2c0-14.9,2.1-21.3,9.3-28.8c6.2-6.4,11.5-8,18-5.7
	c2.5,0.9,4.8,1.3,5.1,0.8c0.3-0.5,1.6-1,3-1.2c2.2-0.3,2.6,0.2,4.1,6.1c2.6,10,2.4,9.7,10.5,11.6c6.5,1.5,7.4,2,7.4,4
	C1275.8,2565.2,1275.4,2566.5,1274.9,2566.8L1274.9,2566.8z"/>
<path d="M1251.3,2530.9c-2.9,1.1-4.1-0.5-5.8-7.8c-2.2-9.4-2.2-9.5,0.8-10.1c2.2-0.4,2.6,0,3.6,3.6c0.6,2.3,1.5,5.7,2,7.6
	C1253.2,2529.1,1253.1,2530.3,1251.3,2530.9L1251.3,2530.9z"/>
<path d="M1243.8,2502.3c-1.1,0-2.3,0-2.7,0.1c-0.9,0.1-5.2-16.8-4.5-17.5c0.3-0.3,1.6-0.5,2.8-0.5c1.9,0,2.5,0.8,3.4,4.3
	c0.6,2.3,1.5,5.8,2,7.8C1246.2,2501.4,1246.1,2502.3,1243.8,2502.3L1243.8,2502.3z"/>
<path d="M1237.4,2640.3c-0.8,0-2,0.2-2.8,0.5c-1.9,0.7-6.2-16.6-4.5-17.7c3.3-2.1,4.4-0.8,6.6,7.7
	C1239.2,2640.8,1239.2,2640.3,1237.4,2640.3z"/>
<path d="M1237.4,2473.3c-0.8,0-2,0.2-2.8,0.5c-1,0.4-1.9-1.8-3.5-8.2c-1.2-4.8-1.9-9.1-1.7-9.5c0.3-0.4,1.5-0.8,2.8-0.8
	c2.1,0,2.5,0.9,4.4,8.5C1239.2,2473.8,1239.2,2473.3,1237.4,2473.3z"/>
<path d="M1195.1,2587.6c-0.3,1-1,1.6-1.6,1.4c-0.6-0.2-4.7-1.3-9-2.3c-7.6-1.8-7.8-1.9-7.2-4.4c0.4-1.4,0.8-2.7,0.9-2.8
	c0.8-0.8,17.5,4.2,17.4,5.2C1195.6,2585.3,1195.4,2586.6,1195.1,2587.6L1195.1,2587.6z"/>
<path d="M1195.2,2420.4c-0.4,1.5-1.3,1.4-9.1-0.6c-8-2-8.7-2.4-8.4-4.6c0.2-1.3,0.4-2.5,0.6-2.7c0.8-0.8,17.6,4.1,17.5,5.1
	C1195.6,2418.3,1195.4,2419.5,1195.2,2420.4z"/>
<path d="M1166.2,2580.4c-0.4,1.5-1.3,1.4-9.1-0.6c-8-2-8.7-2.4-8.4-4.6c0.4-3.3,0.6-3.4,5.9-2
	C1167.7,2576.5,1167.3,2576.2,1166.2,2580.4L1166.2,2580.4z"/>
<path d="M1165.9,2413.2c-1,1.5-4.2,1.2-13.1-1.5c-4.6-1.4-5.1-1.8-4.5-3.7c1-3.1,0.9-3.1,6.1-1.8
	C1167.7,2409.5,1168.1,2409.7,1165.9,2413.2z"/>
<path d="M1136.5,2573.9c-1.3,0.5-16.3-2.8-17.2-3.8c-0.2-0.2-0.1-1.4,0.2-2.6c0.7-2.6,1.8-2.7,10.8-0.4c5.8,1.5,7.1,2.2,7.3,4
	C1137.8,2572.3,1137.3,2573.6,1136.5,2573.9L1136.5,2573.9z"/>
<path d="M1136.9,2406.2c-0.7,1.1-2.1,1.1-8.5-0.4c-9.3-2.2-9.7-2.4-9-5.2c0.7-2.7,1.8-2.7,10.8-0.4
	C1137.3,2401.9,1138.8,2403.3,1136.9,2406.2L1136.9,2406.2z"/>
<path d="M1105.6,2586.9c-6.1,9-19.5,14.1-35.1,13.2c-8.6-0.5-8.8-0.5-8.2,1.6c1.4,5.2,1.8,9.6,0.8,9.6c-0.6,0-1.7,0.3-2.5,0.6
	c-1.1,0.4-1.9-1.2-3.2-6.8c-1-4-2.4-7.8-3.2-8.5c-0.8-0.6-4.6-1.9-8.5-2.9c-6.8-1.7-7-1.8-6.4-4.3c0.8-3.3,0.8-4.5,0-10.3
	c-0.9-6.4,0.8-10.9,6.1-15.8c7.9-7.3,19.8-10.8,33.1-9.7l7.6,0.6l-0.6-3c-0.3-1.6-0.9-4.3-1.2-5.9c-0.5-2.5-0.3-2.9,2-3.4
	c2.8-0.5,2.4-1.4,5.7,11.4c0.9,3.5,1.4,3.8,7.5,5.8c3.6,1.1,7.2,2,8,2c1.7,0,1.9,4.1,0.3,5.7c-0.8,0.8-0.8,1.7,0,3.1
	c0.6,1.1,1.1,4.3,1.1,7C1108.8,2581.1,1108.2,2583.1,1105.6,2586.9L1105.6,2586.9z"/>
<path d="M1107.9,2399.8c-0.5,0.3-3.4,0-6.3-0.8l-5.4-1.4l0.9,5.1c2.7,15.7-4.8,35.3-15.4,40.5c-5.2,2.5-8.5,2.7-13.5,0.6
	c-2-0.8-3.9-1.1-4.2-0.6c-0.3,0.5-1.5,1.2-2.7,1.6c-1.9,0.6-2.3,0.1-3.4-4.6c-2.6-10.7-3-11.2-11.4-13.2c-5.7-1.3-7.6-2.2-7.6-3.4
	c0-3.7,1.3-4.2,7-2.6c3,0.8,5.5,1.5,5.5,1.5c0,0,0-5.7,0-12.7c0-11.9,0.2-13.2,2.9-19c3.4-7.4,9.7-13.6,15.6-15.4
	c3.6-1.1,4.9-1,8.8,0.4c2.5,0.9,4.8,1.3,5.1,0.9c0.3-0.4,1.5-1,2.8-1.4c2-0.5,2.4,0,3.8,5.1c3.1,11.1,2.8,10.8,11,12.8
	c6.5,1.5,7.4,2,7.4,4C1108.8,2398.2,1108.4,2399.5,1107.9,2399.8L1107.9,2399.8z"/>
<path d="M1106.3,2252c-2.9,4.8-9.4,9.5-16.8,12c-3.8,1.3-8.2,1.8-16.4,1.8c-9.4,0-11.2,0.2-10.7,1.5c1.2,3.2,1.7,10,0.7,10
	c-0.6,0-1.7,0.3-2.5,0.6c-1.1,0.4-1.9-1.2-3.3-7.1c-2-8.6-2.7-9.1-13.5-11.6c-4.7-1.1-5-1.3-4.4-3.7c0.8-3.2,0.8-4.4,0-10.2
	c-1-6.6,0.8-11,6.7-16.3c7.6-6.8,14.1-9,27.4-9c12.3-0.1,18.1,1.4,25.9,6.6C1108.5,2232.6,1111.5,2243.3,1106.3,2252L1106.3,2252z"
	/>
<path d="M1085.2,2530.6c-0.4,0.4-1.6,0.7-2.8,0.7c-1.9,0-2.4-1-3.9-8c-0.9-4.4-1.8-8.3-1.9-8.7c-0.1-0.4,1-1,2.5-1.4
	c2.6-0.7,2.7-0.6,4.8,7.6C1086.1,2530.4,1086,2529.8,1085.2,2530.6L1085.2,2530.6z"/>
<path d="M1085.2,2363.6c-0.4,0.4-1.6,0.7-2.8,0.7c-1.9,0-2.4-1-3.9-8c-0.9-4.4-1.8-8.3-1.9-8.7c-0.1-0.4,1-1,2.5-1.4
	c2.4-0.6,2.8-0.4,3.4,1.9c0.3,1.5,1.2,4.9,2,7.6C1086,2361.3,1086.1,2362.7,1085.2,2363.6z"/>
<path d="M1076.8,2502.3c-1.1,0-2.3,0-2.8,0.1c-0.9,0.1-5.2-16.2-4.6-17.3c0.2-0.4,1.4-0.8,2.7-0.8c2,0,2.5,0.9,4.5,8.3
	C1079.3,2502.5,1079.3,2502.3,1076.8,2502.3L1076.8,2502.3z"/>
<path d="M1078.2,2334.6c-0.4,0.4-1.6,0.7-2.8,0.7c-1.9,0-2.4-1-4.2-8.3c-1.1-4.5-1.8-8.6-1.6-9c0.2-0.4,1.5-0.8,2.8-0.8
	c1.8,0,2.6,0.7,3,2.8c0.3,1.5,1.3,5,2,7.7C1079,2333.4,1079.1,2333.7,1078.2,2334.6L1078.2,2334.6z"/>
<path d="M1070.5,2640.3c-0.8,0-2.2,0.2-2.9,0.5c-1.9,0.7-6.3-16.6-4.4-17.8c3.2-2,4.3-0.8,6.1,7c1,4.3,2,8.3,2.3,9
	S1071.4,2640.3,1070.5,2640.3z"/>
<path d="M1070.5,2473.3c-0.8,0-2.1,0.2-2.9,0.5c-1.1,0.4-1.9-1.6-3.5-8.2c-1.2-4.8-1.9-9.1-1.6-9.5s1.5-0.8,2.8-0.8
	c2.1,0,2.5,0.8,4,7.3c0.9,4,1.9,8,2.2,9C1071.8,2472.6,1071.4,2473.3,1070.5,2473.3z"/>
<path d="M1070.5,2306.3c-0.8,0-2.1,0.2-2.9,0.5c-1.1,0.4-1.9-1.6-3.5-8.2c-1.2-4.8-1.9-9.1-1.6-9.5s1.5-0.8,2.8-0.8
	c2.1,0,2.5,0.8,4,7.3c0.9,4,1.9,8,2.2,9C1071.8,2305.6,1071.4,2306.3,1070.5,2306.3z"/>
<path d="M1028.1,2587.6c-0.3,1-1,1.6-1.6,1.4c-0.6-0.2-4.7-1.3-9-2.3c-7.6-1.8-7.8-1.9-7.2-4.4c0.4-1.4,0.8-2.7,0.9-2.8
	c0.8-0.8,17.5,4.2,17.4,5.2C1028.6,2585.3,1028.4,2586.6,1028.1,2587.6z"/>
<path d="M1028.1,2420.6c-0.3,1-1,1.6-1.6,1.4c-0.6-0.2-4.7-1.3-8.9-2.3c-7.8-1.8-9-2.9-6.9-6.3c0.7-1,2.5-0.9,9.5,0.9
	c4.8,1.2,8.6,2.7,8.5,3.3C1028.6,2418.3,1028.4,2419.6,1028.1,2420.6z"/>
<path d="M1028.2,2253.4c-0.4,1.5-1.3,1.4-9.1-0.6c-8.7-2.2-10.3-3.4-8.3-6.5c0.7-1.2,1.7-1.2,5.7-0.2
	C1029.8,2249.5,1029.3,2249.2,1028.2,2253.4L1028.2,2253.4z"/>
<path d="M999.2,2580.4c-0.4,1.5-1.3,1.4-9.1-0.6c-8-2-8.7-2.4-8.4-4.6c0.4-3.3,0.6-3.4,5.9-2
	C1000.7,2576.5,1000.3,2576.2,999.2,2580.4L999.2,2580.4z"/>
<path d="M998.9,2413.3c-0.8,1.3-2,1.2-9.2-0.6c-7.7-1.9-8.3-2.2-8-4.4c0.4-3.3,0.6-3.4,5.9-2.1
	C1000.7,2409.5,1001.1,2409.7,998.9,2413.3L998.9,2413.3z"/>
<path d="M998.9,2246.2c-0.7,1.1-2.1,1.1-8.5-0.4c-9.3-2.2-9.7-2.4-9-5.2c0.7-2.7,1.8-2.7,10.8-0.4
	C999.3,2241.9,1000.8,2243.3,998.9,2246.2L998.9,2246.2z"/>
<path d="M969.9,2573.2c-0.7,1.1-2.1,1.1-8.5-0.4c-9.3-2.2-9.7-2.4-9-5.2c0.7-2.7,1.8-2.7,10.8-0.4
	C970.3,2568.9,971.8,2570.3,969.9,2573.2L969.9,2573.2z"/>
<path d="M969.9,2406.2c-0.7,1.1-2.1,1.1-8.5-0.4c-9.3-2.2-9.7-2.4-9-5.2c0.7-2.7,1.8-2.7,10.8-0.4
	C970.3,2401.9,971.8,2403.3,969.9,2406.2L969.9,2406.2z"/>
<path d="M970,2239.1c-0.7,1-2.5,0.9-9.5-0.9c-8.5-2.1-8.6-2.2-8-4.8c0.3-1.4,0.7-2.7,0.7-2.8c0.1-0.1,4.1,0.8,8.9,2
	C970.9,2234.7,972.1,2235.7,970,2239.1L970,2239.1z"/>
<path d="M940.9,2566.8c-0.5,0.3-3.5-0.1-6.5-0.8l-5.5-1.4l0.7,2.7c0.4,1.5,0.7,6.3,0.7,10.7c-0.1,22.8-15,39.3-29.9,33.1
	c-1.9-0.8-3.5-1.1-3.7-0.6c-0.2,0.4-1.3,1.1-2.5,1.5c-1.9,0.6-2.3,0.2-3.3-3.6c-3.2-12.5-2.8-12-11.3-14.1c-5.7-1.4-7.7-2.3-7.7-3.5
	c0-3.7,1.3-4.1,7-2.6c3,0.8,5.5,1.5,5.5,1.5c0,0,0-5.7,0-12.7c0-11.9,0.2-13.1,2.9-19c3.4-7.4,9.7-13.6,15.6-15.4
	c3.6-1.1,4.9-1,8.8,0.4c2.5,0.9,4.8,1.3,5.1,0.9c0.3-0.4,1.5-1,2.8-1.4c1.9-0.5,2.4,0,3.3,3.6c3.2,12.4,2.8,11.9,11.3,14.1
	c6.7,1.7,7.7,2.3,7.7,4.2C941.8,2565.2,941.4,2566.5,940.9,2566.8L940.9,2566.8z"/>
<path d="M939.3,2419c-2.9,4.8-9.4,9.5-16.8,12c-3.8,1.3-8.2,1.8-16.5,1.8c-10.8,0-11.3,0.1-10.7,2c0.3,1.1,0.8,3.6,1.2,5.6
	c0.5,3.2,0.3,3.7-1.7,4.2c-1.3,0.3-2.5,0.4-2.7,0.2c-0.2-0.2-1.2-3.6-2.2-7.6c-1-4-2.4-7.6-3.1-8c-0.7-0.4-4.4-1.6-8.2-2.5
	c-6.6-1.6-6.8-1.8-6.2-4.3c0.8-3.1,0.8-4.4-0.1-9.4c-1-6.1,0.4-10.5,4.8-15.3c7.4-8,20.6-12.3,34.5-11.1l7.6,0.6l-0.6-3
	c-0.3-1.6-0.9-4.3-1.2-5.9c-0.5-2.5-0.3-2.9,2-3.4c2.8-0.5,2.4-1.4,5.7,11.4c0.9,3.5,1.4,3.8,7.5,5.8c3.6,1.1,7.2,2,8,2
	c1.7,0,1.9,4.1,0.3,5.7c-0.8,0.8-0.8,1.7,0,3.1C942.7,2406.8,942,2414.4,939.3,2419L939.3,2419z"/>
<path d="M941,2232.7c-0.5,0.3-3.2-0.1-6.2-0.9c-3-0.8-5.5-1.3-5.6-1.2c-0.1,0.1,0.2,2.7,0.7,5.7c1.1,6.6,0.4,14.3-2.2,22.5
	c-4.6,14.4-16.2,22.4-26.4,18.1c-2.1-0.9-4.1-1.2-4.4-0.7c-0.3,0.5-1.6,1.2-2.8,1.6c-1.9,0.6-2.3,0.2-3.3-3.6
	c-3.2-12.6-2.8-12.1-11.3-14.3c-7.7-2-8.9-3.1-6.8-6.4c0.7-1.1,1.8-1.1,6.2,0.1l5.4,1.4v-12.6c0-11.7,0.2-13,2.8-18.6
	c3.4-7.2,7.8-12.1,13.2-14.6c4.7-2.2,7.6-2.3,12.7-0.5c2,0.7,3.8,1,4,0.6c0.2-0.4,1.3-1,2.5-1.4c1.9-0.6,2.3-0.2,3.3,3.6
	c0.6,2.4,1.8,6.1,2.6,8.4c1.4,4,1.6,4.1,9,5.8c6.7,1.6,7.5,2,7.5,4.1C941.8,2231.1,941.5,2232.4,941,2232.7z"/>
<path d="M939.2,2084.9c-3.5,5.3-7.3,8.2-14.7,11.3c-5.4,2.3-7.5,2.6-18,2.6c-11.3,0-11.8,0.1-11.2,2c1.4,5,1.7,9.5,0.8,9.5
	c-0.6,0-1.7,0.3-2.5,0.6c-1.1,0.4-1.9-1.2-3.3-7.1c-2-8.7-2.8-9.3-12.7-11.6c-5.6-1.2-5.8-1.4-5.2-3.9c0.8-3.2,0.8-4.2-0.1-10.8
	c-0.9-6.8,0.6-10.2,6.8-15.7c7.5-6.8,14-8.9,27.3-9c12.3-0.1,18.1,1.4,25.9,6.6C941.6,2065.7,944.6,2076.7,939.2,2084.9
	L939.2,2084.9z"/>
<path d="M918.2,2530.6c-0.4,0.4-1.6,0.7-2.8,0.7c-1.9,0-2.4-1-3.9-7.8c-1-4.3-1.8-8.2-1.9-8.7c-0.1-0.5,1.1-1.2,2.5-1.6
	c2.6-0.7,2.7-0.6,4.8,7.6C919.1,2530.4,919,2529.8,918.2,2530.6z"/>
<path d="M918.2,2363.6c-0.4,0.4-1.6,0.7-2.8,0.7c-1.9,0-2.4-1-3.9-8c-0.9-4.4-1.8-8.3-1.9-8.7c-0.1-0.4,1-1,2.5-1.4
	c2.6-0.7,2.7-0.6,4.8,7.6C919.1,2363.4,919,2362.8,918.2,2363.6L918.2,2363.6z"/>
<path d="M918.2,2196.6c-0.4,0.4-1.6,0.7-2.8,0.7c-1.9,0-2.4-1-3.9-8c-0.9-4.4-1.8-8.3-1.9-8.7c-0.1-0.4,1-1,2.5-1.4
	c2.6-0.7,2.7-0.6,4.8,7.6C919.1,2196.4,919,2195.8,918.2,2196.6L918.2,2196.6z"/>
<path d="M911.2,2501.6c-0.4,0.4-1.7,0.7-2.9,0.7c-1.9,0-2.5-1-4.3-8.2c-1.1-4.5-1.8-8.6-1.6-9c0.3-0.4,1.5-0.8,2.8-0.8
	c2,0,2.5,0.8,4,6.8c0.9,3.7,1.9,7.5,2.1,8.3C911.6,2500.2,911.5,2501.3,911.2,2501.6L911.2,2501.6z"/>
<path d="M911.2,2334.6c-0.4,0.4-1.6,0.7-2.8,0.7c-1.8,0-2.4-1.1-4.2-8.3c-1.2-4.5-1.9-8.6-1.6-9c0.3-0.4,1.5-0.8,2.8-0.8
	c2,0,2.5,0.8,4,6.8c0.9,3.7,1.9,7.5,2.1,8.3C911.6,2333.2,911.5,2334.3,911.2,2334.6L911.2,2334.6z"/>
<path d="M911.2,2167.6c-0.4,0.4-1.7,0.7-2.9,0.7c-1.9,0-2.4-1-4.2-8.3c-1.1-4.5-1.8-8.6-1.6-9c0.2-0.4,1.4-0.8,2.7-0.8
	c2,0,2.5,0.8,4,6.8c0.9,3.7,1.9,7.5,2.1,8.3C911.6,2166.2,911.5,2167.3,911.2,2167.6L911.2,2167.6z"/>
<path d="M903.5,2640.3c-0.8,0-2.2,0.2-3,0.6c-1.1,0.4-2-1.5-3.6-8.1c-1.2-4.7-1.9-9-1.6-9.6c0.3-0.5,1.6-0.9,2.8-0.9
	c2,0,2.5,0.9,4.1,7.8c1,4.3,2,8.3,2.3,9C904.8,2639.7,904.4,2640.3,903.5,2640.3L903.5,2640.3z"/>
<path d="M903.5,2473.3c-0.8,0-2.2,0.2-3,0.6c-1.1,0.4-2-1.5-3.6-8.1c-1.2-4.7-1.9-9-1.6-9.6c0.3-0.5,1.6-0.9,2.8-0.9
	c2,0,2.5,0.9,4.1,7.8c1,4.3,2,8.3,2.3,9C904.8,2472.7,904.4,2473.3,903.5,2473.3L903.5,2473.3z"/>
<path d="M902.1,2306.4c-1.4,0.5-2.6,0.8-2.8,0.7c-0.8-0.9-4.3-17.3-3.9-18c0.3-0.4,1.5-0.8,2.7-0.8c2,0,2.5,1,4.3,8.6l2.1,8.6
	L902.1,2306.4z"/>
<path d="M903.2,2138.9c-0.8,0.2-2,0.6-2.7,0.8c-1,0.3-1.9-2-3.4-8.2c-1.1-4.7-1.9-9-1.6-9.4s1.5-0.8,2.7-0.8c2,0,2.5,1,4.3,8.6
	C904.2,2137,904.4,2138.5,903.2,2138.9L903.2,2138.9z"/>
<path d="M861.1,2587.6c-0.3,1-1,1.6-1.6,1.4c-0.6-0.2-4.7-1.3-8.9-2.3c-7.8-1.8-9-2.9-6.9-6.3c0.7-1,2.5-0.9,9.5,0.9
	c4.8,1.2,8.6,2.7,8.5,3.3C861.6,2585.3,861.4,2586.6,861.1,2587.6L861.1,2587.6z"/>
<path d="M861.1,2420.6c-0.3,1-1,1.6-1.6,1.4c-0.6-0.2-4.7-1.3-8.9-2.3c-7.8-1.8-9-2.9-6.9-6.3c0.7-1,2.5-0.9,9.5,0.9
	c4.8,1.2,8.6,2.7,8.5,3.3C861.6,2418.3,861.4,2419.6,861.1,2420.6z"/>
<path d="M861.2,2253.4c-0.4,1.5-1.3,1.4-9.1-0.6c-8.7-2.2-10.3-3.4-8.3-6.5c0.7-1.2,1.7-1.2,5.7-0.2
	C862.8,2249.5,862.3,2249.2,861.2,2253.4L861.2,2253.4z"/>
<path d="M861.1,2085.9l-0.4,2.1l-8.7-2.2c-8.7-2.2-10.3-3.4-8.3-6.5c0.7-1.2,1.7-1.2,5.7-0.2c10.3,2.5,12.3,3.2,12.2,3.9
	C861.6,2083.5,861.4,2084.8,861.1,2085.9L861.1,2085.9z"/>
<path d="M832.2,2580.4c-0.4,1.5-1.3,1.4-9.1-0.6c-8-2-8.7-2.4-8.4-4.6c0.4-3.3,0.6-3.4,5.9-2
	C833.7,2576.5,833.3,2576.2,832.2,2580.4L832.2,2580.4z"/>
<path d="M831.9,2413.3c-0.8,1.3-2,1.2-9.2-0.6c-7.7-1.9-8.3-2.2-8-4.4c0.4-3.3,0.6-3.4,5.9-2.1
	C833.7,2409.5,834.1,2409.7,831.9,2413.3L831.9,2413.3z"/>
<path d="M831.9,2246.2c-0.7,1.1-2.1,1.1-8.5-0.4c-9.3-2.2-10-2.6-9.2-5.3c0.8-2.6,2-2.6,11-0.3
	C832.3,2241.9,833.8,2243.3,831.9,2246.2L831.9,2246.2z"/>
<path d="M831.9,2079.2c-0.7,1.1-2.1,1.1-8.5-0.4c-9.3-2.2-10-2.6-9.2-5.3c0.8-2.6,2-2.6,11-0.3
	C832.3,2074.9,833.8,2076.3,831.9,2079.2L831.9,2079.2z"/>
<path d="M802.9,2573.2c-0.7,1.1-2.1,1.1-8.5-0.4c-9.3-2.2-9.7-2.4-9-5.2c0.7-2.7,1.8-2.7,10.8-0.4
	C803.3,2568.9,804.8,2570.3,802.9,2573.2L802.9,2573.2z"/>
<path d="M802.9,2406.2c-0.7,1.1-2.1,1.1-8.5-0.4c-9.3-2.2-9.7-2.4-9-5.2c0.7-2.7,1.8-2.7,10.8-0.4
	C803.3,2401.9,804.8,2403.3,802.9,2406.2L802.9,2406.2z"/>
<path d="M803,2239.1c-0.7,1-2.5,0.9-9.5-0.9c-8.5-2.1-8.6-2.2-8-4.8c0.3-1.4,0.7-2.7,0.7-2.8c0.1-0.1,4.1,0.8,8.9,2
	C803.9,2234.7,805.1,2235.7,803,2239.1L803,2239.1z"/>
<path d="M803,2072.1c-0.7,1-2.5,0.9-9.5-0.9c-8.5-2.1-8.6-2.2-8-4.8c0.3-1.4,0.7-2.7,0.7-2.8c0.1-0.1,4.1,0.8,8.9,2
	C803.9,2067.7,805.1,2068.7,803,2072.1L803,2072.1z"/>
<path d="M772.4,2586c-2.9,4.8-9.5,9.5-16.9,12c-3.8,1.3-8.2,1.8-16.5,1.8c-10.8,0-11.3,0.1-10.7,2c0.3,1.1,0.8,3.6,1.2,5.6
	c0.5,3.2,0.3,3.7-1.7,4.2c-1.3,0.3-2.5,0.4-2.7,0.2c-0.2-0.2-1.2-3.6-2.2-7.6c-1-4-2.4-7.6-3.1-8c-0.7-0.4-4.4-1.6-8.2-2.5
	c-6.6-1.6-6.8-1.8-6.2-4.3c0.7-2.9,0.7-3.5-0.1-10.9c-0.7-6.7,0.6-10,6.3-15.2c7.9-7.3,19.8-10.7,33-9.6c7.5,0.6,7.6,0.6,6.9-1.6
	c-0.3-1.2-0.9-3.9-1.2-5.9c-0.6-3.3-0.4-3.7,2-4.1c2.8-0.5,2.4-1.4,5.7,11.4c0.9,3.5,1.4,3.8,7.5,5.8c3.6,1.1,7.3,2,8.1,2
	c1.1,0,1.3,0.7,0.8,2.8c-0.7,3-0.7,2.9,0,11.8C774.8,2581,774.5,2582.4,772.4,2586L772.4,2586z"/>
<path d="M774,2399.1c-0.7,1.1-1.8,1.1-6.5-0.2l-5.6-1.5l0.7,2.7c1.5,5.4,0.6,18.5-1.7,25.1c-5.2,15.4-15.6,22.7-26.8,18.8
	c-2.3-0.8-4.3-1.1-4.5-0.7c-0.2,0.4-1.3,1-2.5,1.4c-1.9,0.6-2.3,0.2-3.3-3.6c-3.2-12.5-2.8-12-11.3-14.1c-5.7-1.4-7.7-2.3-7.7-3.5
	c0-3.7,1.3-4.1,7-2.6c3,0.8,5.5,1.3,5.5,1.2s-0.1-2.9-0.5-6.2c-1.9-19.5,6.2-36.8,19-40.6c3.6-1.1,4.9-1,8.8,0.4
	c2.5,0.9,4.8,1.3,5.1,0.9c0.3-0.4,1.5-1,2.8-1.4c1.9-0.5,2.4,0,3.3,3.6c3.2,12.4,2.8,11.9,11.3,14.1
	C774.8,2394.7,776,2395.9,774,2399.1L774,2399.1z"/>
<path d="M772.3,2251.8c-3.6,5.3-7.4,8.3-14.8,11.4c-5.4,2.3-7.5,2.6-18,2.6c-11.3,0-11.8,0.1-11.2,2c0.3,1.1,0.8,3.6,1.2,5.6
	c0.5,3.2,0.3,3.7-1.7,4.2c-1.3,0.3-2.5,0.4-2.7,0.2c-0.2-0.2-1.2-3.6-2.2-7.6c-1-4-2.5-7.6-3.2-8.1c-0.7-0.5-4.4-1.6-8.1-2.6
	c-6.5-1.7-6.8-1.9-6.2-4.3c0.7-2.8,0.7-3.4-0.1-10.8c-0.8-6.9,0.7-10.2,6.8-15.7c7.7-6.9,14-8.9,28.1-9c11.3,0,11.8-0.1,11.2-2
	c-0.3-1.1-0.8-3.6-1.2-5.6c-0.5-3.2-0.3-3.7,1.7-4.2c1.3-0.3,2.5-0.4,2.7-0.2c0.2,0.2,1.2,3.6,2.2,7.6c1,4,2.4,7.6,3.1,8
	c0.7,0.4,4.4,1.6,8.2,2.5c6.6,1.6,6.8,1.8,6.2,4.3c-0.7,2.8-0.7,2.8,0.1,11.6C774.9,2247.1,774.6,2248.3,772.3,2251.8z"/>
<path d="M774,2065c-0.6,0.9-2,0.9-6.2-0.2c-3-0.8-5.5-1.3-5.6-1.2s0.2,2.9,0.7,6.2c1.8,11.5-2.8,28-9.7,34.9
	c-3.3,3.3-9.8,6.6-13.2,6.6c-1.3,0-3.9-0.7-5.9-1.5c-2-0.8-3.9-1.1-4.2-0.6c-0.3,0.5-1.6,1.2-2.8,1.6c-1.9,0.6-2.3,0.2-3.3-3.6
	c-3.2-12.6-2.8-12.1-11.3-14.3c-7.7-2-8.9-3.1-6.8-6.4c0.7-1.1,1.8-1.1,6.6,0.2c5.2,1.4,5.7,1.4,5.1-0.1c-1.1-2.8-0.7-18.9,0.5-23.4
	c1.9-7.2,5.6-13.4,10.5-17.7c5.5-4.9,10.8-6.1,17.2-3.9c2.3,0.8,4.3,1.1,4.5,0.7c0.2-0.4,1.3-1,2.5-1.4c1.9-0.6,2.3-0.2,3.3,3.6
	c0.6,2.4,1.8,6.1,2.6,8.4c1.4,4,1.6,4.1,9,5.8C774.9,2060.5,776.1,2061.7,774,2065L774,2065z"/>
<path d="M772.2,1918c-6.1,9.5-21.1,15.2-36.6,14c-7.9-0.6-7.9-0.6-7.3,1.6c0.3,1.2,0.9,3.9,1.2,5.8c0.6,3.3,0.4,3.7-2,4.1
	c-2.8,0.5-2.4,1.3-5.7-11.3c-1-4-2.7-5-11.3-7c-5.5-1.2-5.8-1.4-5.2-3.9c0.7-2.8,0.7-2.8-0.1-11.6c-0.5-5.3-0.2-6.5,2.1-10
	c3.6-5.3,7.4-8.3,14.8-11.4c5.3-2.2,7.6-2.6,17.2-2.6c12.3,0,18.1,1.4,25.9,6.6C774.6,1898.7,777.6,1909.6,772.2,1918L772.2,1918z"
	/>
<path d="M751.2,2530.6c-0.4,0.4-1.6,0.7-2.8,0.7c-1.9,0-2.4-1-3.9-7.8c-1-4.3-1.8-8.2-1.9-8.7c-0.1-0.5,1.1-1.2,2.5-1.6
	c2.6-0.7,2.7-0.6,4.8,7.6C752.1,2530.4,752,2529.8,751.2,2530.6z"/>
<path d="M751.2,2363.6c-0.4,0.4-1.6,0.7-2.8,0.7c-1.9,0-2.4-1-3.9-7.8c-1-4.3-1.8-8.2-1.9-8.7c-0.1-0.5,1.1-1.2,2.5-1.6
	c2.6-0.7,2.7-0.6,4.8,7.6C752.1,2363.4,752,2362.8,751.2,2363.6z"/>
<path d="M751.2,2196.6c-0.4,0.4-1.6,0.7-2.8,0.7c-1.9,0-2.4-1-3.9-7.8c-1-4.3-1.8-8.2-1.9-8.7c-0.1-0.5,1.1-1.2,2.5-1.6
	c2.6-0.7,2.7-0.6,4.8,7.6C752.1,2196.4,752,2195.8,751.2,2196.6z"/>
<path d="M751.2,2029.6c-0.4,0.4-1.6,0.7-2.8,0.7c-1.8,0-2.4-1.1-4.2-8.6l-2.1-8.6l2.5-1c1.4-0.5,2.6-0.8,2.8-0.7
	c0.3,0.3,4.4,16.2,4.4,17C751.8,2028.8,751.5,2029.3,751.2,2029.6z"/>
<path d="M744.2,2501.6c-0.4,0.4-1.7,0.7-2.9,0.7c-1.9,0-2.5-1-4.3-8.2c-1.1-4.5-1.8-8.6-1.6-9c0.3-0.4,1.5-0.8,2.8-0.8
	c2,0,2.5,0.8,4,6.8c0.9,3.7,1.9,7.5,2.1,8.3C744.6,2500.2,744.5,2501.3,744.2,2501.6L744.2,2501.6z"/>
<path d="M744.2,2334.6c-0.4,0.4-1.7,0.7-2.9,0.7c-1.9,0-2.5-1-4.3-8.2c-1.1-4.5-1.8-8.6-1.6-9c0.3-0.4,1.5-0.8,2.8-0.8
	c2,0,2.5,0.8,4,6.8c0.9,3.7,1.9,7.5,2.1,8.3C744.6,2333.2,744.5,2334.3,744.2,2334.6L744.2,2334.6z"/>
<path d="M744.2,2167.6c-0.4,0.4-1.7,0.7-2.9,0.7c-1.9,0-2.5-1-4.3-8.2c-1.1-4.5-1.8-8.6-1.6-9c0.3-0.4,1.5-0.8,2.8-0.8
	c2,0,2.5,0.8,4,6.8c0.9,3.7,1.9,7.5,2.1,8.3C744.6,2166.2,744.5,2167.3,744.2,2167.6L744.2,2167.6z"/>
<path d="M744.2,2000.6c-0.4,0.4-1.7,0.7-2.9,0.7c-1.9,0-2.5-1-4.3-8.2c-1.1-4.5-1.8-8.6-1.6-9c0.3-0.4,1.5-0.8,2.8-0.8
	c2,0,2.5,0.8,4,6.8c0.9,3.7,1.9,7.5,2.1,8.3C744.6,1999.2,744.5,2000.3,744.2,2000.6L744.2,2000.6z"/>
<path d="M736.5,2640.3c-0.8,0-2.2,0.2-3,0.6c-1.1,0.4-2-1.5-3.6-8.1c-1.2-4.7-1.9-9-1.6-9.6c0.3-0.5,1.6-0.9,2.8-0.9
	c2,0,2.5,0.9,4.1,7.8c1,4.3,2,8.3,2.3,9C737.8,2639.7,737.4,2640.3,736.5,2640.3L736.5,2640.3z"/>
<path d="M735.1,2473.4c-1.4,0.5-2.6,0.8-2.8,0.7c-0.9-0.9-4.4-17-3.9-17.8c0.3-0.5,1.6-1,2.8-1c2,0,2.5,1,4.3,8.6l2.1,8.6
	L735.1,2473.4z"/>
<path d="M735.1,2306.4c-1.4,0.5-2.6,0.8-2.8,0.7c-0.9-0.9-4.4-17-3.9-17.8c0.3-0.5,1.6-1,2.8-1c2,0,2.5,1,4.3,8.6l2.1,8.6
	L735.1,2306.4z"/>
<path d="M736.2,2138.9c-0.8,0.2-2,0.6-2.8,0.9c-1,0.3-2-1.9-3.5-8.1c-1.2-4.7-1.9-8.9-1.5-9.4c0.3-0.5,1.6-0.9,2.8-0.9
	c2,0,2.5,1,4.3,8.6C737.2,2137,737.4,2138.5,736.2,2138.9L736.2,2138.9z"/>
<path d="M736.2,1971.9c-0.8,0.2-2,0.6-2.8,0.9c-1,0.3-2-1.9-3.5-8.1c-1.2-4.7-1.9-8.9-1.5-9.4c0.3-0.5,1.6-0.9,2.8-0.9
	c2,0,2.5,1,4.3,8.6C737.2,1970,737.4,1971.5,736.2,1971.9L736.2,1971.9z"/>
<path d="M694.1,2587.6c-0.3,1-1,1.6-1.6,1.4c-0.6-0.2-4.7-1.3-8.9-2.3c-7.8-1.8-9-2.9-6.9-6.3c0.7-1,2.5-0.9,9.5,0.9
	c4.8,1.2,8.6,2.7,8.5,3.3S694.4,2586.6,694.1,2587.6L694.1,2587.6z"/>
<path d="M694.1,2420.1c-0.2,1.3-1,2.1-1.6,1.9c-0.6-0.2-4.7-1.3-8.9-2.3c-7.8-1.8-9-2.9-6.9-6.3c0.7-1,2.5-0.9,9.5,0.9
	c4.8,1.2,8.6,2.5,8.5,2.8C694.6,2417.5,694.4,2418.9,694.1,2420.1L694.1,2420.1z"/>
<path d="M694.1,2252.9l-0.4,2.1l-8.7-2.2c-8.6-2.2-10.3-3.4-8.4-6.4c0.7-1,2.5-0.9,9.5,0.9c4.8,1.2,8.6,2.5,8.5,2.8
	C694.6,2250.5,694.4,2251.8,694.1,2252.9L694.1,2252.9z"/>
<path d="M694.1,2085.9l-0.4,2.1l-8.7-2.2c-8.7-2.2-10.3-3.4-8.3-6.5c0.7-1.2,1.7-1.2,5.7-0.2c10.3,2.5,12.3,3.2,12.2,3.9
	C694.6,2083.5,694.4,2084.8,694.1,2085.9L694.1,2085.9z"/>
<path d="M694.1,1918.9l-0.4,2.1l-8.7-2.2c-8.7-2.2-10.3-3.4-8.3-6.5c0.7-1.2,1.7-1.2,5.7-0.2c10.3,2.5,12.3,3.2,12.2,3.9
	C694.6,1916.5,694.4,1917.8,694.1,1918.9L694.1,1918.9z"/>
<path d="M665.2,2580.4c-0.4,1.5-1.3,1.4-9.1-0.6c-8.7-2.2-10.3-3.4-8.3-6.5c0.7-1.2,1.7-1.2,5.7-0.2
	C666.8,2576.5,666.3,2576.2,665.2,2580.4L665.2,2580.4z"/>
<path d="M664.9,2413.3c-0.8,1.3-2,1.2-9.2-0.5c-8.3-2-9.9-3.3-7.9-6.3c0.9-1.4,1.8-1.3,14.4,2
	C665.9,2409.4,666.6,2410.6,664.9,2413.3L664.9,2413.3z"/>
<path d="M664.9,2246.2c-0.7,1.1-2.1,1.1-8.5-0.4c-9.3-2.2-10-2.6-9.2-5.3c0.8-2.5,1-2.5,10.5-0.2
	C665.3,2242,666.8,2243.3,664.9,2246.2L664.9,2246.2z"/>
<path d="M664.9,2079.2c-0.7,1.1-2.1,1.1-8.5-0.4c-9.3-2.2-10-2.6-9.2-5.3c0.8-2.6,2-2.6,11-0.3
	C665.3,2074.9,666.8,2076.3,664.9,2079.2L664.9,2079.2z"/>
<path d="M664.9,1912.2c-0.7,1.1-2.1,1.1-8.5-0.4c-9.3-2.2-10-2.6-9.2-5.3c0.8-2.6,2-2.6,11-0.3
	C665.3,1907.9,666.8,1909.3,664.9,1912.2L664.9,1912.2z"/>
<path d="M635.9,2573.2c-0.7,1.1-2.1,1.1-8.5-0.4c-9.3-2.2-9.7-2.4-9-5.2c0.7-2.7,1.8-2.7,10.8-0.4
	C636.3,2568.9,637.8,2570.3,635.9,2573.2L635.9,2573.2z"/>
<path d="M635.9,2406.2c-0.7,1.1-2.1,1.1-8.5-0.4c-9.4-2.2-9.6-2.3-9-5.6l0.5-2.6l8.7,2.2C636.3,2401.9,637.9,2403.2,635.9,2406.2z"
	/>
<path d="M636,2239.1c-1.3,1.9-18.5-2.5-17.7-4.5c0.3-0.8,0.6-2,0.6-2.7c0-1,2-0.8,8.7,0.9C636.2,2234.9,637.9,2236.2,636,2239.1z"/>
<path d="M636,2072.1c-0.7,1-2.5,0.9-9.5-0.9c-8.5-2.1-8.6-2.2-8-4.8c0.3-1.4,0.7-2.7,0.7-2.8s4.1,0.8,8.9,2
	C636.9,2067.7,638.1,2068.7,636,2072.1L636,2072.1z"/>
<path d="M636,1905.1c-0.7,1-2.5,0.9-9.6-0.9c-8.5-2.1-8.7-2.2-8.1-4.8c0.4-1.4,0.7-2.7,0.8-2.8c0.1-0.1,4.1,0.8,8.9,2
	C636.9,1900.7,638.1,1901.7,636,1905.1L636,1905.1z"/>
<path d="M607,2566.1c-0.7,1.1-1.8,1.1-6.4-0.1l-5.6-1.5l0.5,2.9c0.2,1.6,0.7,4.3,0.9,6c0.8,5.2-1.4,17.1-4.3,23.4
	c-6,12.8-15.8,18.2-25.6,14.1c-1.9-0.8-3.5-1.1-3.7-0.6c-0.2,0.4-1.3,1.1-2.5,1.5c-1.9,0.6-2.3,0.2-3.3-3.6
	c-3.2-12.5-2.8-12-11.3-14.1c-5.7-1.4-7.7-2.3-7.7-3.5c0-3.7,1.3-4.1,7-2.6c3,0.8,5.5,1.3,5.6,1.2c0.1-0.1-0.2-2.9-0.6-6.2
	c-2.2-18.6,6.3-36.8,19-40.6c3.6-1.1,4.9-1,8.8,0.4c2.5,0.9,4.8,1.3,5.1,0.9s1.5-1,2.8-1.4c1.9-0.5,2.4,0,3.3,3.6
	c3.2,12.4,2.8,11.9,11.3,14.1C607.8,2561.7,609,2562.9,607,2566.1L607,2566.1z"/>
<path d="M605.3,2418.8c-3.6,5.3-7.4,8.3-14.8,11.4c-5.4,2.3-7.5,2.6-18,2.6c-11.3,0-11.8,0.1-11.2,2c0.3,1.1,0.8,3.6,1.2,5.6
	c0.5,3.2,0.3,3.7-1.7,4.2c-1.3,0.3-2.5,0.4-2.7,0.2c-0.2-0.2-1.2-3.6-2.2-7.6c-1-4-2.4-7.6-3.1-8c-0.7-0.4-4.4-1.6-8.2-2.5
	c-6.6-1.6-6.8-1.8-6.2-4.3c0.8-3,0.7-3.8-0.1-10.4c-0.8-6.4,0-9.1,4.3-13.8c7.7-8.5,19.6-12.6,34.2-11.6c8.3,0.6,8.3,0.5,7.7-1.6
	c-0.3-1.2-0.9-3.8-1.2-5.8c-0.6-3.3-0.4-3.7,2-4.1c2.8-0.5,2.4-1.4,5.7,11.4c0.9,3.5,1.4,3.8,7.5,5.8c3.6,1.1,7.3,2,8.1,2
	c1.1,0,1.3,0.7,0.8,2.8c-0.7,3-0.7,3,0,11.8C607.9,2414.1,607.6,2415.3,605.3,2418.8L605.3,2418.8z"/>
<path d="M607,2232c-0.6,0.9-2,0.9-6.2-0.2c-3-0.8-5.5-1.3-5.6-1.2c-0.1,0.1,0.2,2.9,0.7,6.2c1.1,8.2-0.5,18.7-4,26
	c-3.4,7.1-4.3,8.1-9.4,12c-3.3,2.5-4.8,2.9-9.6,2.9c-3.5,0-6.4-0.6-7.4-1.4c-1.1-0.9-1.9-1.1-2.4-0.4c-0.4,0.6-1.7,1.4-2.9,1.7
	c-1.9,0.6-2.3,0.2-3.3-3.6c-3.2-12.6-2.8-12.1-11.3-14.3c-7.6-2-8.9-3.1-6.9-6.2c0.6-0.9,2-0.9,6.2,0.2c3,0.8,5.5,1.3,5.6,1.2
	c0.1-0.1-0.2-2.9-0.6-6.2c-2.2-18.6,6.3-36.8,19-40.6c3.6-1.1,4.9-1,8.8,0.4c2.5,0.9,4.8,1.3,5.1,0.8c0.3-0.5,1.5-1.1,2.7-1.5
	c1.9-0.6,2.3-0.2,3.3,3.6c3.2,12.5,2.8,12,11.3,14.1C607.8,2227.5,609.1,2228.7,607,2232L607,2232z"/>
<path d="M606,2083.9c-2.9,4.7-9.9,10.2-16.1,12.6c-4.6,1.8-7.6,2.2-17.4,2.3c-11.3,0-11.8,0.1-11.2,2c0.3,1.1,0.8,3.6,1.2,5.6
	c0.5,3.2,0.3,3.7-1.7,4.2c-1.3,0.3-2.5,0.4-2.7,0.2c-0.2-0.2-1.2-3.6-2.2-7.6c-1-4-2.5-7.6-3.2-8.1c-0.7-0.5-4.4-1.6-8.1-2.6
	c-6.5-1.7-6.8-1.9-6.2-4.3c0.7-2.7,0.7-2.7-0.1-11.5c-0.5-5.3-0.2-6.5,2.1-10c3.6-5.3,7.4-8.3,14.8-11.4c5.4-2.3,7.5-2.6,18-2.6
	c11.3,0,11.8-0.1,11.2-2c-0.3-1.1-0.8-3.6-1.2-5.6c-0.5-3.2-0.3-3.7,1.7-4.2c1.3-0.3,2.5-0.4,2.7-0.2c0.2,0.2,1.2,3.6,2.2,7.6
	c1,4,2.4,7.6,3.1,8c0.7,0.4,4.4,1.6,8.2,2.5c6.6,1.6,6.8,1.8,6.2,4.3c-0.7,2.8-0.7,2.8,0,11.6C607.8,2079.6,607.5,2081.4,606,2083.9
	L606,2083.9z"/>
<path d="M607,1898c-0.6,0.9-2,0.9-6.2-0.2c-3-0.8-5.5-1.3-5.6-1.2c-0.1,0.1,0.2,2.9,0.7,6.2c2.5,17.8-6.4,36.8-19.1,40.6
	c-3.6,1.1-4.9,1-8.8-0.4c-2.5-0.9-4.8-1.3-5.1-0.9c-0.3,0.4-1.5,1-2.8,1.4c-1.9,0.5-2.4,0-3.3-3.6c-3.2-12.4-2.8-11.9-11.3-14.1
	c-7.7-2-8.9-3.1-6.8-6.4c0.7-1.1,1.8-1.1,6.4,0.1l5.5,1.4l-0.4-4.1c-0.2-2.3-0.6-4.9-0.8-5.9c-0.8-4,1.6-16.5,4.3-22.2
	c6-12.8,15.8-18.2,25.6-14.1c1.9,0.8,3.5,1.1,3.7,0.6c0.2-0.4,1.3-1.1,2.5-1.5c1.9-0.6,2.3-0.2,3.3,3.6c3.2,12.5,2.8,12,11.3,14.1
	C607.8,1893.5,609.1,1894.7,607,1898z"/>
<path d="M606,1749.8c-6.4,10.4-21.5,16.5-37.8,15.1c-7.5-0.6-7.6-0.6-6.9,1.6c0.3,1.2,0.9,3.9,1.2,5.9c0.6,3.3,0.4,3.7-2,4.1
	c-2.8,0.5-2.4,1.3-5.7-11.3c-1-4-2.7-5-11.3-7c-5.5-1.2-5.8-1.4-5.2-3.9c0.7-2.9,0.7-3.1-0.1-11.3c-0.5-5-0.2-6.3,2-10.1
	c5.4-9.2,16.8-14.1,32.6-14.1c11.8,0,17.7,1.6,25.4,6.7C606.9,1731.2,610.5,1742.4,606,1749.8L606,1749.8z"/>
<path d="M584.2,2530.6c-0.4,0.4-1.6,0.7-2.8,0.7c-1.9,0-2.4-1-3.9-7.8c-1-4.3-1.8-8.2-1.9-8.7c-0.1-0.5,1.1-1.2,2.5-1.6
	c2.6-0.7,2.7-0.6,4.8,7.6C585.1,2530.4,585,2529.8,584.2,2530.6z"/>
<path d="M584.2,2363.6c-0.4,0.4-1.6,0.7-2.8,0.7c-1.9,0-2.4-1-3.9-7.8c-1-4.3-1.8-8.2-1.9-8.7c-0.1-0.5,1.1-1.2,2.5-1.6
	c2.6-0.7,2.7-0.6,4.8,7.6C585.1,2363.4,585,2362.8,584.2,2363.6z"/>
<path d="M584.2,2196.6c-0.4,0.4-1.6,0.7-2.8,0.7c-1.9,0-2.4-1-3.9-7.8c-1-4.3-1.8-8.2-1.9-8.7c-0.1-0.5,1.1-1.2,2.5-1.6
	c2.6-0.7,2.7-0.6,4.8,7.6C585.1,2196.4,585,2195.8,584.2,2196.6z"/>
<path d="M584.2,2029.6c-0.4,0.4-1.6,0.7-2.8,0.7c-1.8,0-2.4-1.1-4.2-8.6l-2.1-8.6l2.5-1c1.4-0.5,2.6-0.8,2.8-0.7
	c0.3,0.3,4.4,16.2,4.4,17C584.8,2028.8,584.5,2029.3,584.2,2029.6z"/>
<path d="M584.2,1862.6c-0.4,0.4-1.6,0.7-2.8,0.7c-1.8,0-2.4-1.1-4.2-8.6l-2.1-8.6l2.5-1c1.4-0.5,2.6-0.8,2.8-0.7
	c0.3,0.3,4.4,16.2,4.4,17C584.8,1861.8,584.5,1862.3,584.2,1862.6z"/>
<path d="M577.2,2501.6c-0.4,0.4-1.7,0.7-2.9,0.7c-1.9,0-2.5-1-4.3-8.2c-1.1-4.5-1.8-8.6-1.6-9c0.3-0.4,1.5-0.8,2.8-0.8
	c2,0,2.5,0.8,4,6.8c0.9,3.7,1.9,7.5,2.1,8.3C577.6,2500.2,577.5,2501.3,577.2,2501.6L577.2,2501.6z"/>
<path d="M577.2,2334.6c-0.4,0.4-1.7,0.7-2.9,0.7c-1.9,0-2.5-1-4.3-8.2c-1.1-4.5-1.8-8.6-1.6-9c0.3-0.4,1.5-0.8,2.8-0.8
	c2,0,2.5,0.8,4,6.8c0.9,3.7,1.9,7.5,2.1,8.3C577.6,2333.2,577.5,2334.3,577.2,2334.6L577.2,2334.6z"/>
<path d="M577.2,2167.6c-0.4,0.4-1.7,0.7-2.9,0.7c-1.9,0-2.5-1-4.3-8.2c-1.1-4.5-1.8-8.6-1.6-9c0.3-0.4,1.5-0.8,2.8-0.8
	c2,0,2.5,0.8,4,6.8c0.9,3.7,1.9,7.5,2.1,8.3C577.6,2166.2,577.5,2167.3,577.2,2167.6L577.2,2167.6z"/>
<path d="M577.2,2000.6c-0.4,0.4-1.7,0.7-2.9,0.7c-1.9,0-2.5-1-4.3-8.2c-1.1-4.5-1.8-8.6-1.6-9c0.3-0.4,1.5-0.8,2.8-0.8
	c2,0,2.5,0.8,4,6.8c0.9,3.7,1.9,7.5,2.1,8.3C577.6,1999.2,577.5,2000.3,577.2,2000.6L577.2,2000.6z"/>
<path d="M577.2,1833.6c-0.4,0.4-1.7,0.7-2.9,0.7c-1.9,0-2.5-1-4.3-8.3c-2.1-8.5-2.1-9.1,1.4-10.1c1.9-0.6,2.2,0.1,3.9,7.1
	c1,4.3,2,8.2,2.2,8.8C577.7,1832.4,577.6,1833.2,577.2,1833.6z"/>
<path d="M568.1,2640.4c-1.4,0.5-2.6,0.8-2.8,0.7c-0.9-0.9-4.4-17-3.9-17.8c0.3-0.5,1.6-1,2.8-1c2,0,2.5,1,4.3,8.6l2.1,8.6
	L568.1,2640.4z"/>
<path d="M568.1,2473.4c-1.4,0.5-2.6,0.8-2.8,0.7c-0.9-0.9-4.4-17-3.9-17.8c0.3-0.5,1.6-1,2.8-1c2,0,2.5,1,4.3,8.6l2.1,8.6
	L568.1,2473.4z"/>
<path d="M568.1,2306.4c-1.4,0.5-2.6,0.8-2.8,0.7c-0.9-0.9-4.4-17-3.9-17.8c0.3-0.5,1.6-1,2.8-1c2,0,2.5,1,4.3,8.6l2.1,8.6
	L568.1,2306.4z"/>
<path d="M569.2,2138.9c-0.8,0.2-2,0.6-2.8,0.9c-1,0.3-2-1.9-3.5-8.1c-1.2-4.7-1.9-8.9-1.5-9.4c0.3-0.5,1.6-0.9,2.8-0.9
	c2,0,2.5,1,4.3,8.6C570.2,2137,570.3,2138.5,569.2,2138.9L569.2,2138.9z"/>
<path d="M569.2,1971.9c-0.8,0.2-2,0.6-2.8,0.9c-1,0.3-2-1.9-3.5-8.1c-1.2-4.7-1.9-8.9-1.5-9.4c0.3-0.5,1.6-0.9,2.8-0.9
	c2,0,2.5,1,4.3,8.6C570.2,1970,570.3,1971.5,569.2,1971.9L569.2,1971.9z"/>
<path d="M569.2,1804.9c-0.8,0.2-2,0.6-2.8,0.9c-1,0.3-2-1.9-3.5-8.1c-1.2-4.7-1.9-8.9-1.5-9.4c0.3-0.5,1.6-0.9,2.8-0.9
	c2,0,2.5,1,4.3,8.6C570.2,1803,570.3,1804.5,569.2,1804.9L569.2,1804.9z"/>
<path d="M527.1,2587.1c-0.2,1.3-1,2.1-1.6,1.9c-0.6-0.2-4.7-1.3-8.9-2.3c-7.8-1.8-9-2.9-6.9-6.3c0.7-1,2.5-0.9,9.5,0.9
	c4.8,1.2,8.6,2.5,8.5,2.8C527.6,2584.5,527.4,2585.9,527.1,2587.1L527.1,2587.1z"/>
<path d="M527.1,2420.1c-0.2,1.3-1,2.1-1.6,1.9c-0.6-0.2-4.7-1.3-8.9-2.3c-7.8-1.8-9-2.9-6.9-6.3c0.7-1,2.5-0.9,9.5,0.9
	c4.8,1.2,8.6,2.5,8.5,2.8C527.6,2417.5,527.4,2418.9,527.1,2420.1L527.1,2420.1z"/>
<path d="M527.1,2252.9l-0.4,2.1l-8.7-2.2c-8.6-2.2-10.3-3.4-8.4-6.4c0.7-1,2.5-0.9,9.5,0.9c4.8,1.2,8.6,2.5,8.5,2.8
	C527.6,2250.5,527.4,2251.8,527.1,2252.9L527.1,2252.9z"/>
<path d="M527.1,2085.9l-0.4,2.1l-8.7-2.2c-8.7-2.2-10.3-3.4-8.3-6.5c0.7-1.2,1.7-1.2,5.7-0.2c10.3,2.5,12.3,3.2,12.2,3.9
	C527.6,2083.5,527.4,2084.8,527.1,2085.9L527.1,2085.9z"/>
<path d="M527.1,1918.9l-0.4,2.1l-8.7-2.2c-8.7-2.2-10.3-3.4-8.3-6.5c0.7-1.2,1.7-1.2,5.7-0.2c10.3,2.5,12.3,3.2,12.2,3.9
	C527.6,1916.5,527.4,1917.8,527.1,1918.9L527.1,1918.9z"/>
<path d="M527.1,1751.6c-0.6,2.2-2,2.2-10.8-0.1c-7-1.8-8.5-3.2-6.6-6.1c0.7-1.2,1.7-1.2,5.7-0.2c10.3,2.5,12.3,3.2,12.2,3.9
	C527.6,1749.5,527.4,1750.6,527.1,1751.6L527.1,1751.6z"/>
<path d="M497.9,2580.3c-0.8,1.3-2,1.2-9.2-0.5c-8.3-2-9.9-3.3-7.9-6.3c0.9-1.4,1.8-1.3,14.4,2
	C498.9,2576.4,499.6,2577.6,497.9,2580.3z"/>
<path d="M497.9,2413.3c-0.8,1.3-2,1.2-9.2-0.5c-8.3-2-9.9-3.3-7.9-6.3c0.9-1.4,1.8-1.3,14.4,2
	C498.9,2409.4,499.6,2410.6,497.9,2413.3L497.9,2413.3z"/>
<path d="M497.9,2246.2c-0.9,1.4-1.8,1.3-14.3-2c-3.8-1-4.5-2.2-2.8-4.8c0.9-1.4,1.8-1.3,14.3,2
	C498.8,2242.4,499.6,2243.6,497.9,2246.2z"/>
<path d="M498.1,2078.6c-0.2,1-1,1.7-1.6,1.7c-1.7,0-15.8-3.7-16.4-4.3c-1.1-1.1,0.9-4.7,2.5-4.6c3.2,0,15.5,3.6,15.7,4.5
	C498.5,2076.4,498.4,2077.6,498.1,2078.6L498.1,2078.6z"/>
<path d="M498.1,1911.6c-0.2,1-1,1.7-1.6,1.7c-1.7,0-15.8-3.7-16.4-4.3c-1.1-1.1,0.9-4.7,2.5-4.6c3.2,0,15.5,3.6,15.7,4.5
	C498.5,1909.4,498.4,1910.6,498.1,1911.6z"/>
<path d="M498.1,1744.6c-0.2,1-1,1.7-1.6,1.7c-1.7,0-15.8-3.7-16.3-4.3c-0.3-0.3-0.2-1.6,0.2-2.9l0.6-2.5l8.6,2.2
	C498.3,1740.9,498.9,1741.4,498.1,1744.6L498.1,1744.6z"/>
<path d="M468.9,2573.2c-0.7,1.1-2.1,1.1-8.5-0.4c-9.4-2.2-9.9-2.5-9.1-5.6l0.6-2.5l8.7,2.2C469.3,2568.9,470.9,2570.2,468.9,2573.2
	L468.9,2573.2z"/>
<path d="M468.9,2406.2c-0.7,1.1-2.1,1.1-8.5-0.4c-9.4-2.2-9.9-2.5-9.1-5.6l0.6-2.5l8.7,2.2C469.3,2401.9,470.9,2403.2,468.9,2406.2
	L468.9,2406.2z"/>
<path d="M469,2239.1c-0.7,1.1-2.4,0.9-9.2-0.8c-4.6-1.2-8.5-2.3-8.7-2.4c-0.2-0.2,0-1.4,0.3-2.8l0.6-2.5l8.7,2.2
	C469.2,2234.9,470.9,2236.2,469,2239.1L469,2239.1z"/>
<path d="M469,2072.1c-0.7,1-2.5,0.9-9.6-0.9c-8.5-2.1-8.7-2.2-8.1-4.8c0.4-1.4,0.7-2.7,0.8-2.8c0.1-0.1,4.1,0.8,8.9,2
	C469.9,2067.7,471.1,2068.7,469,2072.1L469,2072.1z"/>
<path d="M469,1905.1c-0.7,1-2.5,0.9-9.6-0.9c-8.5-2.1-8.7-2.2-8.1-4.8c0.4-1.4,0.7-2.7,0.8-2.8c0.1-0.1,4.1,0.8,8.9,2
	C469.9,1900.7,471.1,1901.7,469,1905.1L469,1905.1z"/>
<path d="M469,1738.1c-0.7,1-2.5,0.9-9.6-0.9c-8.5-2.1-8.7-2.2-8.1-4.8c0.4-1.4,0.7-2.7,0.8-2.8c0.1-0.1,4.1,0.8,8.9,2
	C469.9,1733.7,471.1,1734.7,469,1738.1L469,1738.1z"/>
<path d="M438.3,2585.8c-3.6,5.3-7.4,8.3-14.8,11.4c-5.4,2.3-7.5,2.6-18,2.6c-11.3,0-11.8,0.1-11.2,2c0.3,1.1,0.8,3.6,1.2,5.6
	c0.5,3.2,0.3,3.7-1.7,4.2c-1.3,0.3-2.5,0.4-2.7,0.2c-0.2-0.2-1.2-3.6-2.2-7.6c-1-4-2.4-7.6-3.1-8c-0.7-0.4-4.4-1.6-8.2-2.5
	c-6.6-1.6-6.8-1.8-6.2-4.3c0.7-2.9,0.7-3.5-0.1-10.9c-0.7-6.7,0.6-10,6.3-15.2c7.9-7.3,19.8-10.7,33-9.6c7.5,0.6,7.6,0.6,6.9-1.6
	c-0.3-1.2-0.9-3.9-1.2-5.9c-0.6-3.3-0.4-3.7,2-4.1c2.8-0.5,2.4-1.3,5.7,11.3c1,4,2.7,5,11.3,7c5.5,1.2,5.8,1.4,5.2,3.9
	c-0.7,2.8-0.7,2.8,0.1,11.6C440.9,2581.1,440.6,2582.3,438.3,2585.8L438.3,2585.8z"/>
<path d="M440,2399.1c-0.7,1.1-1.8,1.1-6.4-0.1l-5.5-1.4l0.4,4.1c0.2,2.3,0.6,4.9,0.8,5.9c0.8,4-1.6,16.5-4.3,22.2
	c-5.9,12.6-16,18.2-25.6,14.1c-1.9-0.8-3.5-1.1-3.7-0.6c-0.2,0.4-1.3,1.1-2.5,1.5c-1.9,0.6-2.3,0.2-3.3-3.6
	c-3.2-12.5-2.8-12-11.3-14.1c-5.7-1.4-7.7-2.3-7.7-3.5c0-3.7,1.3-4.1,7-2.6c3,0.8,5.5,1.3,5.6,1.2c0.1-0.1-0.2-2.9-0.7-6.2
	c-2.5-17.8,6.4-36.8,19.1-40.6c3.6-1.1,4.9-1,8.8,0.4c2.5,0.9,4.8,1.3,5.1,0.8c0.3-0.5,1.5-1.1,2.7-1.5c1.9-0.6,2.3-0.2,3.3,3.6
	c3.2,12.6,2.8,12.1,11.3,14.3C440.8,2394.7,442,2395.9,440,2399.1L440,2399.1z"/>
<path d="M439,2250.9c-2.9,4.7-9.9,10.2-16.1,12.6c-4.6,1.8-7.6,2.2-17.4,2.3c-11.3,0-11.8,0.1-11.2,2c0.3,1.1,0.8,3.6,1.2,5.6
	c0.5,3.2,0.3,3.7-1.7,4.2c-1.3,0.3-2.5,0.4-2.7,0.2c-0.2-0.2-1.2-3.6-2.2-7.6c-1-4-2.4-7.6-3.1-8c-0.7-0.4-4.4-1.6-8.2-2.5
	c-6.6-1.6-6.8-1.8-6.2-4.3c0.7-2.8,0.7-2.8-0.1-11.6c-0.5-5.3-0.2-6.5,2.1-10c3.6-5.3,7.4-8.3,14.8-11.4c5.4-2.3,7.5-2.6,18-2.6
	c11.3,0,11.8-0.1,11.2-2c-0.3-1.1-0.8-3.6-1.2-5.6c-0.5-3.2-0.3-3.7,1.7-4.2c1.3-0.3,2.5-0.4,2.7-0.2c0.2,0.2,1.2,3.6,2.2,7.6
	c1,4,2.5,7.6,3.2,8.1c0.7,0.5,4.4,1.6,8.1,2.6c6.5,1.7,6.8,1.9,6.2,4.3c-0.7,2.7-0.7,2.7,0.1,11.5
	C440.8,2246.6,440.5,2248.4,439,2250.9L439,2250.9z"/>
<path d="M440,2065c-0.6,0.9-2,0.9-6.2-0.2c-3-0.8-5.5-1.3-5.6-1.2c-0.1,0.1,0.2,2.9,0.6,6.2c2.2,18.6-6.3,36.8-19,40.6
	c-3.6,1.1-4.9,1-8.8-0.4c-2.5-0.9-4.8-1.3-5.1-0.9c-0.3,0.4-1.5,1-2.8,1.4c-1.9,0.5-2.4,0-3.3-3.6c-3.2-12.4-2.8-11.9-11.3-14.1
	c-7.7-2-8.9-3.1-6.8-6.4c0.7-1.1,1.8-1.1,6.4,0.1l5.6,1.5l-0.5-2.9c-0.2-1.6-0.7-4.3-0.9-6c-0.8-5.2,1.4-17.1,4.4-23.5
	c3.5-7.4,9.1-13.1,14.4-14.5c4.2-1.1,10.3-0.5,12.5,1.4c0.9,0.8,1.5,0.8,2,0c0.4-0.6,1.7-1.4,2.9-1.7c1.9-0.6,2.3-0.2,3.3,3.6
	c3.2,12.5,2.8,12,11.3,14.1C440.8,2060.5,442.1,2061.7,440,2065L440,2065z"/>
<path d="M439,1916.8c-6.6,10.5-21.6,16.5-37.9,15.1c-7.5-0.6-7.6-0.6-6.9,1.6c0.3,1.2,0.9,3.9,1.2,5.9c0.6,3.3,0.4,3.7-2,4.1
	c-2.8,0.5-2.4,1.4-5.7-11.4c-0.9-3.5-1.4-3.8-7.5-5.8c-3.6-1.1-7.3-2-8.1-2c-1.1,0-1.3-0.7-0.8-2.8c0.8-3,0.8-3.3-0.1-11.5
	c-0.5-5-0.2-6.3,2-10.1c2.9-5,9.4-9.7,17-12.3c3.8-1.3,8.2-1.8,16.5-1.8c10.8,0,11.3-0.1,10.7-2c-0.3-1.1-0.8-3.6-1.2-5.6
	c-0.5-3.2-0.3-3.7,1.7-4.2c1.3-0.3,2.5-0.4,2.7-0.2c0.2,0.2,1.2,3.6,2.2,7.6c1,4,2.4,7.6,3.1,8c0.7,0.4,4.4,1.6,8.2,2.5
	c6.6,1.6,6.8,1.8,6.2,4.3c-0.7,2.8-0.7,2.8,0,11.6C440.8,1912.6,440.5,1914.4,439,1916.8L439,1916.8z"/>
<path d="M440,1731c-0.6,0.9-2,0.9-6.2-0.2c-3-0.8-5.5-1.3-5.6-1.2c-0.1,0.1,0.2,2.9,0.6,6.2c2.2,18.6-6.3,36.8-19,40.6
	c-3.6,1.1-4.9,1-8.8-0.4c-2.5-0.9-4.8-1.3-5.1-0.9c-0.3,0.4-1.5,1-2.8,1.4c-1.9,0.5-2.4,0-3.3-3.6c-3.2-12.4-2.8-11.9-11.3-14.1
	c-7.7-2-8.9-3.1-6.8-6.4c0.7-1.1,1.8-1.1,6.5,0.2c5.7,1.5,5.7,1.5,5-0.7c-0.4-1.2-0.7-6-0.6-10.7c0.2-23.6,14.6-39.9,29.7-33.6
	c1.9,0.8,3.5,1.1,3.7,0.6c0.2-0.4,1.3-1.1,2.5-1.5c1.9-0.6,2.3-0.2,3.3,3.6c3.2,12.5,2.8,12,11.3,14.1
	C440.8,1726.5,442.1,1727.7,440,1731L440,1731z"/>
<path d="M439.4,1581.8c-1.7,4-8.7,10.2-14.1,12.5c-7,3-15.9,4.3-24.2,3.6c-7.5-0.6-7.6-0.6-6.9,1.6c0.3,1.2,0.9,3.9,1.2,5.9
	c0.6,3.3,0.4,3.7-2,4.1c-2.8,0.5-2.4,1.3-5.7-11.3c-1-4-2.7-5-11.3-7c-5.5-1.2-5.8-1.4-5.2-3.9c0.7-2.9,0.7-3.1-0.1-11.3
	c-0.5-5-0.2-6.3,2-10.1c5.4-9.2,16.8-14.1,32.6-14.1c11.8,0,17.7,1.6,25.4,6.7C439.6,1564,443,1573.7,439.4,1581.8L439.4,1581.8z"/>
<path d="M417.2,2530.6c-0.4,0.4-1.6,0.7-2.8,0.7c-1.9,0-2.4-1-3.9-7.8c-1-4.3-1.8-8.2-1.9-8.7c-0.1-0.5,1.1-1.2,2.5-1.6
	c2.6-0.7,2.7-0.6,4.8,7.6C418.1,2530.4,418,2529.8,417.2,2530.6z"/>
<path d="M417.2,2363.6c-0.4,0.4-1.6,0.7-2.8,0.7c-1.9,0-2.4-1-3.9-7.8c-1-4.3-1.8-8.2-1.9-8.7c-0.1-0.5,1.1-1.2,2.5-1.6
	c2.6-0.7,2.7-0.6,4.8,7.6C418.1,2363.4,418,2362.8,417.2,2363.6z"/>
<path d="M417.2,2196.6c-0.4,0.4-1.6,0.7-2.8,0.7c-1.9,0-2.4-1-3.9-7.8c-1-4.3-1.8-8.2-1.9-8.7c-0.1-0.5,1.1-1.2,2.5-1.6
	c2.6-0.7,2.7-0.6,4.8,7.6C418.1,2196.4,418,2195.8,417.2,2196.6z"/>
<path d="M417.2,2029.6c-0.4,0.4-1.6,0.7-2.8,0.7c-1.8,0-2.4-1.1-4.2-8.6l-2.1-8.6l2.5-1c1.4-0.5,2.6-0.8,2.8-0.7
	c0.3,0.3,4.4,16.2,4.4,17C417.8,2028.8,417.5,2029.3,417.2,2029.6z"/>
<path d="M417.2,1862.6c-0.4,0.4-1.6,0.7-2.8,0.7c-1.8,0-2.4-1.1-4.2-8.6l-2.1-8.6l2.5-1c1.4-0.5,2.6-0.8,2.8-0.7
	c0.3,0.3,4.4,16.2,4.4,17C417.8,1861.8,417.5,1862.3,417.2,1862.6z"/>
<path d="M415.3,1695.9c-1.4,0.4-2.7,0.5-2.8,0.3c-0.4-0.5-4.5-17.3-4.3-17.5c0.1-0.1,1.4-0.4,2.8-0.8c2.6-0.6,2.7-0.4,4.8,7.8
	c1.2,4.6,2.1,8.7,2.1,9C417.8,1695,416.7,1695.6,415.3,1695.9L415.3,1695.9z"/>
<path d="M410.2,2501.6c-0.4,0.4-1.7,0.7-2.9,0.7c-1.9,0-2.5-1-4.3-8.2c-1.1-4.5-1.8-8.6-1.6-9c0.3-0.4,1.5-0.8,2.8-0.8
	c2,0,2.5,0.8,4,6.8c0.9,3.7,1.9,7.5,2.1,8.3C410.6,2500.2,410.5,2501.3,410.2,2501.6L410.2,2501.6z"/>
<path d="M410.2,2334.6c-0.4,0.4-1.7,0.7-2.9,0.7c-1.9,0-2.5-1-4.3-8.2c-1.1-4.5-1.8-8.6-1.6-9c0.3-0.4,1.5-0.8,2.8-0.8
	c2,0,2.5,0.8,4,6.8c0.9,3.7,1.9,7.5,2.1,8.3C410.6,2333.2,410.5,2334.3,410.2,2334.6L410.2,2334.6z"/>
<path d="M410.2,2167.6c-0.4,0.4-1.7,0.7-2.9,0.7c-1.9,0-2.5-1-4.3-8.2c-1.1-4.5-1.8-8.6-1.6-9c0.3-0.4,1.5-0.8,2.8-0.8
	c2,0,2.5,0.8,4,6.8c0.9,3.7,1.9,7.5,2.1,8.3C410.6,2166.2,410.5,2167.3,410.2,2167.6L410.2,2167.6z"/>
<path d="M410.2,2000.6c-0.4,0.4-1.7,0.7-2.9,0.7c-1.9,0-2.5-1-4.3-8.2c-1.1-4.5-1.8-8.6-1.6-9c0.3-0.4,1.5-0.8,2.8-0.8
	c2,0,2.5,0.8,4,6.8c0.9,3.7,1.9,7.5,2.1,8.3C410.6,1999.2,410.5,2000.3,410.2,2000.6L410.2,2000.6z"/>
<path d="M410.1,1833.7c-0.4,0.4-1.6,0.6-2.9,0.6c-1.9,0-2.5-1-4.4-8.6c-1.2-4.7-2-8.8-1.9-8.9s1.4-0.4,2.8-0.6
	c2.3-0.3,2.6,0.2,4.1,5.7C410.6,1831.8,410.8,1833,410.1,1833.7z"/>
<path d="M410.2,1666.6c-0.4,0.4-1.7,0.7-2.9,0.7c-1.9,0-2.5-1-4.4-8.6c-1.2-4.7-2-8.7-1.9-8.9c0.2-0.1,1.4-0.5,2.9-0.8
	c2.5-0.6,2.6-0.4,4.4,7.1c1,4.2,2,8.2,2.2,8.8C410.7,1665.4,410.6,1666.2,410.2,1666.6L410.2,1666.6z"/>
<path d="M401.1,2640.4c-1.4,0.5-2.6,0.8-2.8,0.7c-0.9-0.9-4.4-17-3.9-17.8c0.3-0.5,1.6-1,2.8-1c2,0,2.5,1,4.3,8.6l2.1,8.6
	L401.1,2640.4z"/>
<path d="M401.1,2473.4c-1.4,0.5-2.6,0.8-2.8,0.7c-0.9-0.9-4.4-17-3.9-17.8c0.3-0.5,1.6-1,2.8-1c2,0,2.5,1,4.3,8.6l2.1,8.6
	L401.1,2473.4z"/>
<path d="M402.2,2305.9c-0.8,0.2-2,0.6-2.8,0.9c-1,0.3-2-1.9-3.5-8.1c-1.2-4.7-1.9-8.9-1.5-9.4c0.3-0.5,1.6-0.9,2.8-0.9
	c2,0,2.5,1,4.3,8.6C403.2,2304,403.3,2305.5,402.2,2305.9L402.2,2305.9z"/>
<path d="M402.2,2138.9c-0.8,0.2-2,0.6-2.8,0.9c-1,0.3-2-1.9-3.5-8.1c-1.2-4.7-1.9-8.9-1.5-9.4c0.3-0.5,1.6-0.9,2.8-0.9
	c2,0,2.5,1,4.3,8.6C403.2,2137,403.3,2138.5,402.2,2138.9L402.2,2138.9z"/>
<path d="M402.2,1971.9c-0.8,0.2-2,0.6-2.8,0.9c-1,0.3-2-1.9-3.5-8.1c-1.2-4.7-1.9-8.9-1.5-9.4c0.3-0.5,1.6-0.9,2.8-0.9
	c2,0,2.5,1,4.3,8.6C403.2,1970,403.3,1971.5,402.2,1971.9L402.2,1971.9z"/>
<path d="M402.2,1804.9c-0.8,0.2-2,0.6-2.8,0.9c-1,0.3-2-1.9-3.5-8.1c-1.2-4.7-1.9-8.9-1.5-9.4c0.3-0.5,1.6-0.9,2.8-0.9
	c2,0,2.5,1,4.3,8.6C403.2,1803,403.3,1804.5,402.2,1804.9L402.2,1804.9z"/>
<path d="M402.2,1637.9c-0.8,0.2-2,0.6-2.8,0.9c-1,0.3-2-1.9-3.6-8.5c-1.2-4.9-2.1-9.1-1.8-9.3c0.2-0.2,1.5-0.5,2.8-0.7
	c2.3-0.3,2.6,0.2,4.7,8.5C403.2,1635.9,403.4,1637.5,402.2,1637.9L402.2,1637.9z"/>
<path d="M360.1,2587.1c-0.2,1.3-1,2.1-1.6,1.9c-0.6-0.2-4.7-1.3-8.9-2.3c-7.8-1.8-9-2.9-6.9-6.3c0.7-1,2.5-0.9,9.5,0.9
	c4.8,1.2,8.6,2.5,8.5,2.8C360.6,2584.5,360.4,2585.9,360.1,2587.1L360.1,2587.1z"/>
<path d="M360.1,2420.1c-0.2,1.3-1,2.1-1.6,1.9c-0.6-0.2-4.7-1.3-8.9-2.3c-7.8-1.8-9-2.9-6.9-6.3c0.7-1,2.5-0.9,9.5,0.9
	c4.8,1.2,8.6,2.5,8.5,2.8C360.6,2417.5,360.4,2418.9,360.1,2420.1z"/>
<path d="M360.1,2253.1c-0.2,1.3-1,2.1-1.6,1.9c-0.6-0.2-4.7-1.3-8.9-2.3c-7.8-1.8-9-2.9-6.9-6.3c0.7-1,2.5-0.9,9.5,0.9
	c4.8,1.2,8.6,2.5,8.5,2.8C360.6,2250.5,360.4,2251.9,360.1,2253.1L360.1,2253.1z"/>
<path d="M360.1,2085.9l-0.4,2.1l-8.7-2.2c-8.7-2.2-10.3-3.4-8.3-6.5c0.7-1.2,1.7-1.2,5.7-0.2c10.3,2.5,12.3,3.2,12.2,3.9
	C360.6,2083.5,360.4,2084.8,360.1,2085.9L360.1,2085.9z"/>
<path d="M360.1,1918.6c-0.6,2.2-2,2.2-10.8-0.1c-7-1.8-8.5-3.2-6.6-6.1c0.7-1.2,1.7-1.2,5.7-0.2c10.3,2.5,12.3,3.2,12.2,3.9
	C360.6,1916.5,360.4,1917.6,360.1,1918.6L360.1,1918.6z"/>
<path d="M360.1,1751.6c-0.6,2.2-2,2.2-10.8-0.1c-7-1.8-8.5-3.2-6.6-6.1c0.7-1.2,1.7-1.2,5.7-0.2c10.3,2.5,12.3,3.2,12.2,3.9
	C360.6,1749.5,360.4,1750.6,360.1,1751.6L360.1,1751.6z"/>
<path d="M360.1,1584.6c-0.6,2.2-2,2.2-10.8-0.1c-7-1.8-8.5-3.2-6.6-6.1c0.7-1.2,1.7-1.2,5.7-0.2c10.3,2.5,12.3,3.2,12.2,3.9
	C360.6,1582.5,360.4,1583.6,360.1,1584.6L360.1,1584.6z"/>
<path d="M331.1,2579.6c-0.6,2.2-2,2.2-10.8-0.1c-7-1.8-8.5-3.2-6.6-6.1c0.7-1.2,1.7-1.2,5.7-0.2c10.3,2.5,12.3,3.2,12.2,3.9
	C331.6,2577.5,331.4,2578.6,331.1,2579.6L331.1,2579.6z"/>
<path d="M331.1,2412.6c-0.6,2.2-2,2.2-10.8-0.1c-7-1.8-8.5-3.2-6.6-6.1c0.7-1.2,1.7-1.2,5.7-0.2c10.3,2.5,12.3,3.2,12.2,3.9
	C331.6,2410.5,331.4,2411.6,331.1,2412.6L331.1,2412.6z"/>
<path d="M331.1,2245.6c-0.6,2.2-2,2.2-10.8-0.1c-7-1.8-8.5-3.2-6.6-6.1c0.7-1.2,1.7-1.2,5.7-0.2c10.3,2.5,12.3,3.2,12.2,3.9
	C331.6,2243.5,331.4,2244.6,331.1,2245.6L331.1,2245.6z"/>
<path d="M331.1,2078.6c-0.2,1-1,1.7-1.6,1.7c-1.7,0-15.8-3.7-16.4-4.3c-1.1-1.1,0.9-4.7,2.5-4.6c3.2,0,15.5,3.6,15.7,4.5
	C331.5,2076.4,331.4,2077.6,331.1,2078.6L331.1,2078.6z"/>
<path d="M331.1,1911.6c-0.2,1-1,1.7-1.6,1.7c-1.7,0-15.8-3.7-16.3-4.3c-0.3-0.3-0.2-1.6,0.2-2.9l0.6-2.5l8.6,2.2
	C331.3,1907.9,331.9,1908.4,331.1,1911.6L331.1,1911.6z"/>
<path d="M331.1,1744.6c-0.2,1-1,1.7-1.6,1.7c-1.7,0-15.8-3.7-16.3-4.3c-0.3-0.3-0.2-1.6,0.2-2.9l0.6-2.5l8.6,2.2
	C331.3,1740.9,331.9,1741.4,331.1,1744.6L331.1,1744.6z"/>
<path d="M331.1,1577.6c-0.2,1-1,1.7-1.6,1.7c-1.7,0-15.8-3.7-16.3-4.3c-0.3-0.3-0.2-1.6,0.2-2.9l0.6-2.5l8.6,2.2
	C331.3,1573.9,331.9,1574.4,331.1,1577.6L331.1,1577.6z"/>
<path d="M301.9,2573.2c-0.7,1.1-2.1,1.1-8.5-0.4c-9.4-2.2-9.9-2.5-9.1-5.6l0.6-2.5l8.7,2.2C302.3,2568.9,303.9,2570.2,301.9,2573.2
	L301.9,2573.2z"/>
<path d="M301.9,2406.2c-0.7,1.1-2.1,1.1-8.5-0.4c-9.4-2.2-9.9-2.5-9.1-5.6l0.6-2.5l8.7,2.2C302.3,2401.9,303.9,2403.2,301.9,2406.2
	L301.9,2406.2z"/>
<path d="M301.9,2239.2c-0.7,1.1-2.1,1.1-8.5-0.4c-9.4-2.2-9.9-2.5-9.1-5.6l0.6-2.5l8.7,2.2C302.3,2234.9,303.9,2236.2,301.9,2239.2
	L301.9,2239.2z"/>
<path d="M302,2072.1c-0.7,1-2.5,0.9-9.6-0.9c-8.5-2.1-8.7-2.2-8.1-4.8c0.4-1.4,0.7-2.7,0.8-2.8c0.1-0.1,4.1,0.8,8.9,2
	C302.9,2067.7,304.1,2068.7,302,2072.1L302,2072.1z"/>
<path d="M302.1,1904.6c-0.6,2.1,0.3,2.2-9.9-0.4c-8.3-2.1-8.5-2.2-7.9-4.7c0.4-1.4,0.7-2.7,0.8-2.8c0.7-0.7,17.6,4.3,17.5,5.1
	C302.6,1902.3,302.4,1903.6,302.1,1904.6z"/>
<path d="M302.1,1737.6c-0.6,2.1,0.3,2.2-9.9-0.4c-8.3-2.1-8.5-2.2-7.9-4.7c0.4-1.4,0.7-2.7,0.8-2.8c0.7-0.7,17.6,4.3,17.5,5.1
	C302.6,1735.3,302.4,1736.6,302.1,1737.6z"/>
<path d="M302.1,1570.6c-0.6,2.1,0.3,2.2-9.9-0.4c-8.3-2.1-8.5-2.2-7.9-4.7c0.4-1.4,0.7-2.7,0.8-2.8c0.7-0.7,17.6,4.3,17.5,5.1
	C302.6,1568.3,302.4,1569.6,302.1,1570.6z"/>
<path d="M273,2566.1c-0.7,1.1-1.8,1.1-6.2-0.1l-5.4-1.4v12.6c0,12-0.1,12.9-3.1,19.1c-6.3,13.3-16,18.7-25.9,14.6
	c-1.9-0.8-3.5-1.1-3.7-0.6c-0.2,0.4-1.3,1.1-2.5,1.5c-1.9,0.6-2.3,0.2-3.3-3.6c-0.6-2.4-1.8-6.1-2.6-8.4c-1.4-4-1.6-4.1-9-5.8
	c-5.6-1.3-7.5-2.2-7.5-3.4c0-3.7,1.3-4.2,7-2.7c3,0.8,5.5,1.3,5.6,1.2c0.1-0.1-0.2-2.9-0.7-6.2c-2-12.4,2.8-28.2,10.7-35.5
	c5.9-5.5,11.3-7,17.3-4.8c2.5,0.9,4.8,1.3,5.1,0.9c0.3-0.4,1.5-1,2.8-1.4c1.9-0.5,2.4,0,3.3,3.6c3.2,12.4,2.8,11.9,11.3,14.1
	C273.8,2561.7,275,2562.9,273,2566.1L273,2566.1z"/>
<path d="M272,2417.9c-3,4.7-9.9,10.2-16.1,12.6c-4.6,1.8-7.6,2.2-17.4,2.3c-11.3,0-11.8,0.1-11.2,2c0.3,1.1,0.8,3.6,1.2,5.6
	c0.5,3.2,0.3,3.7-1.7,4.2c-1.3,0.3-2.5,0.4-2.7,0.2c-0.2-0.2-1.2-3.6-2.2-7.6c-1-4-2.4-7.6-3.1-8c-0.7-0.4-4.4-1.6-8.2-2.5
	c-6.6-1.6-6.8-1.8-6.2-4.3c0.7-2.8,0.7-2.8-0.1-11.6c-0.5-5.3-0.2-6.5,2.1-10.1c1.5-2.2,4.8-5.5,7.3-7.2c7.9-5.4,12.4-6.5,25.4-6.6
	c11.3-0.1,11.8-0.2,11.2-2.1c-0.3-1.1-0.8-3.6-1.2-5.6c-0.5-3.2-0.3-3.7,1.7-4.2c1.3-0.3,2.5-0.4,2.7-0.2c0.2,0.2,1.2,3.6,2.2,7.6
	c1,4,2.5,7.6,3.2,8.1c0.7,0.5,4.4,1.6,8.1,2.6c6.5,1.7,6.8,1.9,6.2,4.3c-0.7,2.9-0.7,3.6,0,11.5
	C273.8,2413.7,273.6,2415.4,272,2417.9L272,2417.9z"/>
<path d="M273,2232.1c-0.7,1.1-1.8,1.1-6.2-0.1l-5.4-1.4v12.6c0,11.7-0.2,13-2.8,18.6c-3.4,7.2-7.8,12.1-13.2,14.6
	c-4.7,2.2-7.6,2.3-12.7,0.5c-2-0.7-3.8-1-4-0.6c-0.2,0.4-1.3,1-2.5,1.4c-1.9,0.6-2.3,0.2-3.3-3.6c-0.6-2.4-1.8-6.1-2.6-8.4
	c-1.4-4-1.6-4.1-9-5.8c-5.6-1.3-7.5-2.2-7.5-3.4c0-3.7,1.3-4.2,7-2.7c3,0.8,5.5,1.3,5.6,1.2c0.1-0.1-0.2-2.7-0.7-5.7
	c-1.1-6.7-0.3-14.6,2.3-22.5c4.8-14.7,16-22.4,26.3-18.1c2.1,0.9,4.1,1.2,4.4,0.7c0.3-0.5,1.6-1.2,2.8-1.6c1.9-0.6,2.3-0.2,3.3,3.6
	c3.2,12.6,2.8,12.1,11.3,14.3C273.8,2227.7,275,2228.9,273,2232.1L273,2232.1z"/>
<path d="M272.5,2082.8c-1.8,3.9-8.9,10.3-14,12.5c-6.6,2.9-16,4.3-24.3,3.7c-7.4-0.6-7.5-0.5-6.9,1.6c0.3,1.2,0.9,3.8,1.2,5.8
	c0.6,3.3,0.4,3.7-2,4.1c-2.8,0.5-2.4,1.4-5.7-11.4c-0.9-3.5-1.4-3.8-7.5-5.8c-3.6-1.1-7.3-2-8.1-2c-1.1,0-1.3-0.7-0.8-2.8
	c0.8-3,0.8-3.3-0.1-11.5c-0.5-5-0.2-6.3,2-10.1c2.9-5,9.4-9.7,17-12.3c3.8-1.3,8.2-1.8,16.5-1.8c10.8,0,11.3-0.1,10.7-2
	c-0.3-1.1-0.8-3.6-1.2-5.6c-0.5-3.2-0.3-3.7,1.7-4.2c1.3-0.3,2.5-0.4,2.7-0.2c0.2,0.2,1.2,3.6,2.2,7.6c1,4,2.4,7.6,3.1,8
	c0.7,0.4,4.4,1.6,8.2,2.5c6.6,1.6,6.8,1.8,6.2,4.3c-0.7,2.8-0.7,3,0,11.1C273.7,2077.8,273.3,2080.9,272.5,2082.8L272.5,2082.8z"/>
<path d="M273,1898c-0.6,0.9-2,0.9-6.2-0.2c-3-0.8-5.5-1.5-5.5-1.5c0,0,0,5.7,0,12.7c0,11.9-0.2,13.1-2.9,19
	c-3.4,7.4-9.7,13.6-15.6,15.4c-3.6,1.1-4.9,1-8.8-0.4c-2.5-0.9-4.8-1.3-5.1-0.9c-0.3,0.4-1.5,1-2.8,1.4c-1.9,0.5-2.4,0-3.3-3.6
	c-3.2-12.4-2.8-11.9-11.3-14.1c-7.7-2-8.9-3.1-6.8-6.4c0.7-1.1,1.8-1.1,6.5,0.2l5.6,1.5l-0.7-2.7c-1.3-4.8-0.7-17.5,1.1-23.7
	c4.6-15.9,15.8-24.2,27.3-20.2c2.3,0.8,4.3,1.1,4.5,0.7c0.2-0.4,1.3-1,2.5-1.4c1.9-0.6,2.3-0.2,3.3,3.6c3.2,12.5,2.8,12,11.3,14.1
	C273.8,1893.5,275.1,1894.7,273,1898L273,1898z"/>
<path d="M272.5,1748.8c-1.8,4-8.8,10.2-14.2,12.5c-7,3-15.9,4.3-24.2,3.6c-7.5-0.6-7.6-0.6-6.9,1.6c0.3,1.2,0.9,3.9,1.2,5.9
	c0.6,3.3,0.4,3.7-2,4.1c-2.8,0.5-2.4,1.3-5.7-11.3c-1-4-2.7-5-11.2-7c-4.8-1.1-5.7-1.6-5.7-3.4c0-1.2,0.5-2.6,1.1-3.2
	c0.8-0.8,0.8-1.7,0-3.1c-0.6-1.1-1.1-4.2-1.1-6.8c0-9,7.2-16.9,19.4-21.1c3.8-1.3,8.2-1.8,16.5-1.8c10.8,0,11.3-0.1,10.7-2
	c-0.3-1.1-0.8-3.6-1.2-5.6c-0.5-3.2-0.3-3.7,1.7-4.2c1.3-0.3,2.5-0.4,2.7-0.2c0.2,0.2,1.2,3.6,2.2,7.6c1,4,2.4,7.6,3.1,8
	c0.7,0.4,4.4,1.6,8.2,2.5c6.6,1.6,6.8,1.8,6.2,4.3c-0.7,2.8-0.7,3,0,11.1C273.7,1743.8,273.3,1746.9,272.5,1748.8L272.5,1748.8z"/>
<path d="M273,1564c-0.6,0.9-2,0.9-6.2-0.2c-3-0.8-5.5-1.5-5.5-1.5c0,0,0,5.7,0,12.7c0,11.9-0.2,13.1-2.9,19
	c-3.4,7.4-9.7,13.6-15.6,15.4c-3.6,1.1-4.9,1-8.8-0.4c-2.5-0.9-4.8-1.3-5.1-0.9c-0.3,0.4-1.5,1-2.8,1.4c-1.9,0.5-2.4,0-3.3-3.6
	c-3.2-12.4-2.8-11.9-11.3-14.1c-7.2-1.9-7.7-2.1-7.4-4.5c0.3-2.7,1-2.9,8.4-1.5l4.1,0.7l-0.9-5.4c-1.1-6.4-0.3-14.2,2.3-22.4
	c4.6-14.8,16.4-22.6,27.3-18.1c1.9,0.8,3.5,1.1,3.7,0.6c0.2-0.4,1.3-1.1,2.5-1.5c1.9-0.6,2.3-0.2,3.3,3.6c3.2,12.5,2.8,12,11.3,14.1
	C273.8,1559.5,275.1,1560.7,273,1564L273,1564z"/>
<path d="M272.4,1414.8c-4.6,10.3-22,17.5-38.5,16.1c-7.4-0.7-7.4-0.7-6.7,1.6c0.3,1.3,0.9,3.9,1.2,5.9c0.6,3.3,0.4,3.7-2,4.1
	c-2.8,0.5-2.4,1.3-5.7-11.3c-1-4-2.7-5-11.2-7c-4.8-1.1-5.7-1.6-5.7-3.4c0-1.2,0.5-2.6,1.1-3.2c0.8-0.8,0.8-1.7,0-3.1
	c-0.6-1.1-1.1-4.3-1.1-7c0-19,33.7-30.2,56-18.7C271.8,1395,276.7,1405.1,272.4,1414.8L272.4,1414.8z"/>
<path d="M250.2,2530.6c-0.4,0.4-1.6,0.7-2.8,0.7c-1.9,0-2.4-1-3.9-7.8c-1-4.3-1.8-8.2-1.9-8.7s1.1-1.2,2.5-1.6
	c2.6-0.7,2.7-0.6,4.8,7.6C251.1,2530.4,251,2529.8,250.2,2530.6z"/>
<path d="M250.2,2363.6c-0.4,0.4-1.6,0.7-2.8,0.7c-1.9,0-2.4-1-3.9-7.8c-1-4.3-1.8-8.2-1.9-8.7s1.1-1.2,2.5-1.6
	c2.6-0.7,2.7-0.6,4.8,7.6C251.1,2363.4,251,2362.8,250.2,2363.6z"/>
<path d="M250.2,2196.6c-0.4,0.4-1.6,0.7-2.8,0.7c-1.8,0-2.4-1.1-4.2-8.6l-2.1-8.6l2.5-1c1.4-0.5,2.6-0.8,2.8-0.7
	c0.3,0.3,4.4,16.2,4.4,17C250.8,2195.8,250.5,2196.3,250.2,2196.6z"/>
<path d="M250.2,2029.6c-0.4,0.4-1.6,0.7-2.8,0.7c-1.8,0-2.4-1.1-4.2-8.6l-2.1-8.6l2.5-1c1.4-0.5,2.6-0.8,2.8-0.7
	c0.3,0.3,4.4,16.2,4.4,17C250.8,2028.8,250.5,2029.3,250.2,2029.6z"/>
<path d="M250.2,1862.6c-0.4,0.4-1.6,0.7-2.8,0.7c-1.8,0-2.4-1.2-4.3-8.7c-1.2-4.8-2.1-8.8-2-8.9c0.1-0.1,1.4-0.4,2.8-0.7
	c2.6-0.6,2.7-0.4,4.8,7.8C251.1,1862.4,251,1861.8,250.2,1862.6z"/>
<path d="M248.3,1695.9c-1.4,0.4-2.7,0.5-2.8,0.3c-0.4-0.5-4.5-17.3-4.3-17.5c0.1-0.1,1.4-0.4,2.8-0.8c2.6-0.6,2.7-0.4,4.8,7.8
	c1.2,4.6,2.1,8.7,2.1,9C250.8,1695,249.7,1695.6,248.3,1695.9L248.3,1695.9z"/>
<path d="M248.3,1528.9c-1.4,0.4-2.7,0.5-2.8,0.3c-0.4-0.5-4.5-17.3-4.3-17.5c0.1-0.1,1.4-0.4,2.8-0.8c2.6-0.6,2.7-0.4,4.8,7.8
	c1.2,4.6,2.1,8.7,2.1,9C250.8,1528,249.7,1528.6,248.3,1528.9L248.3,1528.9z"/>
<path d="M242.6,2501.7c-0.7,0.2-2,0.6-2.8,0.8c-1.1,0.3-2-1.6-3.7-8.1c-1.2-4.7-2-8.9-1.7-9.3c0.3-0.4,1.5-0.8,2.8-0.8
	c2,0,2.5,0.8,4,6.8c0.9,3.7,1.9,7.5,2.2,8.5C243.7,2500.5,243.4,2501.5,242.6,2501.7L242.6,2501.7z"/>
<path d="M243.2,2334.6c-0.4,0.4-1.7,0.7-2.9,0.7c-1.9,0-2.5-1-4.3-8.2c-1.1-4.5-1.8-8.6-1.6-9c0.3-0.4,1.5-0.8,2.8-0.8
	c2,0,2.5,0.8,4,6.8c0.9,3.7,1.9,7.5,2.1,8.3C243.6,2333.2,243.5,2334.3,243.2,2334.6L243.2,2334.6z"/>
<path d="M243.2,2167.6c-0.4,0.4-1.7,0.7-2.9,0.7c-1.9,0-2.5-1-4.3-8.2c-1.1-4.5-1.8-8.6-1.6-9c0.3-0.4,1.5-0.8,2.8-0.8
	c2,0,2.5,0.8,4,6.8c0.9,3.7,1.9,7.5,2.1,8.3C243.6,2166.2,243.5,2167.3,243.2,2167.6L243.2,2167.6z"/>
<path d="M243.2,2000.6c-0.4,0.4-1.7,0.7-2.9,0.7c-1.9,0-2.5-1-4.3-8.2c-1.1-4.5-1.8-8.6-1.6-9c0.3-0.4,1.5-0.8,2.8-0.8
	c2,0,2.5,0.8,4,6.8c0.9,3.7,1.9,7.5,2.1,8.3C243.6,1999.2,243.5,2000.3,243.2,2000.6L243.2,2000.6z"/>
<path d="M243.1,1833.7c-0.4,0.4-1.6,0.6-2.9,0.6c-1.9,0-2.5-1-4.4-8.6c-1.2-4.7-2-8.8-1.9-8.9c0.2-0.2,1.4-0.4,2.8-0.6
	c2.3-0.3,2.6,0.2,4.1,5.7C243.6,1831.8,243.8,1833,243.1,1833.7z"/>
<path d="M243.1,1666.7c-0.4,0.4-1.6,0.6-2.9,0.6c-1.9,0-2.5-1-4.4-8.6c-1.2-4.7-2-8.8-1.9-8.9c0.2-0.2,1.4-0.4,2.8-0.6
	c2.3-0.3,2.6,0.2,4.1,5.7C243.6,1664.8,243.8,1666,243.1,1666.7z"/>
<path d="M242.3,1499.7c-3.6,1.4-4.3,0.5-6.4-8c-1.2-4.7-2-8.7-1.9-8.9c0.2-0.1,1.4-0.5,2.9-0.8c2.5-0.6,2.6-0.4,4.4,7.1
	c1,4.2,2,8.2,2.2,8.8C243.7,1498.5,243.2,1499.3,242.3,1499.7L242.3,1499.7z"/>
<path d="M234.1,2640.4c-1.4,0.5-2.6,0.8-2.8,0.7c-0.9-0.9-4.4-17-3.9-17.8c0.3-0.5,1.6-1,2.8-1c2,0,2.5,1,4.3,8.6l2.1,8.6
	L234.1,2640.4z"/>
<path d="M234.1,2473.4c-1.4,0.5-2.6,0.8-2.8,0.7c-0.9-0.9-4.4-17-3.9-17.8c0.3-0.5,1.6-1,2.8-1c2,0,2.5,1,4.3,8.6l2.1,8.6
	L234.1,2473.4z"/>
<path d="M235.2,2305.9c-0.8,0.2-2,0.6-2.8,0.9c-1,0.3-2-1.9-3.5-8.1c-1.2-4.7-1.9-8.9-1.5-9.4s1.6-0.9,2.8-0.9c2,0,2.5,1,4.3,8.6
	C236.2,2304,236.3,2305.5,235.2,2305.9L235.2,2305.9z"/>
<path d="M235.2,2138.9c-0.8,0.2-2,0.6-2.8,0.9c-1,0.3-2-1.9-3.5-8.1c-1.2-4.7-1.9-8.9-1.5-9.4c0.3-0.5,1.6-0.9,2.8-0.9
	c2,0,2.5,1,4.3,8.6C236.2,2137,236.3,2138.5,235.2,2138.9L235.2,2138.9z"/>
<path d="M235.2,1971.9c-0.8,0.2-2,0.6-2.8,0.9c-1,0.3-2-1.9-3.5-8.1c-1.2-4.7-1.9-8.9-1.5-9.4c0.3-0.5,1.6-0.9,2.8-0.9
	c2,0,2.5,1,4.3,8.6C236.2,1970,236.3,1971.5,235.2,1971.9L235.2,1971.9z"/>
<path d="M235.2,1804.9c-0.8,0.2-2,0.6-2.8,0.9c-1,0.3-2-1.9-3.5-8.1c-1.2-4.7-1.9-8.9-1.5-9.4c0.3-0.5,1.6-0.9,2.8-0.9
	c2,0,2.5,1,4.3,8.6C236.2,1803,236.3,1804.5,235.2,1804.9L235.2,1804.9z"/>
<path d="M235.2,1637.9c-0.8,0.2-2,0.6-2.8,0.9c-1,0.3-2-1.9-3.6-8.5c-1.2-4.9-2.1-9.1-1.8-9.3c0.2-0.2,1.5-0.5,2.8-0.7
	c2.3-0.3,2.6,0.2,4.7,8.5C236.3,1635.9,236.4,1637.5,235.2,1637.9z"/>
<path d="M235.2,1470.9c-0.8,0.2-2,0.6-2.8,0.9c-1,0.3-2-1.9-3.6-8.5c-1.2-4.9-2.1-9.1-1.8-9.3c0.2-0.2,1.5-0.5,2.8-0.7
	c2.3-0.3,2.6,0.2,4.7,8.5C236.3,1468.9,236.4,1470.5,235.2,1470.9z"/>
<path d="M193.1,2587.1c-0.2,1.3-1,2.1-1.6,1.9s-4.7-1.3-8.9-2.3c-7.8-1.8-9-2.9-6.9-6.3c0.7-1,2.5-0.9,9.5,0.9
	c4.8,1.2,8.6,2.5,8.5,2.8C193.6,2584.5,193.4,2585.9,193.1,2587.1L193.1,2587.1z"/>
<path d="M193.1,2420.1c-0.2,1.3-1,2.1-1.6,1.9c-0.6-0.2-4.7-1.3-8.9-2.3c-7.8-1.8-9-2.9-6.9-6.3c0.7-1,2.5-0.9,9.5,0.9
	c4.8,1.2,8.6,2.5,8.5,2.8C193.6,2417.5,193.4,2418.9,193.1,2420.1L193.1,2420.1z"/>
<path d="M193.1,2253.1c-0.2,1.3-1,2.1-1.6,1.9c-0.6-0.2-4.7-1.3-8.9-2.3c-7.8-1.8-9-2.9-6.9-6.3c0.7-1,2.5-0.9,9.5,0.9
	c4.8,1.2,8.6,2.5,8.5,2.8C193.6,2250.5,193.4,2251.9,193.1,2253.1L193.1,2253.1z"/>
<path d="M193.1,2085.6c-0.6,2.2-2,2.2-10.8-0.1c-7-1.8-8.5-3.2-6.6-6.1c0.7-1.2,1.7-1.2,5.7-0.2c10.3,2.5,12.3,3.2,12.2,3.9
	C193.6,2083.5,193.4,2084.6,193.1,2085.6L193.1,2085.6z"/>
<path d="M193.1,1918.6c-0.6,2.2-2,2.2-10.8-0.1c-7-1.8-8.5-3.2-6.6-6.1c0.7-1.2,1.7-1.2,5.7-0.2c10.3,2.5,12.3,3.2,12.2,3.9
	C193.6,1916.5,193.4,1917.6,193.1,1918.6L193.1,1918.6z"/>
<path d="M193.1,1751.6c-0.6,2.2-2,2.2-10.8-0.1c-7-1.8-8.5-3.2-6.6-6.1c0.7-1.2,1.7-1.2,5.7-0.2c10.3,2.5,12.3,3.2,12.2,3.9
	C193.6,1749.5,193.4,1750.6,193.1,1751.6L193.1,1751.6z"/>
<path d="M193.1,1584.6c-0.6,2.2-2,2.2-10.8-0.1c-7-1.8-8.5-3.2-6.6-6.1c0.7-1.2,1.7-1.2,5.7-0.2c10.3,2.5,12.3,3.2,12.2,3.9
	C193.6,1582.5,193.4,1583.6,193.1,1584.6L193.1,1584.6z"/>
<path d="M193.1,1417.6c-0.6,2.2-2,2.2-10.8-0.1c-7-1.8-8.5-3.2-6.6-6.1c0.7-1.2,1.7-1.2,5.7-0.2c10.3,2.5,12.3,3.2,12.2,3.9
	C193.6,1415.5,193.4,1416.6,193.1,1417.6L193.1,1417.6z"/>
<path d="M164.1,2579.6c-0.6,2.2-2,2.2-10.8-0.1c-7-1.8-8.5-3.2-6.6-6.1c0.7-1.2,1.7-1.2,5.7-0.2c10.3,2.5,12.3,3.2,12.2,3.9
	C164.6,2577.5,164.4,2578.6,164.1,2579.6L164.1,2579.6z"/>
<path d="M164.1,2412.6c-0.6,2.2-2,2.2-10.8-0.1c-7-1.8-8.5-3.2-6.6-6.1c0.7-1.2,1.7-1.2,5.7-0.2c10.3,2.5,12.3,3.2,12.2,3.9
	C164.6,2410.5,164.4,2411.6,164.1,2412.6L164.1,2412.6z"/>
<path d="M164.1,2245.6c-0.6,2.2-2,2.2-10.8-0.1c-7-1.8-8.5-3.2-6.6-6.1c0.7-1.2,1.7-1.2,5.7-0.2c10.3,2.5,12.3,3.2,12.2,3.9
	C164.6,2243.5,164.4,2244.6,164.1,2245.6L164.1,2245.6z"/>
<path d="M164.1,2078.6c-0.2,1-1,1.7-1.6,1.7c-1.7,0-15.8-3.7-16.4-4.3c-1.1-1.1,0.9-4.7,2.5-4.6c3.2,0,15.5,3.6,15.7,4.5
	C164.5,2076.4,164.4,2077.6,164.1,2078.6L164.1,2078.6z"/>
<path d="M164.1,1911.6c-0.2,1-1,1.7-1.6,1.7c-1.7,0-15.8-3.7-16.3-4.3c-0.3-0.3-0.2-1.6,0.2-2.9l0.6-2.5l8.6,2.2
	C164.3,1907.9,164.9,1908.4,164.1,1911.6L164.1,1911.6z"/>
<path d="M164.1,1744.6c-0.2,1-1,1.7-1.6,1.7c-1.7,0-15.8-3.7-16.3-4.3c-0.3-0.3-0.2-1.6,0.2-2.9l0.6-2.5l8.6,2.2
	C164.3,1740.9,164.9,1741.4,164.1,1744.6L164.1,1744.6z"/>
<path d="M164.1,1577.6c-0.2,1-1,1.7-1.6,1.7c-1.7,0-15.8-3.7-16.3-4.3c-0.3-0.3-0.2-1.6,0.2-2.9l0.6-2.5l8.6,2.2
	C164.3,1573.9,164.9,1574.4,164.1,1577.6L164.1,1577.6z"/>
<path d="M164.1,1410.6c-0.2,1-1,1.7-1.6,1.7c-1.7,0-15.8-3.7-16.3-4.3c-0.3-0.3-0.2-1.6,0.2-2.9l0.6-2.5l8.6,2.2
	C164.3,1406.9,164.9,1407.4,164.1,1410.6L164.1,1410.6z"/>
<path d="M135.1,2572.6c-0.2,1-1,1.7-1.6,1.7c-1.7,0-15.8-3.7-16.3-4.3c-0.3-0.3-0.2-1.6,0.2-2.9l0.6-2.5l8.6,2.2
	C135.3,2568.9,135.9,2569.4,135.1,2572.6L135.1,2572.6z"/>
<path d="M135.1,2405.6c-0.2,1-1,1.7-1.6,1.7c-1.7,0-15.8-3.7-16.3-4.3c-0.3-0.3-0.2-1.6,0.2-2.9l0.6-2.5l8.6,2.2
	C135.3,2401.9,135.9,2402.4,135.1,2405.6L135.1,2405.6z"/>
<path d="M135.1,2238.6c-0.2,1-1,1.7-1.6,1.7c-1.7,0-15.8-3.7-16.3-4.3c-0.3-0.3-0.2-1.6,0.2-2.9l0.6-2.5l8.6,2.2
	C135.3,2234.9,135.9,2235.4,135.1,2238.6L135.1,2238.6z"/>
<path d="M135.1,2071.6c-0.6,2.1,0.3,2.2-9.9-0.4c-8.3-2.1-8.5-2.2-7.9-4.7c0.4-1.4,0.7-2.7,0.8-2.8c0.7-0.7,17.6,4.3,17.5,5.1
	C135.6,2069.3,135.4,2070.6,135.1,2071.6z"/>
<path d="M135.1,1904.6c-0.6,2.1,0.3,2.2-9.9-0.4c-8.3-2.1-8.5-2.2-7.9-4.7c0.4-1.4,0.7-2.7,0.8-2.8c0.7-0.7,17.6,4.3,17.5,5.1
	C135.6,1902.3,135.4,1903.6,135.1,1904.6z"/>
<path d="M135.1,1737.6c-0.6,2.1,0.3,2.2-9.9-0.4c-8.3-2.1-8.5-2.2-7.9-4.7c0.4-1.4,0.7-2.7,0.8-2.8c0.7-0.7,17.6,4.3,17.5,5.1
	C135.6,1735.3,135.4,1736.6,135.1,1737.6z"/>
<path d="M135.1,1570.6c-0.6,2.1,0.3,2.2-9.9-0.4c-8.3-2.1-8.5-2.2-7.9-4.7c0.4-1.4,0.7-2.7,0.8-2.8c0.7-0.7,17.6,4.3,17.5,5.1
	C135.6,1568.3,135.4,1569.6,135.1,1570.6z"/>
<path d="M135.1,1403.6c-0.6,2.1,0.3,2.2-9.9-0.4c-8.3-2.1-8.5-2.2-7.9-4.7c0.4-1.4,0.7-2.7,0.8-2.8c0.7-0.7,17.6,4.3,17.5,5.1
	C135.6,1401.3,135.4,1402.6,135.1,1403.6z"/>
<path d="M105,2584.8c-3.2,5-9.6,10.1-15.8,12.6c-4.9,2-7.8,2.3-17.7,2.4c-11.3,0-11.8,0.1-11.2,2c0.3,1.1,0.8,3.6,1.2,5.6
	c0.5,3.2,0.3,3.7-1.7,4.2c-1.3,0.3-2.5,0.4-2.7,0.2c-0.2-0.2-1.2-3.6-2.2-7.6c-1-4-2.4-7.6-3.1-8c-0.7-0.4-4.3-1.5-8.1-2.5
	c-5.8-1.4-6.8-2-6.8-3.9c0-1.2,0.5-2.7,1.1-3.3c0.8-0.8,0.8-1.7,0-3.1c-0.6-1.1-1.1-4.2-1.1-6.9c0-13.9,18.3-24.5,39.3-22.9
	c7.9,0.6,7.9,0.6,7.3-1.6c-0.3-1.2-0.9-3.9-1.2-5.8c-0.6-3.3-0.4-3.7,2-4.1c2.8-0.5,2.4-1.3,5.7,11.3c1,4,2.7,5,11.3,7
	c5.5,1.2,5.8,1.4,5.2,3.9c-0.8,3-0.8,3.6,0,11.6C106.8,2580.7,106.6,2582.4,105,2584.8L105,2584.8z"/>
<path d="M106,2399.1c-0.7,1.1-1.8,1.1-6.2-0.1l-5.4-1.4v12.6c0,11.8-0.2,13-2.9,18.9c-5.7,12.4-16.3,18.6-25.6,14.9
	c-2.1-0.8-4-1.2-4.2-0.8c-0.2,0.4-1.3,1.1-2.5,1.5c-1.9,0.6-2.3,0.2-3.3-3.6c-0.6-2.4-1.8-6.1-2.6-8.4c-1.4-4-1.6-4.1-9-5.8
	c-5.6-1.3-7.5-2.2-7.5-3.4c0-3.7,1.3-4.2,7-2.6c3,0.8,5.5,1.5,5.6,1.5c0.1,0-0.3-2.4-0.8-5.2c-2.7-16,4.5-34.7,15.5-40.2
	c5.9-2.9,8.4-3.1,13.4-1c2,0.8,3.9,1.1,4.2,0.6c0.3-0.5,1.6-1.2,2.8-1.6c1.9-0.6,2.3-0.2,3.3,3.6c3.2,12.6,2.8,12.1,11.3,14.3
	C106.8,2394.7,108,2395.9,106,2399.1L106,2399.1z"/>
<path d="M105.5,2249.9c-2,4.5-10,11.1-16.5,13.6c-4.7,1.9-7.6,2.2-17.4,2.3c-11.3,0-11.8,0.1-11.2,2c0.3,1.1,0.8,3.6,1.2,5.6
	c0.5,3.2,0.3,3.7-1.7,4.2c-1.3,0.3-2.5,0.4-2.7,0.2c-0.2-0.2-1.2-3.6-2.2-7.6c-1-4-2.4-7.6-3.1-8c-0.7-0.4-4.3-1.5-8.1-2.5
	c-5.8-1.4-6.8-2-6.8-3.9c0-1.2,0.5-2.7,1.1-3.3c0.8-0.8,0.8-1.7,0-3.1c-0.6-1.1-1.1-4.2-1.1-6.8c0-9,7.2-16.9,19.4-21.1
	c3.8-1.3,8.2-1.8,16.5-1.8c10.8,0,11.3-0.1,10.7-2c-0.3-1.1-0.8-3.6-1.2-5.6c-0.5-3.2-0.3-3.7,1.7-4.2c1.3-0.3,2.5-0.4,2.7-0.2
	c0.2,0.2,1.2,3.6,2.2,7.6c1,4,2.5,7.6,3.2,8.1c0.7,0.5,4.4,1.6,8.1,2.6c6.5,1.7,6.8,1.9,6.2,4.3c-0.7,3-0.7,3.8,0,11
	C106.7,2244.9,106.4,2247.8,105.5,2249.9L105.5,2249.9z"/>
<path d="M106,2065c-0.6,0.9-2,0.9-6.2-0.2c-3-0.8-5.5-1.5-5.5-1.5c0,0,0,5.7,0,12.7c0,11.9-0.2,13.2-2.8,18.7
	c-3.4,7.2-7.8,12.1-13.2,14.6c-4.7,2.2-7.6,2.3-12.7,0.5c-2.1-0.7-3.7-1-3.7-0.6s-1.1,1-2.5,1.2c-2.2,0.4-2.6,0-3.5-3.6
	c-0.6-2.3-1.7-6-2.6-8.3c-1.5-4.1-1.6-4.2-9-5.9c-6.5-1.5-7.4-2-7.4-4c0-3.3,1.3-3.6,7.5-2l5.5,1.4l-0.7-2.7
	c-0.4-1.5-0.7-6.3-0.7-10.7c0.1-14.5,6.7-28,15.7-32.4c5.2-2.5,8.5-2.7,13.5-0.6c2,0.8,3.9,1.1,4.2,0.6c0.3-0.5,1.6-1.2,2.8-1.6
	c1.9-0.6,2.3-0.2,3.3,3.6c3.2,12.5,2.8,12,11.3,14.1C106.8,2060.5,108.1,2061.7,106,2065L106,2065z"/>
<path d="M105.5,1915.8c-1.8,4-8.8,10.2-14.2,12.5c-7,3-15.9,4.3-24.2,3.6c-7.5-0.6-7.6-0.6-6.9,1.6c0.3,1.2,0.9,3.9,1.2,5.9
	c0.6,3.3,0.4,3.7-2,4.1c-2.8,0.5-2.4,1.4-5.7-11.4c-0.9-3.5-1.4-3.8-7.5-5.8c-3.6-1.1-7.2-2-8-2c-1.7,0-1.9-4.1-0.3-5.7
	c0.8-0.8,0.8-1.7,0-3.1c-0.6-1.1-1.1-4.2-1.1-6.8c0-9,7.2-16.9,19.4-21.1c3.8-1.3,8.2-1.8,16.5-1.8c10.8,0,11.3-0.1,10.7-2
	c-0.3-1.1-0.8-3.6-1.2-5.6c-0.5-3.2-0.3-3.7,1.7-4.2c1.3-0.3,2.5-0.4,2.7-0.2c0.2,0.2,1.2,3.6,2.2,7.6c1,4,2.4,7.6,3.1,8
	c0.7,0.4,4.4,1.6,8.2,2.5c6.6,1.6,6.8,1.8,6.2,4.3c-0.8,3.1-0.8,3.9,0,11.1C106.7,1910.9,106.4,1913.8,105.5,1915.8L105.5,1915.8z"
	/>
<path d="M106,1731c-0.6,0.9-2,0.9-6.2-0.2c-3-0.8-5.5-1.5-5.5-1.5c0,0,0,5.7,0,12.7c0,11.9-0.2,13.2-2.9,19
	c-3.4,7.4-9.7,13.6-15.6,15.4c-3.6,1.1-4.9,1-8.8-0.4c-2.5-0.9-4.8-1.3-5.1-0.9c-0.3,0.4-1.5,1-2.8,1.4c-1.9,0.5-2.4,0-3.3-3.6
	c-0.6-2.3-1.7-6-2.6-8.3c-1.5-4.1-1.6-4.2-9-5.9c-6.5-1.5-7.4-2-7.4-4c0-3.3,1.3-3.6,7.5-2l5.5,1.4l-0.7-2.7
	c-0.4-1.5-0.7-6.3-0.7-10.7c0.2-22.9,15-39.3,29.9-33.1c1.9,0.8,3.5,1.1,3.7,0.6c0.2-0.4,1.3-1.1,2.5-1.5c1.9-0.6,2.3-0.2,3.3,3.6
	c3.2,12.5,2.8,12,11.3,14.1C106.8,1726.5,108.1,1727.7,106,1731L106,1731z"/>
<path d="M105.4,1581.8c-4.7,10.3-21.1,17.3-37.5,16.2c-8.3-0.6-8.3-0.6-7.7,1.6c0.3,1.2,0.9,3.8,1.2,5.8c0.6,3.3,0.4,3.7-2,4.1
	c-2.8,0.5-2.4,1.3-5.7-11.3c-1-4-2.7-5-11.2-7c-4.8-1.1-5.7-1.6-5.7-3.4c0-1.2,0.5-2.6,1.1-3.2c0.8-0.8,0.8-1.7,0-3.1
	c-0.6-1.1-1.1-4.3-1.1-7c0-14,17.2-24.3,38.6-22.9c8.4,0.5,8.6,0.5,8-1.6c-0.3-1.2-0.9-3.8-1.2-5.8c-0.5-3.2-0.3-3.7,1.7-4.2
	c1.3-0.3,2.5-0.4,2.7-0.2c0.2,0.2,1.2,3.6,2.2,7.6c1,4,2.4,7.6,3.1,8c0.7,0.4,4.4,1.5,8.1,2.5c6.7,1.6,6.8,1.8,6.1,4.3
	c-0.4,1.4-0.6,3.3-0.6,4.1C106.7,1575.3,106.7,1579.1,105.4,1581.8L105.4,1581.8z"/>
<path d="M106.1,1396.6c-0.3,1-0.5,1.7-0.6,1.7c-0.2,0-11.2-2.9-11.2-3c0,0,0.2,4.1,0.4,9.2c0.6,15.1-3,26.1-11,33.3
	c-5.3,4.8-11.1,6.2-16.8,4.2c-2.5-0.9-4.7-1.2-5-0.8c-0.3,0.4-1.5,1-2.8,1.4c-1.9,0.5-2.4,0-3.3-3.6c-3.2-12.4-2.8-11.9-11.3-14.1
	c-7.2-1.9-7.7-2.1-7.4-4.5c0.3-2.7,1-2.9,8.4-1.5l4.1,0.7l-1-4.9c-1.2-6.2-0.3-15.1,2.3-23c4.8-14.8,16.5-22.4,27.5-17.9
	c1.9,0.8,3.3,1.1,3,0.6c-0.5-0.7,4.5-2.3,5.2-1.7c0.1,0.1,1.3,3.8,2.5,8.1l2.3,7.9l7.8,1.9c4.3,1,7.7,2.4,7.6,3
	C106.6,1394.3,106.4,1395.6,106.1,1396.6L106.1,1396.6z"/>
<path d="M105.3,1247.8c-5.6,10.8-21.6,17.5-38.3,16.1c-7.4-0.7-7.4-0.7-6.7,1.6c0.3,1.3,0.9,3.9,1.2,5.9c0.6,3.3,0.4,3.7-2,4.1
	c-2.8,0.5-2.4,1.3-5.7-11.3c-1-4-2.7-5-11.2-7c-4.8-1.1-5.7-1.6-5.7-3.4c0-1.2,0.5-2.6,1.1-3.2c0.8-0.8,0.8-1.7,0-3.1
	c-1.7-3.3-1.3-10.9,0.9-15.2c4.2-8.3,15.8-14.1,29.5-14.8c12.9-0.7,22.1,1.8,30.8,8.2C105.9,1230.7,108.8,1241,105.3,1247.8
	L105.3,1247.8z"/>
<path d="M83.2,2530.6c-0.4,0.4-1.6,0.7-2.8,0.7c-1.9,0-2.4-1-3.9-7.8c-1-4.3-1.8-8.2-1.9-8.7c-0.1-0.5,1.1-1.2,2.5-1.6
	c2.6-0.7,2.7-0.6,4.8,7.6C84.1,2530.4,84,2529.8,83.2,2530.6z"/>
<path d="M83.2,2363.6c-0.4,0.4-1.6,0.7-2.8,0.7c-1.9,0-2.4-1-3.9-7.8c-1-4.3-1.8-8.2-1.9-8.7s1.1-1.2,2.5-1.6
	c2.6-0.7,2.7-0.6,4.8,7.6C84.1,2363.4,84,2362.8,83.2,2363.6z"/>
<path d="M83.2,2196.6c-0.4,0.4-1.6,0.7-2.8,0.7c-1.8,0-2.4-1.1-4.2-8.6l-2.1-8.6l2.5-1c1.4-0.5,2.6-0.8,2.8-0.7
	c0.3,0.3,4.4,16.2,4.4,17C83.8,2195.8,83.5,2196.3,83.2,2196.6z"/>
<path d="M83.2,2029.6c-0.4,0.4-1.6,0.7-2.8,0.7c-1.8,0-2.4-1.2-4.3-8.7c-1.2-4.8-2.1-8.8-2-8.9c0.1-0.1,1.4-0.4,2.8-0.7
	c2.6-0.6,2.7-0.4,4.8,7.8C84.1,2029.4,84,2028.8,83.2,2029.6z"/>
<path d="M83.2,1862.6c-0.4,0.4-1.6,0.7-2.8,0.7c-1.8,0-2.4-1.2-4.3-8.7c-1.2-4.8-2.1-8.8-2-8.9c0.1-0.1,1.4-0.4,2.8-0.7
	c2.6-0.6,2.7-0.4,4.8,7.8C84.1,1862.4,84,1861.8,83.2,1862.6z"/>
<path d="M81.3,1695.9c-1.4,0.4-2.7,0.5-2.8,0.3c-0.4-0.5-4.5-17.3-4.3-17.5c0.1-0.1,1.4-0.4,2.8-0.8c2.6-0.6,2.7-0.4,4.8,7.8
	c1.2,4.6,2.1,8.7,2.1,9S82.7,1695.6,81.3,1695.9L81.3,1695.9z"/>
<path d="M81.3,1528.9c-1.4,0.4-2.7,0.5-2.8,0.3c-0.4-0.5-4.5-17.3-4.3-17.5c0.1-0.1,1.4-0.4,2.8-0.8c2.6-0.6,2.7-0.4,4.8,7.8
	c1.2,4.6,2.1,8.7,2.1,9C83.8,1528,82.7,1528.6,81.3,1528.9L81.3,1528.9z"/>
<path d="M81.3,1361.9c-1.4,0.4-2.7,0.5-2.8,0.3c-0.4-0.5-4.5-17.3-4.3-17.5c0.1-0.1,1.4-0.4,2.8-0.8c2.6-0.6,2.7-0.4,4.8,7.8
	c1.2,4.6,2.1,8.7,2.1,9C83.8,1361,82.7,1361.6,81.3,1361.9L81.3,1361.9z"/>
<path d="M75.6,2501.7c-0.7,0.2-2,0.6-2.8,0.8c-1.1,0.3-2-1.6-3.7-8.1c-1.2-4.7-2-8.9-1.7-9.3c0.3-0.4,1.5-0.8,2.8-0.8
	c2,0,2.5,0.8,4,6.8c0.9,3.7,1.9,7.5,2.2,8.5C76.7,2500.5,76.4,2501.5,75.6,2501.7L75.6,2501.7z"/>
<path d="M75.6,2334.7c-0.7,0.2-2,0.6-2.8,0.8c-1.1,0.3-2-1.6-3.7-8.1c-1.2-4.7-2-8.9-1.7-9.3c0.3-0.4,1.5-0.8,2.8-0.8
	c2,0,2.5,0.8,4,6.8c0.9,3.7,1.9,7.5,2.2,8.5C76.7,2333.5,76.4,2334.5,75.6,2334.7L75.6,2334.7z"/>
<path d="M76.2,2167.6c-0.4,0.4-1.7,0.7-2.9,0.7c-1.9,0-2.5-1-4.3-8.2c-1.1-4.5-1.8-8.6-1.6-9c0.3-0.4,1.5-0.8,2.8-0.8
	c2,0,2.5,0.8,4,6.8c0.9,3.7,1.9,7.5,2.1,8.3C76.6,2166.2,76.5,2167.3,76.2,2167.6L76.2,2167.6z"/>
<path d="M76.2,2000.6c-0.4,0.4-1.7,0.7-2.9,0.7c-1.9,0-2.5-1-4.3-8.2c-1.1-4.5-1.8-8.6-1.6-9c0.3-0.4,1.5-0.8,2.8-0.8
	c2,0,2.5,0.8,4,6.8c0.9,3.7,1.9,7.5,2.1,8.3C76.6,1999.2,76.5,2000.3,76.2,2000.6L76.2,2000.6z"/>
<path d="M76.1,1833.7c-0.4,0.4-1.6,0.6-2.9,0.6c-1.9,0-2.5-1-4.4-8.6c-1.2-4.7-2-8.8-1.9-8.9c0.2-0.2,1.4-0.4,2.8-0.6
	c2.3-0.3,2.6,0.2,4.1,5.7C76.6,1831.8,76.8,1833,76.1,1833.7z"/>
<path d="M76.1,1666.7c-0.4,0.4-1.6,0.6-2.9,0.6c-1.9,0-2.5-1-4.4-8.6c-1.2-4.7-2-8.8-1.9-8.9c0.2-0.2,1.4-0.4,2.8-0.6
	c2.3-0.3,2.6,0.2,4.1,5.7C76.6,1664.8,76.8,1666,76.1,1666.7z"/>
<path d="M75.2,1499.7c-3.5,1.3-4.2,0.5-6.3-8c-1.2-4.7-2-8.8-1.9-8.9c0.2-0.2,1.4-0.4,2.8-0.6c2.3-0.3,2.6,0.2,4.1,5.7
	C76.9,1499,76.9,1499.1,75.2,1499.7L75.2,1499.7z"/>
<path d="M75.3,1332.7c-3.6,1.4-4.3,0.5-6.4-8c-1.2-4.7-2-8.7-1.9-8.9c0.2-0.1,1.4-0.5,2.9-0.8c2.5-0.6,2.6-0.4,4.4,7.1
	c1,4.2,2,8.2,2.2,8.8C76.7,1331.5,76.2,1332.3,75.3,1332.7L75.3,1332.7z"/>
<path d="M67.1,2473.4c-1.4,0.5-2.6,0.8-2.8,0.7c-0.9-0.9-4.4-17-3.9-17.8c0.3-0.5,1.6-1,2.8-1c2,0,2.5,1,4.3,8.6l2.1,8.6
	L67.1,2473.4z"/>
<path d="M68.2,2305.9c-0.8,0.2-2,0.6-2.8,0.9c-1,0.3-2-1.9-3.5-8.1c-1.2-4.7-1.9-8.9-1.5-9.4c0.3-0.5,1.6-0.9,2.8-0.9
	c2,0,2.5,1,4.3,8.6C69.2,2304,69.3,2305.5,68.2,2305.9L68.2,2305.9z"/>
<path d="M68.2,2138.9c-0.8,0.2-2,0.6-2.8,0.9c-1,0.3-2-1.9-3.5-8.1c-1.2-4.7-1.9-8.9-1.5-9.4c0.3-0.5,1.6-0.9,2.8-0.9
	c2,0,2.5,1,4.3,8.6C69.2,2137,69.3,2138.5,68.2,2138.9L68.2,2138.9z"/>
<path d="M68.2,1971.9c-0.8,0.2-2,0.6-2.8,0.9c-1,0.3-2-1.9-3.5-8.1c-1.2-4.7-1.9-8.9-1.5-9.4c0.3-0.5,1.6-0.9,2.8-0.9
	c2,0,2.5,1,4.3,8.6C69.2,1970,69.3,1971.5,68.2,1971.9L68.2,1971.9z"/>
<path d="M68.2,1804.9c-0.8,0.2-2,0.6-2.8,0.9c-1,0.3-2-1.9-3.5-8.1c-1.2-4.7-1.9-8.9-1.5-9.4c0.3-0.5,1.6-0.9,2.8-0.9
	c2,0,2.5,1,4.3,8.6C69.2,1803,69.3,1804.5,68.2,1804.9L68.2,1804.9z"/>
<path d="M68.2,1637.9c-0.8,0.2-2,0.6-2.8,0.9c-1,0.3-2-1.9-3.6-8.5c-1.2-4.9-2.1-9.1-1.8-9.3c0.2-0.2,1.5-0.5,2.8-0.7
	c2.3-0.3,2.6,0.2,4.7,8.5C69.2,1635.9,69.4,1637.5,68.2,1637.9L68.2,1637.9z"/>
<path d="M68.2,1470.9c-0.8,0.2-2,0.6-2.8,0.9c-1,0.3-2-1.9-3.6-8.5c-1.2-4.9-2.1-9.1-1.8-9.3c0.2-0.2,1.5-0.5,2.8-0.7
	c2.3-0.3,2.6,0.2,4.7,8.5C69.2,1468.9,69.4,1470.5,68.2,1470.9L68.2,1470.9z"/>
<path d="M69,1303.8c-0.3,0.3-1.6,0.5-2.8,0.5c-2.4,0-2.4-0.1-5.4-12.3c-1.3-5.4-1.3-5.4,2-5.9c2.3-0.3,2.6,0.2,4.6,8.4
	C68.6,1299.3,69.3,1303.5,69,1303.8z"/>
<path d="M67.9,2640.3c-0.5,0-1.6,0.2-2.4,0.6c-1.1,0.4-2-1.5-3.6-8.2c-2.2-8.9-2-10.9,1.5-10.2C66.2,2623,70.6,2640.3,67.9,2640.3
	L67.9,2640.3z"/>
<path d="M26.1,2587.1c-0.2,1.3-1,2.1-1.6,1.9c-0.6-0.2-4.7-1.3-8.9-2.3c-7.8-1.8-9-2.9-6.9-6.3c0.7-1,2.5-0.9,9.5,0.9
	c4.8,1.2,8.6,2.5,8.5,2.8C26.6,2584.5,26.4,2585.9,26.1,2587.1L26.1,2587.1z"/>
<path d="M26.1,2420.1c-0.2,1.3-1,2.1-1.6,1.9c-0.6-0.2-4.7-1.3-8.9-2.3c-7.8-1.8-9-2.9-6.9-6.3c0.7-1,2.5-0.9,9.5,0.9
	c4.8,1.2,8.6,2.5,8.5,2.8C26.6,2417.5,26.4,2418.9,26.1,2420.1z"/>
<path d="M25.8,2252.9l-0.9,2.1l-8.6-2.1c-8.6-2.1-9.8-3.1-7.7-6.5c0.7-1,2.5-0.9,9.5,0.9c4.8,1.2,8.6,2.5,8.6,2.8
	C26.7,2250.5,26.3,2251.8,25.8,2252.9z"/>
<path d="M26.1,2085.6c-0.6,2.2-2,2.2-10.8-0.1c-7-1.8-8.5-3.2-6.6-6.1c0.7-1.2,1.7-1.2,5.7-0.2c10.3,2.5,12.3,3.2,12.2,3.9
	C26.6,2083.5,26.4,2084.6,26.1,2085.6L26.1,2085.6z"/>
<path d="M26.1,1918.6c-0.6,2.2-2,2.2-10.8-0.1c-7-1.8-8.5-3.2-6.6-6.1c0.7-1.2,1.7-1.2,5.7-0.2c10.3,2.5,12.3,3.2,12.2,3.9
	C26.6,1916.5,26.4,1917.6,26.1,1918.6L26.1,1918.6z"/>
<path d="M26.1,1751.6c-0.6,2.2-2,2.2-10.8-0.1c-5.8-1.5-7.1-2.2-7.3-4c-0.4-2.8,1.6-3.6,6.5-2.3c2.1,0.5,5.8,1.5,8.1,2.1
	c2.3,0.6,4.2,1.4,4.1,1.8C26.6,1749.5,26.4,1750.6,26.1,1751.6L26.1,1751.6z"/>
<path d="M26.1,1584.6c-0.6,2.2-2,2.2-10.8-0.1c-5.8-1.5-7.1-2.2-7.3-4c-0.4-2.8,1.6-3.6,6.5-2.3c2.1,0.5,5.8,1.5,8.1,2.1
	c2.3,0.6,4.2,1.4,4.1,1.8C26.6,1582.5,26.4,1583.6,26.1,1584.6L26.1,1584.6z"/>
<path d="M26.1,1417.6c-0.6,2.2-2,2.2-10.8-0.1c-5.8-1.5-7.1-2.2-7.3-4c-0.4-2.8,1.6-3.6,6.5-2.3c2.1,0.5,5.8,1.5,8.1,2.1
	c2.3,0.6,4.2,1.4,4.1,1.8C26.6,1415.5,26.4,1416.6,26.1,1417.6L26.1,1417.6z"/>
<path d="M26.1,1250.6c-0.6,2.2-2,2.2-10.8-0.1c-5.8-1.5-7.1-2.2-7.3-4c-0.4-2.8,1.6-3.6,6.5-2.3c2.1,0.5,5.8,1.5,8.1,2.1
	c2.3,0.6,4.2,1.4,4.1,1.8C26.6,1248.5,26.4,1249.6,26.1,1250.6L26.1,1250.6z"/>
</svg>
