<svg id="Layer_1" data-name="Layer 1" xmlns="http://www.w3.org/2000/svg" viewBox="0 0 1108.42 358"><defs><style>.cls-1{fill:#56966a;}.cls-2{fill:#fff;}.cls-3{fill:#bf4541;}.cls-4{stroke:#fff;stroke-miterlimit:10;stroke-width:3px;}</style></defs><path class="cls-1" d="M510.4,559.34c-2.6,0-4.3-2.36-5.5-4.42a12.45,12.45,0,0,1-1.54-8.37,4.47,4.47,0,0,0-.3-1.9c-.12-.43-.26-.93-.36-1.45a102.71,102.71,0,0,0-3.53-13.06c-.46-1.45-.92-2.9-1.36-4.35-.65-2.17-1.39-4.37-2.1-6.5-1-2.85-1.95-5.8-2.77-8.77-1-3.48-2.16-7-3.31-10.38-.33-1-.66-1.91-1-2.87q-.94-2.83-1.94-5.65c-1-3-2.09-6-3-9.08a12,12,0,0,0-3.37-5.27,10,10,0,0,1-3.28-9.1c.32-2.65-.57-5.2-1.52-7.89-.32-.92-.65-1.84-.92-2.76-2-6.74-4.1-13.39-6.15-19.75-1.16-3.61-2.39-7.26-3.58-10.79q-1.17-3.48-2.33-7-1.89-5.73-3.76-11.48l-2.07-6.35q-1.5-4.57-3-9.16l-.36-1.07a8.07,8.07,0,0,1,2.73-9A108.41,108.41,0,0,0,480,353.67a214.81,214.81,0,0,0,10.84-22.09,206.09,206.09,0,0,0,12.53-41.33c1.51-7.54,2.84-14.33,3.82-21.18.7-5,1.7-9.94,2.66-14.76l.39-1.94a5.59,5.59,0,0,1,5.32-4.9l.17,0a4.89,4.89,0,0,1,.66,0l.39,0a10.61,10.61,0,0,0,1.37.1h0a2.26,2.26,0,0,0,1-.13,13.1,13.1,0,0,0,0-3.33c-.28-2.6.5-5.27,1.26-7.85.3-1,.62-2.11.85-3.15a25.47,25.47,0,0,1,.81-2.68,19.8,19.8,0,0,0,.76-2.61c.49-2.71,2.44-4.26,5.34-4.26h.18c2,0,4.07-.17,6.2-.36l2.13-.18q.78-.06,1.56-.06a17.92,17.92,0,0,1,8,1.88,4.6,4.6,0,0,0,2.05.46,6.42,6.42,0,0,0,5.86-4.31,13.78,13.78,0,0,0,.93-4.62,18,18,0,0,1,1.33-6.41c1.16-3.2,3.31-3.88,4.91-3.88a7.22,7.22,0,0,1,2.15.36c1.3.41,2.58.85,3.87,1.28.76.27,1.53.53,2.3.78,1.88.62,4,2.14,3.48,5.85-.93,6.62-1.8,13.36-2.65,19.88l-.46,3.49c-.51,3.89.52,7.64,1.61,11.6.21.77.43,1.53.62,2.3a15.76,15.76,0,0,1,.64,4.36c0,.36,0,.73,0,1.09a12.19,12.19,0,0,0,0,2.44c.33,2,1.32,8-5.38,10.46-.81.3-1,1.55-1,2.55-.1,2.83-.3,5.69-.49,8.45a129.94,129.94,0,0,0-.44,16,19.46,19.46,0,0,0,.43,2.69,25.14,25.14,0,0,1,.47,2.78c.51,5.49-1,10.41-2.54,15.18a11.67,11.67,0,0,0-.47,3.46l0,2.23c0,3.95-.07,8,0,12.05a257.44,257.44,0,0,1-1.88,30c-.27,2.48-.47,5-.67,7.47-.27,3.36-.55,6.83-1,10.25-.26,2.07-.48,4.15-.71,6.23-.5,4.6-1,9.36-1.91,14-.41,2.13-.85,4.25-1.29,6.38-.78,3.79-1.6,7.71-2.19,11.58a11.36,11.36,0,0,1-3.64,7.3,7.65,7.65,0,0,0-2.44,5.17,33.76,33.76,0,0,1-3,9c-.48,1.1-.94,2.13-1.35,3.2-.79,2-1.61,4.07-2.44,6.1-1.76,4.35-3.58,8.85-5,13.35a17.26,17.26,0,0,0-.58,9.57,12,12,0,0,1-.94,8.51c-1.38,2.76-1.5,6-.36,9.93a13.58,13.58,0,0,1-1.35,10.65l-.54,1a48,48,0,0,0-3.22,6.67,26.22,26.22,0,0,0-1.18,5.78,36.81,36.81,0,0,1-.89,5.06c-2.25,8.32-4.12,15.08-5.91,21.28-1.11,3.86-2.42,7.93-5.11,11.62C514.56,557.32,512.78,559.34,510.4,559.34Z" transform="translate(-450.87 -203.7)"/><path class="cls-2" d="M561.36,208a5.23,5.23,0,0,1,1.57.27c2.06.64,4.09,1.38,6.13,2,1.81.6,2.4,1.77,2.13,3.67-1.09,7.79-2.09,15.59-3.11,23.39-.67,5.1,1,9.86,2.28,14.66a14.25,14.25,0,0,1,.57,3.82,22.07,22.07,0,0,0,0,3.9c.63,3.79,0,6.74-4.11,8.25-1.79.67-2.29,2.6-2.35,4.36-.29,8.23-1.39,16.42-.92,24.68.1,1.9.72,3.66.9,5.54.46,5-1,9.71-2.46,14.39a13.68,13.68,0,0,0-.56,4c0,4.78-.1,9.55,0,14.32a253.8,253.8,0,0,1-1.87,29.81c-.62,5.88-.91,11.81-1.64,17.68-.84,6.71-1.33,13.46-2.61,20.14-1.15,6-2.55,12-3.49,18a9.31,9.31,0,0,1-3,6.08,9.66,9.66,0,0,0-3.12,6.42c-.56,4.17-2.69,7.88-4.19,11.76-2.53,6.52-5.37,12.93-7.52,19.56a19.38,19.38,0,0,0-.61,10.67,10,10,0,0,1-.79,7.14c-1.81,3.64-1.6,7.54-.5,11.38a11.55,11.55,0,0,1-1.18,9.14,58.35,58.35,0,0,0-3.88,7.94c-1.31,3.6-1.15,7.41-2.12,11-1.92,7.1-3.87,14.18-5.9,21.24-1.13,3.93-2.39,7.69-4.81,11-1.44,2-2.67,3-3.83,3s-2.44-1.14-3.77-3.42a10.41,10.41,0,0,1-1.29-7.06c.23-1.47-.43-2.68-.67-4-1.08-6-3.18-11.78-4.94-17.63-1.55-5.1-3.44-10.09-4.87-15.23-1.25-4.5-2.82-8.91-4.31-13.35-1.64-4.9-3.43-9.76-5-14.69a14,14,0,0,0-3.91-6.13,8.08,8.08,0,0,1-2.65-7.4c.49-4.08-1.39-7.71-2.52-11.47q-3-9.92-6.15-19.79c-1.92-5.94-4-11.84-5.92-17.77s-3.88-11.88-5.83-17.82q-1.68-5.13-3.37-10.24a6.06,6.06,0,0,1,2.12-6.81,111.31,111.31,0,0,0,24.37-29.85,220,220,0,0,0,10.94-22.29,209.9,209.9,0,0,0,12.65-41.73c1.42-7.06,2.82-14.14,3.84-21.29.79-5.56,1.93-11.08,3-16.59a3.63,3.63,0,0,1,3.48-3.29c.24,0,.48-.07.71-.07h.16a14.18,14.18,0,0,0,1.6.11c3.22,0,3.26-1.74,3-5.58-.35-3.31,1.26-6.8,2.07-10.44.41-1.82,1.25-3.55,1.59-5.37.36-2,1.74-2.62,3.37-2.62h.18c2.84,0,5.66-.32,8.48-.54q.72-.06,1.41-.06a15.88,15.88,0,0,1,7.17,1.68,6.7,6.7,0,0,0,2.93.66,8.44,8.44,0,0,0,7.75-5.66,15.61,15.61,0,0,0,1-5.3,16,16,0,0,1,1.21-5.7c.62-1.72,1.6-2.56,3-2.56m0-4c-1.47,0-5.08.51-6.78,5.2a19.9,19.9,0,0,0-1.45,7.12,12.2,12.2,0,0,1-.83,3.94,4.47,4.47,0,0,1-4,3,2.54,2.54,0,0,1-1.17-.26,19.84,19.84,0,0,0-8.93-2.08c-.56,0-1.14,0-1.72.07l-2.14.18c-2.09.18-4.07.35-6,.35h-.14c-4,0-6.68,2.21-7.35,5.9a19.1,19.1,0,0,1-.68,2.32,27,27,0,0,0-.87,2.89c-.22,1-.51,2-.82,3-.8,2.73-1.64,5.56-1.34,8.61,0,.31.05.76.06,1.2l-.23,0a4.44,4.44,0,0,0-.63,0,6.23,6.23,0,0,0-.91.07h-.08a7.53,7.53,0,0,0-7.12,6.49l-.38,1.91c-1,4.86-2,9.88-2.69,14.91-1,6.8-2.3,13.56-3.8,21.06A204.15,204.15,0,0,1,489,330.79a210.8,210.8,0,0,1-10.73,21.88,106.45,106.45,0,0,1-23.49,28.79,10,10,0,0,0-3.33,11.11l.56,1.68c.94,2.85,1.87,5.7,2.81,8.55l2.09,6.41q1.86,5.71,3.74,11.43c.77,2.32,1.55,4.65,2.34,7,1.18,3.53,2.41,7.18,3.57,10.77,2,6.33,4.1,13,6.13,19.72.3,1,.63,1.92,1,2.84.91,2.58,1.69,4.8,1.43,7a12,12,0,0,0,3.9,10.81,10,10,0,0,1,2.82,4.4c1,3.08,2,6.15,3.07,9.13.64,1.85,1.31,3.76,1.94,5.63.32,1,.65,1.92,1,2.89,1.14,3.36,2.33,6.84,3.28,10.27.84,3,1.83,6,2.8,8.86.71,2.11,1.44,4.3,2.09,6.44.44,1.47.9,2.93,1.37,4.39a102.07,102.07,0,0,1,3.47,12.8,14.85,14.85,0,0,0,.4,1.65,5.32,5.32,0,0,1,.24,1,14.38,14.38,0,0,0,1.79,9.68c.86,1.49,3.15,5.42,7.23,5.42,3.32,0,5.62-2.63,7.06-4.61,2.88-4,4.31-8.39,5.42-12.25,1.79-6.19,3.67-13,5.92-21.3a39.87,39.87,0,0,0,.94-5.33,26,26,0,0,1,1.07-5.36,46.77,46.77,0,0,1,3.1-6.39l.55-1A15.46,15.46,0,0,0,536,492.94c-1-3.46-.93-6.16.23-8.49a14,14,0,0,0,1.09-9.88,15.35,15.35,0,0,1,.54-8.48c1.43-4.42,3.24-8.88,5-13.2.82-2,1.66-4.08,2.46-6.14.39-1,.84-2,1.31-3.12a35.11,35.11,0,0,0,3.12-9.55c.32-2.41,1.07-3.33,1.75-3.92a13.16,13.16,0,0,0,4.31-8.51c.59-3.83,1.4-7.72,2.18-11.5.43-2.09.88-4.25,1.29-6.39.91-4.77,1.44-9.57,1.94-14.21.22-2,.45-4.15.71-6.2.43-3.45.71-6.94,1-10.32.2-2.45.41-5,.66-7.43a256.82,256.82,0,0,0,1.9-30.28c0-4,0-8.11,0-12.07l0-2.17a9.73,9.73,0,0,1,.38-2.87c1.48-4.73,3.17-10.08,2.62-16a27.75,27.75,0,0,0-.5-3,16.89,16.89,0,0,1-.39-2.39,125.56,125.56,0,0,1,.43-15.79c.2-2.78.39-5.65.49-8.52a5,5,0,0,1,.11-.89c3.67-1.47,7.58-4.83,6.31-12.51a10.29,10.29,0,0,1,0-2c0-.38,0-.76,0-1.15a18,18,0,0,0-.7-4.89c-.2-.78-.41-1.56-.63-2.33-1-3.77-2-7.32-1.55-10.81l.47-3.62c.84-6.47,1.71-13.16,2.63-19.73.55-3.9-1.21-6.83-4.83-8l-2.28-.77c-1.27-.43-2.59-.88-3.92-1.3a9.25,9.25,0,0,0-2.76-.45Z" transform="translate(-450.87 -203.7)"/><path class="cls-3" d="M524.93,558.93a5.33,5.33,0,0,1-3.18-1.21,9.45,9.45,0,0,1-3.09-10c1.85-6.43,3.68-13,5.46-19.31l1.42-5c.05-.18.1-.36.16-.54a3.76,3.76,0,0,0,.23-.95c-.25-6.27,2.35-11.48,4.86-16.51q.62-1.21,1.2-2.43c1.23-2.55,1.89-4.84,1.1-7.72-1.59-5.8-1.09-10.71,1.51-15a3.53,3.53,0,0,0,.12-3.22c-2.1-4.86-.82-9.5.53-13.47,2.72-7.94,6-15.78,9.19-23.35l.63-1.51a26.94,26.94,0,0,0,1.29-4.65c.1-.42.19-.84.29-1.27a7.64,7.64,0,0,1,2.57-4.38,8.11,8.11,0,0,0,2.93-6.12,54.58,54.58,0,0,1,1.7-8.91c.2-.8.4-1.6.59-2.41a185.11,185.11,0,0,0,3.28-21.33c.3-2.61.59-5.21.93-7.81.72-5.53,1.18-11.19,1.63-16.67.34-4.12.69-8.39,1.15-12.58a173,173,0,0,0,.64-18.76V330.6c0-1.86.07-3.73.14-5.53s.13-3.41.14-5.09a19.53,19.53,0,0,1,1.36-6.3c.26-.75.5-1.47.7-2.18a20.76,20.76,0,0,0,.48-8.45,65,65,0,0,1-.39-16.67,53.06,53.06,0,0,0,.26-6.24,60.24,60.24,0,0,1,.27-6.53,7.25,7.25,0,0,1,3.61-6,15.34,15.34,0,0,0,2.19-1.55c1.43-1.14,1.22-2,1.14-2.29a23.14,23.14,0,0,1-.44-7,23.78,23.78,0,0,0-1.45-8c-.23-.77-.46-1.55-.67-2.33-1.31-4.8-.8-9.34-.06-14.37.85-5.79,1.3-11.75,1.73-17.51l.18-2.38,0-.52a13,13,0,0,1,.2-1.86,4.43,4.43,0,0,1,4.19-3.92,4.32,4.32,0,0,1,2.3.7,19.75,19.75,0,0,0,5.28,2c4,1.09,4.14,4,3.89,5.72-.19,1-.35,1.92-.51,2.85-.3,1.73-.61,3.52-1,5.31a31.2,31.2,0,0,0-1.16,9.64,22.49,22.49,0,0,1-.17,4.29,24.91,24.91,0,0,0-.2,2.78c0,4.26.28,8.83,2.15,13.33a14.07,14.07,0,0,1,.59,6.63,23.33,23.33,0,0,0-.09,2.85c.2,4.11-2.47,5.85-4.5,6.8a3.27,3.27,0,0,0-1.89,3.2c0,3.31-.26,6.62-.52,9.82a100.77,100.77,0,0,0-.47,11.53c.11,2.62.32,5.17.67,7.8.46,3.53.65,7.34-1.11,11.25-1.62,3.62-1.73,7.78-1.71,11.41,0,1.67,0,3.34,0,5a213.52,213.52,0,0,1-.54,22.28c-.4,4.22-.77,8.43-1.14,12.65-.63,7.31-1.29,14.88-2.12,22.31-.93,8.34-2.2,17-3.76,25.61-.62,3.47-1.43,6.95-2.21,10.31l-.28,1.22a9.69,9.69,0,0,1-3,5.31,7.51,7.51,0,0,0-2.65,5.6,18.71,18.71,0,0,1-2.27,7.1q-.37.76-.72,1.53c-3.43,7.64-6.28,15.75-8.67,22.75-1.34,3.92-1.55,6.72-.71,9.37a10.82,10.82,0,0,1-.68,8.19,14,14,0,0,0-.52,10.59c1.05,3.5.76,6.49-.89,9.14-3.41,5.45-5.28,10.45-5.73,15.31a53.13,53.13,0,0,1-2,9.42c-.37,1.35-.75,2.75-1.07,4.12-.57,2.48-1.31,4.95-2,7.33-.6,2-1.23,4.15-1.74,6.22a31.29,31.29,0,0,1-6.17,12A4.25,4.25,0,0,1,524.93,558.93Z" transform="translate(-450.87 -203.7)"/><path class="cls-2" d="M575.67,207.82a2.33,2.33,0,0,1,1.24.39,21.33,21.33,0,0,0,5.81,2.27c1.82.5,2.74,1.52,2.44,3.49-.51,2.65-.88,5.33-1.51,8a32.91,32.91,0,0,0-1.2,10.27c.19,2.27-.39,4.6-.38,6.9,0,4.81.39,9.5,2.3,14.1,1.11,2.67.21,5.86.35,8.81.12,2.55-1.1,3.83-3.35,4.89a5.27,5.27,0,0,0-3,5c0,7.16-1.26,14.26-1,21.43.1,2.67.33,5.32.67,8,.45,3.4.58,6.78-.94,10.17-1.72,3.83-1.92,8-1.89,12.24,0,9,.36,18.08-.49,27.09-1.11,11.64-2,23.3-3.26,34.93Q570,398.6,567.7,411.26c-.69,3.84-1.59,7.64-2.47,11.44a7.74,7.74,0,0,1-2.41,4.26,9.43,9.43,0,0,0-3.31,7c-.15,2.83-1.68,5.37-2.82,7.91-3.36,7.48-6.1,15.19-8.74,22.92-1.15,3.37-1.89,7-.72,10.63a8.75,8.75,0,0,1-.58,6.71,16.15,16.15,0,0,0-.64,12,8.75,8.75,0,0,1-.67,7.51c-3.12,5-5.48,10.35-6,16.19-.42,4.6-2,8.85-3,13.26s-2.64,9-3.77,13.53a29.2,29.2,0,0,1-5.79,11.26,2.31,2.31,0,0,1-1.82,1,3.4,3.4,0,0,1-2-.81,7.48,7.48,0,0,1-2.37-7.88c2.33-8.11,4.6-16.24,6.88-24.36a7,7,0,0,0,.47-2.12c-.27-6.72,3.11-12.27,5.86-18,1.43-3,2.15-5.73,1.23-9.12-1.24-4.52-1.3-9.16,1.29-13.44a5.54,5.54,0,0,0,.25-5.06c-1.81-4.17-.74-8.15.59-12,2.87-8.39,6.34-16.56,9.76-24.74a37.51,37.51,0,0,0,1.68-6.24,5.71,5.71,0,0,1,1.91-3.29,10.1,10.1,0,0,0,3.64-7.5,76.61,76.61,0,0,1,2.24-11c2.28-9.66,3-19.54,4.25-29.34s1.73-19.54,2.79-29.3c.79-7.33.64-14.72.64-22.1,0-3.53.26-7.07.28-10.61,0-2.84,1.26-5.33,2-8a22.94,22.94,0,0,0,.53-9.24,63.49,63.49,0,0,1-.38-16.18c.51-4.22,0-8.52.53-12.77.21-1.91.8-3.48,2.58-4.47a16.94,16.94,0,0,0,2.48-1.73c1.39-1.11,2.28-2.6,1.83-4.35a21.64,21.64,0,0,1-.39-6.46c.21-3.86-1.21-7.37-2.19-11-1.23-4.54-.67-9.07,0-13.56,1-6.65,1.41-13.34,1.92-20a19.08,19.08,0,0,1,.2-2.15c.27-1.4,1.16-2.3,2.23-2.3m0-4h0c-3,0-5.51,2.23-6.15,5.54a16.38,16.38,0,0,0-.24,2.12l0,.49-.18,2.36c-.42,5.73-.87,11.66-1.71,17.39-.75,5.06-1.3,10,.1,15.19.22.79.46,1.58.69,2.37a22.39,22.39,0,0,1,1.37,7.34,25.45,25.45,0,0,0,.46,7.49,2.6,2.6,0,0,1-.41.4,13.7,13.7,0,0,1-1.91,1.36,9.26,9.26,0,0,0-4.63,7.52,62.1,62.1,0,0,0-.28,6.74,53,53,0,0,1-.24,6,66.66,66.66,0,0,0,.39,17.18,18.75,18.75,0,0,1-.43,7.64c-.18.66-.41,1.35-.66,2.08a21.06,21.06,0,0,0-1.47,6.93c0,1.65-.07,3.29-.14,5s-.14,3.71-.14,5.6c0,1,0,2.09,0,3.13a171,171,0,0,1-.63,18.54c-.46,4.23-.81,8.5-1.15,12.64-.45,5.46-.91,11.1-1.62,16.58-.34,2.61-.64,5.26-.94,7.82a184.13,184.13,0,0,1-3.24,21.12c-.19.79-.38,1.58-.58,2.37a56.78,56.78,0,0,0-1.76,9.24,6.19,6.19,0,0,1-2.21,4.75,9.56,9.56,0,0,0-3.24,5.47c-.1.43-.2.86-.29,1.29a25.25,25.25,0,0,1-1.19,4.29l-.63,1.5c-3.19,7.62-6.49,15.49-9.23,23.49-1.48,4.33-2.86,9.4-.47,14.91a1.6,1.6,0,0,1,0,1.4c-2.86,4.73-3.45,10.3-1.73,16.57.55,2,.28,3.72-1,6.32-.39.81-.79,1.61-1.19,2.41-2.48,5-5.29,10.6-5.07,17.31,0,.11-.09.3-.14.45l-.18.59-1.47,5.26c-1.76,6.26-3.58,12.74-5.4,19.09a11.49,11.49,0,0,0,3.8,12.18,7.27,7.27,0,0,0,4.4,1.61,6.31,6.31,0,0,0,5-2.53,33.38,33.38,0,0,0,6.54-12.79c.5-2,1.09-4,1.72-6.13.72-2.41,1.46-4.9,2.05-7.45.31-1.33.67-2.65,1-4a55.38,55.38,0,0,0,2-9.77c.42-4.53,2.2-9.26,5.43-14.43A12.68,12.68,0,0,0,549.84,493a12.19,12.19,0,0,1,.41-9.14,12.7,12.7,0,0,0,.79-9.66c-.71-2.21-.5-4.64.69-8.12,2.38-7,5.21-15,8.61-22.58.22-.5.45-1,.69-1.48a20.13,20.13,0,0,0,2.47-7.87,5.49,5.49,0,0,1,2-4.2,11.82,11.82,0,0,0,3.66-6.36l.29-1.26c.78-3.37,1.59-6.86,2.22-10.37,1.57-8.69,2.84-17.35,3.77-25.74.84-7.45,1.5-15,2.13-22.35.36-4.14.74-8.43,1.14-12.64a212.56,212.56,0,0,0,.55-22.5c0-1.66,0-3.33,0-5,0-4.24.23-7.65,1.54-10.58,2-4.37,1.74-8.69,1.26-12.33-.34-2.57-.55-5.06-.65-7.61a96.54,96.54,0,0,1,.46-11.3c.26-3.24.53-6.59.53-10,0-.92.37-1.22.74-1.39,1.47-.69,5.93-2.78,5.64-8.7a24.48,24.48,0,0,1,.1-2.62,16,16,0,0,0-.74-7.54c-1.74-4.18-2-8.51-2-12.57a24.55,24.55,0,0,1,.19-2.56,24.31,24.31,0,0,0,.17-4.67,29.38,29.38,0,0,1,1.12-9c.43-1.84.75-3.66,1.05-5.42.16-.92.32-1.83.49-2.74v-.08l0-.07c.58-3.83-1.46-6.88-5.33-7.95a18,18,0,0,1-4.76-1.8,6.38,6.38,0,0,0-3.36-1Z" transform="translate(-450.87 -203.7)"/><path d="M536.81,559.71a4.78,4.78,0,0,1-3.13-1.3c-3.53-3-4-5.75-1.88-10.33a46.73,46.73,0,0,0,3.1-9.37c.76-3.28,1.73-6.55,2.68-9.7.26-.89.52-1.78.79-2.67.16-.55.33-1.11.51-1.66a17.48,17.48,0,0,0,1.2-6.47,15.06,15.06,0,0,1,1.45-6.72l.23-.61a50.26,50.26,0,0,1,4.72-9.95,7.56,7.56,0,0,0,.56-6.8,16.4,16.4,0,0,1,.11-10.69,14.72,14.72,0,0,0,.61-8c-1.17-5.18.58-9.89,2.28-14.44l.2-.54c1.1-3,2.31-5.91,3.47-8.77,2.57-6.31,5.23-12.83,6.82-19.54a9.68,9.68,0,0,1,2.89-4.48c.43-.45.83-.86,1.16-1.28a4,4,0,0,0,1.16-2.64,13.45,13.45,0,0,1,.85-4.28c.2-.64.39-1.23.51-1.81a280.13,280.13,0,0,0,4.71-28.13c.3-2.62.53-5.32.76-7.94.15-1.78.31-3.55.48-5.32.29-3,.56-5.9.84-8.84.32-3.44.64-6.88,1-10.32l0-.21a26.83,26.83,0,0,0,.19-5.19,24.27,24.27,0,0,1,.49-6.54,52.33,52.33,0,0,0,.44-9.43c0-2,0-4.08.07-6.15.08-1.48.09-3,.1-4.5a51.59,51.59,0,0,1,.54-8.71,14.27,14.27,0,0,1,1-3.1,10.74,10.74,0,0,0,.78-2.27,39.25,39.25,0,0,0,0-11.3,84.67,84.67,0,0,1,0-14.42c.12-2.08.25-4.24.29-6.33,0-.7.07-1.4.13-2.1a19.57,19.57,0,0,0,.1-2.72,7,7,0,0,1,4.21-7.08,9.16,9.16,0,0,0,2.28-1.67,3,3,0,0,0,.52-.64,17.69,17.69,0,0,1-1-7.48,19,19,0,0,0-.25-4.39c-.53-2.45-1-4.9-1.55-7.35a33,33,0,0,1-.44-7V237.1A72,72,0,0,1,584,226c.31-1.91.63-3.88.85-5.8s.27-4.06.31-6.19l0-1.65a1.28,1.28,0,0,0,0-.51l-.1,0c-2.44-1.37-1.74-3.28-1.46-3.83a3.68,3.68,0,0,1,3.14-2.25,1.4,1.4,0,0,1,.29,0h.2l.25.05a43,43,0,0,1,10.28,3.64c2.24,1.09,2.09,3.78,2,4.66v.11l-.34,2.16c-.24,1.53-.48,3.07-.76,4.6-.82,4.41-1.29,9-1.75,13.39-.15,1.43-.3,2.86-.46,4.29-.38,3.4.5,6.65,1.43,10.1l.06.22a27,27,0,0,1,1.08,6.86q0,.86,0,1.71a12.76,12.76,0,0,0,.48,4.71,4.7,4.7,0,0,1-3,6.21c-2.61,1-3.63,2.59-3.77,5.88-.08,1.9-.19,3.81-.29,5.71-.27,5-.55,10.13-.43,15.17,0,1.12.15,2.26.28,3.46.06.52.11,1.05.16,1.58.42,4.42.55,9.16-1.24,13.91-1.68,4.43-1.54,9.16-1.39,14.16v.49a263.8,263.8,0,0,1-1,27.92c-.67,8.8-1.38,16.5-2.15,23.54-1.13,10.34-2.31,20.45-4.3,30.56-.52,2.65-1.12,5.32-1.69,7.9-.4,1.79-.8,3.57-1.17,5.36a8.75,8.75,0,0,1-2.8,4.4l-.13.12a8.1,8.1,0,0,0-2.49,5.42,22.21,22.21,0,0,1-2.32,7.2c-.48,1-.92,2-1.28,3-1,2.82-2.19,5.63-3.3,8.34a111.9,111.9,0,0,0-5.45,15.28,14.05,14.05,0,0,0,.12,8.05,6.9,6.9,0,0,1-.35,5.67,15.58,15.58,0,0,0-1,12.37,11,11,0,0,1-1,9.25,56.17,56.17,0,0,0-5.32,12.2,5,5,0,0,0-.25,1.49c.21,3.48-.76,6.57-1.7,9.57-.41,1.31-.8,2.55-1.09,3.81-.6,2.62-1.35,5.22-2.08,7.74-.59,2-1.2,4.15-1.71,6.23a33.05,33.05,0,0,1-7.07,13.73A4.51,4.51,0,0,1,536.81,559.71Z" transform="translate(-450.87 -203.7)"/><path class="cls-2" d="M587,207.7h0a41.88,41.88,0,0,1,9.8,3.47c.93.46,1,1.7.92,2.76-.36,2.21-.67,4.42-1.08,6.61-1.09,5.9-1.56,11.87-2.23,17.82-.43,3.86.58,7.48,1.55,11.08a25.57,25.57,0,0,1,1,6.36c.05,2.37-.26,4.74.61,7.09a2.73,2.73,0,0,1-1.87,3.64c-3.58,1.36-4.89,3.88-5.06,7.66-.3,7-.89,14-.72,21,0,1.73.29,3.46.45,5.18.42,4.41.5,8.74-1.12,13-1.88,5-1.66,10.22-1.51,15.41a261.47,261.47,0,0,1-1,27.72c-.61,7.83-1.29,15.67-2.15,23.48-1.11,10.16-2.3,20.33-4.27,30.38-.88,4.43-1.93,8.82-2.86,13.24a7.25,7.25,0,0,1-2.38,3.52,10,10,0,0,0-3.07,6.64c-.31,3.44-2.32,6.48-3.49,9.73-2.89,8-6.74,15.55-8.81,23.81a16,16,0,0,0,.17,9.18,5,5,0,0,1-.24,4.13,17.71,17.71,0,0,0-1.11,13.91,9.07,9.07,0,0,1-.89,7.65,59.18,59.18,0,0,0-5.5,12.65,7.09,7.09,0,0,0-.31,2.13c.28,4.53-1.76,8.56-2.74,12.8-1.07,4.69-2.62,9.26-3.78,13.93a30.81,30.81,0,0,1-6.64,12.91,2.61,2.61,0,0,1-1.93,1.07,2.8,2.8,0,0,1-1.82-.81c-2.89-2.48-3.13-4.23-1.38-8a48.94,48.94,0,0,0,3.24-9.75c.95-4.13,2.24-8.19,3.43-12.26.85-2.9,2-5.73,1.79-8.84-.16-2.32.78-4.44,1.56-6.48a47.33,47.33,0,0,1,4.52-9.55,9.51,9.51,0,0,0,.78-8.57,14.47,14.47,0,0,1,.13-9.44,16.92,16.92,0,0,0,.65-9.07c-1.08-4.8.73-9.34,2.41-13.84,3.53-9.49,8-18.63,10.35-28.55.5-2.08,2.41-3.36,3.68-5a5.94,5.94,0,0,0,1.59-3.88c0-2,.91-3.76,1.32-5.66a286.14,286.14,0,0,0,4.74-28.33c.5-4.41.81-8.88,1.24-13.29.62-6.38,1.19-12.77,1.82-19.15a29.55,29.55,0,0,0,.21-5.8,23,23,0,0,1,.47-6c.89-5.24.24-10.54.53-15.8.25-4.33-.12-8.68.62-13,.33-1.87,1.46-3.46,1.8-5.36a41.13,41.13,0,0,0,0-11.88c-.77-6.84.15-13.65.3-20.48,0-1.66.32-3.33.23-5a5.08,5.08,0,0,1,3.13-5.19,11.15,11.15,0,0,0,2.77-2c.75-.74,1.44-1.74,1-2.7-1.7-3.77-.39-7.81-1.22-11.65q-.79-3.66-1.55-7.32a38.83,38.83,0,0,1-.39-8c0-5.64,1.38-11.12,2-16.69.3-2.67.3-5.33.37-8a2.26,2.26,0,0,0-1-2.25c-.45-.27-1.17-.55-.81-1.29a1.79,1.79,0,0,1,1.47-1.15l.17,0m0-4a4.06,4.06,0,0,0-.56,0,5.74,5.74,0,0,0-4.66,3.35,4.66,4.66,0,0,0,1.37,5.87c0,.33,0,.66,0,1,0,2.09-.08,4.07-.3,6s-.51,3.74-.83,5.71a71.45,71.45,0,0,0-1.2,11.43c0,.44,0,.89,0,1.34a34.19,34.19,0,0,0,.48,7.45c.49,2.36,1,4.77,1.56,7.37a18.87,18.87,0,0,1,.2,3.94,21.4,21.4,0,0,0,.73,7.07,6.28,6.28,0,0,1-1.41,1,9.12,9.12,0,0,0-5.29,9,19.43,19.43,0,0,1-.1,2.45c-.06.71-.12,1.44-.14,2.21,0,2.06-.16,4.19-.28,6.25a86.71,86.71,0,0,0,0,14.77,37.08,37.08,0,0,1,0,10.73,9.59,9.59,0,0,1-.65,1.84,16.07,16.07,0,0,0-1.15,3.53,53.09,53.09,0,0,0-.57,9.05c0,1.52,0,3-.1,4.39-.12,2.14-.09,4.26-.07,6.3a50.77,50.77,0,0,1-.41,9.07,26.23,26.23,0,0,0-.51,7.06,25.65,25.65,0,0,1-.19,4.81l0,.21q-.51,5.19-1,10.39-.4,4.38-.83,8.76-.25,2.67-.48,5.34c-.23,2.6-.46,5.3-.75,7.9a281.31,281.31,0,0,1-4.68,27.92c-.11.49-.28,1-.47,1.63a15.47,15.47,0,0,0-.94,4.91c0,.2,0,.44-.74,1.39-.26.33-.63.71-1,1.12a11.74,11.74,0,0,0-3.4,5.41c-1.55,6.56-4.06,12.72-6.72,19.24-1.17,2.88-2.38,5.85-3.49,8.83l-.2.54c-1.72,4.6-3.66,9.82-2.36,15.58a13.05,13.05,0,0,1-.57,7,18.3,18.3,0,0,0-.09,11.94,5.68,5.68,0,0,1-.33,5,50.76,50.76,0,0,0-4.92,10.33l-.24.6a17.09,17.09,0,0,0-1.57,7.6,16.06,16.06,0,0,1-1.12,5.72c-.18.57-.36,1.13-.52,1.7-.27.89-.53,1.78-.8,2.67-.95,3.18-1.93,6.47-2.7,9.81a44.88,44.88,0,0,1-3,9c-2.52,5.38-1.83,9.06,2.39,12.69a6.66,6.66,0,0,0,4.43,1.78,6.45,6.45,0,0,0,5-2.45,34.92,34.92,0,0,0,7.49-14.56c.5-2,1.11-4.13,1.69-6.15.74-2.55,1.5-5.18,2.11-7.85.27-1.18.65-2.39,1.05-3.66.95-3,2-6.45,1.78-10.29a7.36,7.36,0,0,1,.19-.85,54.62,54.62,0,0,1,5.15-11.77,13.09,13.09,0,0,0,1.17-10.83,13.61,13.61,0,0,1,.88-10.83,8.93,8.93,0,0,0,.46-7.22,12,12,0,0,1-.08-6.93,109.08,109.08,0,0,1,5.35-15c1.13-2.73,2.29-5.56,3.34-8.43.33-.92.76-1.86,1.22-2.86a24.43,24.43,0,0,0,2.5-7.86A6,6,0,0,1,578,430l.13-.13a10.48,10.48,0,0,0,3.34-5.4q.57-2.67,1.17-5.32c.57-2.6,1.17-5.29,1.7-8,2-10.19,3.19-20.35,4.33-30.73.77-7.06,1.48-14.78,2.16-23.6a267.62,267.62,0,0,0,1-28.14l0-.49c-.14-4.8-.27-9.33,1.27-13.39,1.94-5.13,1.8-10.15,1.37-14.81-.06-.54-.11-1.08-.17-1.61-.13-1.16-.25-2.25-.27-3.29-.12-5,.16-10.07.43-15q.15-2.87.29-5.73c.12-2.75.86-3.48,2.48-4.1a6.7,6.7,0,0,0,4.2-8.78,11.12,11.12,0,0,1-.36-4c0-.59,0-1.19,0-1.78a29.42,29.42,0,0,0-1.15-7.34l-.06-.23c-.88-3.25-1.71-6.33-1.37-9.35.16-1.43.31-2.87.46-4.3.45-4.38.92-8.91,1.72-13.24.29-1.56.54-3.13.78-4.65.1-.68.21-1.36.32-2l0-.2v-.21c.23-4-1.59-5.81-3.16-6.58a45.7,45.7,0,0,0-10.74-3.8,5.14,5.14,0,0,0-.87-.09Z" transform="translate(-450.87 -203.7)"/><path class="cls-4" d="M640.52,223.11l.54,7.4,12.2.54L652,241.57,641.9,242l1.37,19.07H624.58l1.75-53.4h31l1.06,15.41Z" transform="translate(-450.87 -203.7)"/><path class="cls-4" d="M696.81,236.46l-6.71.84,8.23,23.8H681.48l-2.9-22.43-3,.31L675,261.1H661.42l-1.76-53.4h39.21ZM675.61,217l-.31,13.27,7.93-.53.92-11.14Z" transform="translate(-450.87 -203.7)"/><path class="cls-4" d="M745.25,261.1H700.7l1.76-53.4h39Zm-29.37-15.79,11.44,2.82L728.77,223l-12.2-3Z" transform="translate(-450.87 -203.7)"/><path class="cls-4" d="M799.64,261.1h-10L785.9,224l-10,37.07h-5.26l-6.41-30.21-1,.46-.84,29.75H748.83l-1.75-53.4h19.15l8.38,34.79,7.48-34.79h21.44Z" transform="translate(-450.87 -203.7)"/><path class="cls-4" d="M865.16,207.7,864,223.88H853.64l-2.29,37.22H838l-1.83-37.22H825.11l-.53-16.18Z" transform="translate(-450.87 -203.7)"/><path class="cls-4" d="M867.83,207.7H881.4L882,229l12.35.91,1.22-22.2H906.8l3.82,53.4h-18l1-18.15L882.39,244l.46,17.09H866.07Z" transform="translate(-450.87 -203.7)"/><path class="cls-4" d="M947.54,222.35H928.85l-.23,7.4,13.58-.69.76,11-14.65.68-.23,7.78,17.78-2.06-1.07,14.65H914.2l-1.76-53.4H948.6Z" transform="translate(-450.87 -203.7)"/><path class="cls-4" d="M1006.81,236.46l-6.72.84,8.24,23.8H991.47l-2.9-22.43-3,.31L985,261.1H971.41l-1.76-53.4h39.21ZM985.6,217l-.31,13.27,7.93-.53.92-11.14Z" transform="translate(-450.87 -203.7)"/><path class="cls-4" d="M1029.31,261.1h-18.62l1.76-53.4h13Z" transform="translate(-450.87 -203.7)"/><path class="cls-4" d="M1030.15,207.7h18.61l2,35.17,5.42-1.91,2.21-33.26h16.93l-9.84,53.4h-23.72Z" transform="translate(-450.87 -203.7)"/><path class="cls-4" d="M1111.3,246.45l1.07,14.65h-36.16l1.76-53.4h30.43l1.07,14.65h-17.54l.23,7.48,13.81-.69.76,11-14.27.69.15,6.94Z" transform="translate(-450.87 -203.7)"/><path class="cls-4" d="M1150.74,236.46l-6.72.84,8.24,23.8h-16.85l-2.9-22.43-3,.31-.62,22.12h-13.58l-1.75-53.4h39.2ZM1129.54,217l-.32,13.27,7.94-.53.92-11.14Z" transform="translate(-450.87 -203.7)"/><path class="cls-4" d="M1214.43,207.7l-1.14,16.18h-10.38l-2.29,37.22h-13.34l-1.83-37.22h-11.07l-.53-16.18Z" transform="translate(-450.87 -203.7)"/><path class="cls-4" d="M1259.89,261.1h-44.55l1.76-53.4h39Zm-29.36-15.79,11.44,2.82,1.44-25.09-12.2-3Z" transform="translate(-450.87 -203.7)"/><path class="cls-4" d="M1321.52,207.7l-1.14,16.18H1310l-2.29,37.22h-13.35l-1.83-37.22h-11.06l-.54-16.18Z" transform="translate(-450.87 -203.7)"/><path class="cls-4" d="M1324.19,207.7h13.58l.61,21.29,12.35.91,1.23-22.2h11.21l3.82,53.4h-18l1-18.15L1338.76,244l.46,17.09h-16.79Z" transform="translate(-450.87 -203.7)"/><path class="cls-4" d="M1403.9,222.35h-18.69l-.22,7.4,13.57-.69.77,11-14.65.68-.23,7.78,17.78-2.06-1.07,14.65h-30.59l-1.76-53.4H1405Z" transform="translate(-450.87 -203.7)"/><path class="cls-4" d="M1467.59,207.7l-1.14,17.09-26.77-3.13,25.86,15.64-.69,8.7-1.07,15.1h-36l-.61-17.85,25.7,1.91L1426.63,227l-.23-6.94L1426,207.7Z" transform="translate(-450.87 -203.7)"/><path class="cls-4" d="M1504.51,246.45l1.07,14.65h-36.16l1.76-53.4h30.44l1.06,14.65h-17.54l.23,7.48,13.81-.69.76,11-14.27.69.15,6.94Z" transform="translate(-450.87 -203.7)"/><path class="cls-4" d="M1506.8,207.7h44.55l-3.82,53.4h-11.21l-.69-11.9-13.19,2-.31,9.92h-13.57Zm28.3,30.82L1534,219.76l-10.83.83-.45,17.78Z" transform="translate(-450.87 -203.7)"/><path class="cls-4" d="M725.89,368.85l-57.08,5.49L672.68,420h-48.1l4.69-142.68h89.89Zm-40-65.22-19.57,2.44.83,32.21,26.9,1.83Z" transform="translate(-450.87 -203.7)"/><path class="cls-4" d="M730.77,277.33h119L839.61,420h-30l-1.85-31.8-35.26,5.31L771.74,420H735.46Zm75.62,82.35-2.85-50.14-28.95,2.24-1.21,47.49Z" transform="translate(-450.87 -203.7)"/><path class="cls-4" d="M945.4,371.09,949.68,420h-95l4.69-142.68h45l-3.88,97.23Z" transform="translate(-450.87 -203.7)"/><path class="cls-4" d="M1046.7,316.47H996.76l-.6,19.77,36.28-1.84,2,29.36-39.15,1.83-.61,20.78,47.5-5.49L1039.37,420H957.63l-4.69-142.68h96.62Z" transform="translate(-450.87 -203.7)"/><path class="cls-4" d="M1160.23,379.85l3.06,40.16H1052l1.43-47.69,80.73,5.71-79.3-41.79,1-34.65.81-24.26h96.2l3.27,42.61-57.49-5.51,59.93,42Z" transform="translate(-450.87 -203.7)"/><path class="cls-4" d="M1274,277.33l-3.06,43.21h-27.71L1237.06,420h-35.67l-4.89-99.47h-29.56l-1.42-43.21Z" transform="translate(-450.87 -203.7)"/><path class="cls-4" d="M1326.13,420h-49.75l4.7-142.68h34.65Z" transform="translate(-450.87 -203.7)"/><path class="cls-4" d="M1401.75,277.33h48.1L1439.65,420H1413l-36.29-88.88-2.44,1L1371.78,420H1335.5l-4.69-142.68H1382l26.09,81.32Z" transform="translate(-450.87 -203.7)"/><path class="cls-4" d="M1548.5,380.88l2.85,39.13h-96.62l4.69-142.68h81.33l2.85,39.14h-46.87l.61,20,36.89-1.84,2,29.36-38.11,1.83.39,18.56Z" transform="translate(-450.87 -203.7)"/><path class="cls-4" d="M667.7,439.57l5.9,75.27,12.65-75.27h14l11.13,77.64H716l8.61-77.64h33.25L736.21,557.7H711.39l-22.94-51-9.11,51H656.56L630.9,439.57Z" transform="translate(-450.87 -203.7)"/><path class="cls-4" d="M801.69,557.7H760.5l3.89-118.13h28.69Z" transform="translate(-450.87 -203.7)"/><path class="cls-4" d="M842.35,523,884.21,516l-3.05,41.67H809.45l-3.89-118.13h43.71Z" transform="translate(-450.87 -203.7)"/><path class="cls-4" d="M961.32,517.21l3.54,40.49H886.22l3.88-118.13h37.3l-3.21,80.51Z" transform="translate(-450.87 -203.7)"/><path class="cls-4" d="M1094.12,486.49l-23.46,12.15,20.93,9.45-3.54,49.61H1016l-3.88-118.13h85.39Zm-25.31-24.81-25.31-1.51,2.71,26.15,18.55-2.2Zm-4,75.6,2.2-23.45H1043.5l2.53,24.31Z" transform="translate(-450.87 -203.7)"/><path class="cls-4" d="M1177.15,525.31l2.36,32.39h-80l3.88-118.13h67.34L1173.1,472h-38.81l.51,16.54,30.54-1.53L1167,511.3l-31.56,1.51.33,15.37Z" transform="translate(-450.87 -203.7)"/><path class="cls-4" d="M1300.5,472h-34.25l-.85,19.41,23.63-1.18,2.69,28.18-27.83,1L1262,557.7h-31.39l-3.89-118.13h76.11Z" transform="translate(-450.87 -203.7)"/><path class="cls-4" d="M1354.5,557.7l-9.11-49.43-8.61,1,4,48.43h-35.95l3.89-118.13h74.42l4.72,63.63-16.7,2,20.41,52.48Zm-14.34-94.84-.69,26.67,17.56-1.18,2-27.68Z" transform="translate(-450.87 -203.7)"/><path class="cls-4" d="M1473.3,472H1432l-.49,16.37,30-1.52,1.69,24.31-32.41,1.51-.51,17.2,39.33-4.54-2.36,32.39h-67.67l-3.89-118.13h80Z" transform="translate(-450.87 -203.7)"/><path class="cls-4" d="M1555.32,525.31l2.36,32.39h-80l3.89-118.13h67.33l2.37,32.41h-38.81l.5,16.54,30.55-1.53,1.69,24.31-31.56,1.51.33,15.37Z" transform="translate(-450.87 -203.7)"/></svg>