<?xml version="1.0" encoding="utf-8"?>
<!-- Generator: Adobe Illustrator 24.1.1, SVG Export Plug-In . SVG Version: 6.00 Build 0)  -->
<svg version="1.1"
	 id="svg1" xmlns:cc="http://creativecommons.org/ns#" xmlns:dc="http://purl.org/dc/elements/1.1/" xmlns:rdf="http://www.w3.org/1999/02/22-rdf-syntax-ns#" xmlns:svg="http://www.w3.org/2000/svg"
	 xmlns="http://www.w3.org/2000/svg" xmlns:xlink="http://www.w3.org/1999/xlink" x="0px" y="0px" viewBox="0 0 3415.8 501.9"
	 style="enable-background:new 0 0 3415.8 501.9;" xml:space="preserve">
<path d="M591,501.2l4.5-1.8c9.9-4,30.8-18.5,40.1-27.7c11.4-11.4,15-20.4,18.7-47c2.9-21,5.3-28.1,11.6-35.3l4.8-5.5l8.9,0.1
	c11.8,0.1,19.5-0.8,19.2-2.4c-0.4-1.6-7-2.4-19.2-2.5l-9.8,0l-4.2-5.1c-5.5-6.7-8.7-16.1-10.9-32.4c-3.3-24.8-5.7-32.9-12.6-42.9
	c-1.5-2.2-5.9-6.8-9.8-10.3c-12.2-11.1-39.4-28-40.7-25.3c-0.7,1.5,4.6,27.4,8.5,41.3c7.5,26.8,12.6,36,28.5,52
	c12,12.1,17.8,16.3,30,22c3.6,1.7,6.3,3.2,6.1,3.4c-0.2,0.2-3.3,1.7-6.9,3.4c-19.9,9.4-40.5,29.8-49.1,48.8
	c-5.9,13-13,38.6-16.4,59.3L591,501.2z"/>
<path d="M709.7,500.2c1.5,3,31.1-16.1,42.7-27.6c13.4-13.2,15.7-18.8,20.3-50.4c2.7-18.5,5.3-26.2,11-33.2l4.2-5.1l8.3,0
	c11.6,0,20.3-1,20.7-2.4c0.4-1.6-7.4-2.6-19.2-2.5l-9,0.1l-4.8-5.5c-6.3-7.2-8.5-14.1-11.7-36.3c-2.6-18.3-4.9-26.9-9.3-34.5
	c-3.6-6.3-14.5-17.2-23.6-23.6c-10.6-7.5-21.6-14.1-26.3-15.9l-4-1.5l1.3,7.9c4.1,24.3,12.9,53.7,19.9,66.2c2.8,5,6.5,9.7,14,17.8
	c11.4,12.2,19.7,18.6,31.6,24.2c3.6,1.7,6.7,3.2,6.9,3.4c0.2,0.2-2.5,1.7-6.1,3.4c-12,5.6-18,10-29.7,21.7
	c-15.7,15.7-21.6,26.4-28.8,52.4C714.3,472.8,709,498.8,709.7,500.2z"/>
<path d="M827.4,501.4l5.7-2.6c15.6-7.1,39.8-26,46.5-36.2c5-7.6,8-17.9,10.6-35.9c3.2-22.5,5.6-30.1,11.9-37.2l4.8-5.5l8.9,0.1
	c11.8,0.1,19.5-0.8,19.2-2.4c-0.4-1.6-7-2.4-19.2-2.5l-9.8,0l-4-4.9c-5.7-6.9-8.6-15.4-11-32.7c-3.7-26-5.6-32.7-12.7-42.9
	c-4.2-6-14.9-15.4-27.1-23.6c-11.3-7.6-22.4-13.5-23.5-12.5c-0.8,0.8,5.2,29.9,8.9,43.2c7,24.9,16.2,40.7,32.1,55
	c8.4,7.5,18.5,14.3,27.5,18.3c2.8,1.2,4.8,2.4,4.6,2.6c-0.2,0.2-3.3,1.8-6.9,3.5c-11.6,5.4-20.3,12-31.3,23.8
	c-12.6,13.4-17.1,21-23.2,39.8c-4.5,13.6-10.8,39.9-11.6,48.3L827.4,501.4z"/>
<path d="M591.6,240.4c1.2,1.2,10.2-3.6,23.1-12.1c11.4-7.5,13.9-9.7,21.8-18c8.8-9.4,9-9.6,12.1-18.3c1.7-5,4.1-16.2,5.4-25.6
	c3-21.3,6-30.7,12-37.3l4.4-4.9l12.1-0.1c12.8-0.1,16.7-0.7,16.2-2.5c-0.3-1.3-12.7-2.5-21.8-2.2l-6.5,0.2l-4.5-5
	c-6.1-6.8-9.1-16.1-12-37.3c-2.4-16.8-5.5-28.5-9.2-34.5c-4.6-7.4-17.6-19.3-30.6-27.9c-12.6-8.4-21-12.8-22.4-11.7
	c-1,0.8,4.5,28.1,8.5,42.2c6.9,24.2,14.4,37.8,28.5,52c8.7,8.7,18.7,15.9,28.9,20.8l7.6,3.6l-7.6,3.6c-10.2,4.9-20.2,12.1-28.9,20.8
	c-14.2,14.2-21.6,27.8-28.5,51.9C596.5,211.5,590.7,239.5,591.6,240.4z"/>
<path d="M945.8,500.6c0.9,0.9,12.1-5,23.5-12.5c7.9-5.2,13.4-9.6,19.3-15.4c13.4-13.2,15.9-19.5,20.4-51c2.4-17.3,5.3-25.9,11-32.8
	l4.1-4.9l8.3,0c11.6,0,20.3-1,20.7-2.4c0.4-1.6-7.4-2.6-19.2-2.5l-9,0.1l-4.8-5.5c-6.2-7.1-8.6-14.7-11.8-37
	c-2.5-17.7-4.8-26.3-9.2-33.8c-3.6-6.3-14.5-17.2-23.6-23.6c-10.6-7.5-21.6-14.1-26.3-15.9l-4-1.6l2.1,11.3
	c4.6,25.6,12.1,50,19.2,62.9c2.7,5,6.4,9.6,13.9,17.7c11.4,12.2,19.7,18.6,31.6,24.2c3.6,1.7,6.7,3.2,6.9,3.5
	c0.2,0.2-1.9,1.4-4.6,2.6c-9,4-19.1,10.8-27.5,18.3c-15.9,14.3-25.1,30.1-32.2,55.3C951.1,470.5,945,499.8,945.8,500.6z"/>
<path d="M709.4,242.1c2.7,0,32-19.2,40.1-26.3c14.1-12.4,18.8-22.5,22.5-48.9c2.9-20.3,4.4-26.3,8.7-33.6c4.4-7.4,7.4-9.3,14.3-9.1
	c7.4,0.1,20.6-1,21.5-1.9c1.7-1.7-2.3-2.6-14.4-3c-8.2-0.3-14.1-1-15.6-2.1c-3.4-2.3-8.8-11.7-10.7-18.5c-0.8-3.1-2.6-13.2-3.9-22.3
	c-2.5-17.6-5.7-28.6-10.4-35.7c-4.4-6.6-17.7-18.4-29.6-26.3c-11.8-7.8-22.4-13.3-22.7-11.8c-0.1,0.5,1.4,8.8,3.3,18.5
	c4,19.8,11.9,44.8,17.2,54.1c5.8,10.3,15.3,21.4,24.8,29.1c7.7,6.2,21.2,14.4,26,15.9c2.7,0.8,2.7,1.9,0,2.7
	c-4.9,1.5-18.3,9.7-26,15.9c-9.2,7.4-18.2,17.8-24.5,28.3c-5.2,8.6-13.7,35.6-17.9,56.6C710.3,233.9,709,242.1,709.4,242.1z"/>
<path d="M1063.3,501.3l4-1.6c9.4-3.6,30.9-18.4,40.1-27.6c11.8-11.8,15.3-20.3,18.9-45.7c3.2-22.4,5.6-30,11.8-37.1l4.8-5.5l8.9,0.1
	c11.8,0.1,19.5-0.8,19.2-2.4c-0.4-1.6-7-2.4-19-2.5c-10.9,0-12.6-1-17.7-10.4c-3.7-6.8-5.1-12.2-7.8-31
	c-3.3-22.5-5.3-29.2-11.6-38.6c-3.9-5.8-16.2-16.5-28-24.4c-10.9-7.3-22.1-13.2-23.1-12.3c-0.3,0.3,1,8.5,3,18.2
	c4,19.6,10.7,41.4,16,52c9.3,18.6,29.3,37.3,49.5,46.4c2.8,1.2,4.8,2.4,4.6,2.6c-0.2,0.2-3.3,1.8-6.9,3.5
	c-11.8,5.6-20.2,12-31.6,24.2c-7.6,8.1-11.2,12.7-13.9,17.7c-7.1,12.9-14.6,37.3-19.2,62.9L1063.3,501.3z"/>
<path d="M827.8,240.4c1.1,1.1,10.3-3.7,23-12.1c11.4-7.5,13.9-9.7,21.8-18c8.8-9.4,9-9.6,12.1-18.3c1.7-5,4.1-16.2,5.5-25.6
	c3-21.3,5.9-30.2,11.9-37.2l4.5-5.1l12.1-0.1c12.8-0.1,16.7-0.7,16.3-2.5c-0.3-1.3-12.7-2.5-21.9-2.2l-6.5,0.2l-4.5-5.2
	c-6.1-7.1-9-16-12-37.7c-2.5-17.5-5.1-27.5-9-33.7c-4.7-7.6-17.6-19.4-30.7-28.1c-12.6-8.3-21-12.7-22.4-11.7
	c-1.1,0.8,4.9,30,9,43.8c6.7,22.7,12.2,33.1,25,47c10.6,11.4,19.7,18.4,31.9,24.2l7.6,3.6l-7.6,3.6c-12.2,5.8-21.3,12.7-31.9,24.2
	c-13.1,14.2-19,25.5-25.6,49.1C832.5,212.5,826.9,239.6,827.8,240.4z"/>
<path d="M1182,500.6c1,1,12.1-4.9,23.1-12.3c28.4-19,35-29.2,39.3-60.5c1.2-8.5,2.7-18,3.5-21.2c1.7-7,6.2-16,10-19.8
	c2.5-2.5,3.8-2.8,10.9-2.8c11.4,0,20.1-1,20.5-2.4c0.4-1.6-7.4-2.6-19.2-2.5l-9,0.1l-4.5-5c-6.2-7-8.8-14.7-12-36.4
	c-2.8-19-5.2-28-9.4-35.1c-4.2-7.2-19.4-21-32.2-29.2c-11.7-7.5-21-12.2-21.3-10.6c-0.4,1.6,5.6,30.3,8.7,41.2
	c3.4,12.1,8.8,26,13,33.5c4.1,7.3,19.7,24,28.2,30.5c3.7,2.8,10.5,6.9,15.1,9.2c4.6,2.3,8.4,4.3,8.5,4.4c0.1,0.1-2,1.3-4.8,2.5
	c-20.1,9-40.3,27.9-49.6,46.4c-5.1,10.2-12.1,33-16.1,52.6C1183,492.4,1181.7,500.3,1182,500.6z"/>
<path d="M945.2,241.6l4.8-2.1c7.6-3.3,28-17,36.3-24.4c14.3-12.7,18.4-22.3,22.4-51.8c2.3-16.9,4.7-25,9.4-31.9
	c4.1-6,6.5-7.3,13.1-7.2c7.3,0.1,20.6-1,21.4-1.9c1.7-1.7-2.2-2.6-14.1-2.9c-7.1-0.2-13.9-0.9-15-1.5c-3-1.5-8.1-9.4-10.5-16.2
	c-1.2-3.2-3.2-13.7-4.6-23.4c-2.8-19.6-5.1-28.3-9.7-36c-6.3-10.6-33.1-31.8-48.7-38.6l-4.8-2.1l0.9,6c3.4,22.3,12.2,52.8,19,65.8
	c5.6,10.6,15.3,22.4,25.6,30.8c7.6,6.2,21.1,14.5,26,16c2.7,0.8,2.7,1.9,0,2.7c-4.9,1.5-18.4,9.8-26,16c-10.3,8.4-20,20.1-25.6,30.8
	c-6.7,12.8-14.8,40.5-18.7,64L945.2,241.6z"/>
<path d="M1300,500.6c2.3,1.7,28.3-14.7,40.1-25.4c15-13.7,18.4-21,22.6-49.9c3.2-21.7,5.8-29.5,12-36.5l4.5-5.1l8.9,0.1
	c11.8,0.1,19.5-0.8,19.1-2.4c-0.4-1.6-7-2.4-19-2.5c-10.9,0-12.6-1-17.7-10.4c-3.7-6.8-5-12.2-7.9-32c-2.6-18.4-6-29.7-11-36.8
	c-4.6-6.6-16.4-17-28.5-25.1c-11.6-7.7-22.1-13.4-23.1-12.4c-0.4,0.4,1,8.7,3,18.5c4.1,19.8,12.6,46.8,17.5,54.9
	c10.9,18.3,29.1,34.7,47.9,43.1c2.8,1.2,4.8,2.4,4.6,2.6c-0.2,0.2-3.3,1.8-6.9,3.5c-11.9,5.6-20.2,12-31.6,24.2
	c-6.3,6.8-11.4,13-13.2,16.3c-4.3,7.6-9.7,21.7-13,33.6c-3,10.9-9,39.6-8.7,41.1C1299.9,500.5,1299.9,500.6,1300,500.6z"/>
<path d="M1063.7,240.9c0.7,0.7,8.4-3.1,16.6-8.2c13.8-8.6,19.8-13.1,27.8-21.2c12.2-12.2,14.6-18.5,19-49.4
	c2.6-18.3,5.3-26.2,11.3-33.1l4.4-5.1l6.5,0.2c9.1,0.3,21.6-0.9,21.9-2.2c0.4-1.8-3.4-2.4-16.3-2.5l-12.1-0.1l-4.4-5
	c-6-6.8-8.7-14.7-11.3-33c-4-28.1-6.1-34.5-14.3-44.4c-2.6-3.2-5.7-6.5-6.8-7.4c-1.1-0.9-4.1-3.4-6.7-5.6
	c-9.2-7.8-32.4-22-34.8-21.4c-2.1,0.5,7,41.2,12.8,57c5.2,14,10.7,23.2,20.3,33.8c10,10.9,21.4,19.6,33.1,25l7.4,3.4l-7.4,3.4
	c-11.7,5.4-23.1,14.1-33.1,25c-13.6,14.9-20.1,28.5-27,56.5C1067,220.8,1063.2,240.3,1063.7,240.9z"/>
<path d="M1418.2,500.6c1,1,12.4-5.2,23-12.4c28.8-19.4,34.7-28.7,39.5-61.9c2.8-19.8,4.2-25.2,7.9-32c5-9.1,7.1-10.4,16.3-10.4
	c11.4,0,20.1-1,20.5-2.4c0.4-1.6-7.4-2.6-19.2-2.5l-9,0.1l-4.5-5c-6.1-6.9-8.8-14.8-11.6-34.5c-2.8-19.6-4.6-27.2-8.1-33.7
	c-1.5-2.8-2.9-5.5-3.2-6c-0.3-0.5-4-4.5-8.2-8.8c-5.8-5.9-10.8-9.8-20-16c-10.5-7-22.9-13.8-23.7-13c-0.5,0.5,5.3,28.5,8.1,39.3
	c6.8,26,14.5,40.6,29.4,55.4c9.6,9.6,17.7,15.5,28.4,20.8c4,2,7.5,3.8,7.6,3.9c0.1,0.1-2,1.3-4.7,2.5c-18.8,8.4-37.2,25-47.9,43.2
	c-3.8,6.4-10.5,25.2-13.9,38.8C1421.6,479,1417.6,500,1418.2,500.6z"/>
<path d="M1181.4,241.7l5.8-2.6c8.7-4,26.9-16.3,35.3-23.9c13.8-12.4,18.2-21.9,21.6-46.3c3.7-26.1,6-33.5,12.8-40.6l4-4.2l9.4-0.1
	c10.9-0.2,17.6-0.8,18.6-1.7c1.7-1.7-2.4-2.6-14.7-2.9l-13.5-0.4l-3.9-4.1c-6.7-7-9-14.5-12.7-40.5c-2.2-15.4-5.5-26.8-9.8-33.4l0,0
	c-6.6-10.1-31.8-29.7-47.2-36.7l-5.8-2.6l1.7,9.5c4.3,24.4,11,47.6,18,61.5c8,16.1,24.8,33.2,41.9,42.6c4.4,2.4,8.9,4.7,10.1,5
	c2.7,0.8,2.7,1.9,0,2.7c-4.9,1.5-18.3,9.7-25.7,15.7c-10.8,8.8-20.8,20.9-26.2,31.8c-6.9,13.9-13.7,37.2-18,61.6L1181.4,241.7z"/>
<path d="M1535.7,501.1l2.9-0.9c4-1.2,17.3-9.3,27.7-16.7c6-4.3,10.8-8.5,16.1-14.3c11.1-12.1,13.1-17.6,17.3-48.6
	c2.3-16.7,5.2-24.9,11.2-31.7l4.5-5.1l8.9,0.1c11.8,0.1,19.5-0.8,19.1-2.4c-0.4-1.6-7.3-2.5-18.4-2.4c-10.4,0.1-12.8-1.2-17.7-9.5
	c-4-6.8-5.8-13.7-8.8-34.5c-2.4-16.6-5.7-27.6-10.4-34.8c-4.2-6.4-17-17.7-28.8-25.5c-11.3-7.4-22.1-13.3-22.9-12.4
	c-0.7,0.7,1.9,15.1,5.5,30.1c3.9,16.4,9,31.5,13.9,40.9c9.7,18.6,28.6,36.5,47.9,45.2c3.4,1.5,6,2.9,5.9,3.1c-0.2,0.2-4,2.2-8.6,4.4
	c-4.6,2.3-11.3,6.4-15,9.2c-8.7,6.5-23.5,22.5-28,30.2c-7.5,12.9-14.1,33.9-19.5,61.6L1535.7,501.1z"/>
<path d="M1300.4,240.7c0,0.1,0.1,0.2,0.2,0.2c2.7,0.6,25-13.1,36.5-22.5c7.8-6.4,15.7-15.7,18.7-22c3.1-6.5,4.5-12.8,7.2-31.7
	c3-20.8,5.5-28.5,11.7-35.6l4.4-5.1l6.5,0.2c9.5,0.4,21.4-0.9,22.9-2.4c1.1-1.1,0.6-1.4-3.6-1.7c-2.7-0.2-9.6-0.5-15.4-0.5
	l-10.5-0.1l-4.4-5c-6.1-7-8.7-14.8-11.6-35.5c-3.7-25.7-5.6-31.5-13.6-41.6c-4.3-5.4-5.8-6.9-15.2-14.5
	c-9.7-7.9-31.1-20.8-33.5-20.2c-1.2,0.3,3.4,24.2,7.6,39.9c6.7,24.7,12.9,37,26.2,51.5c9.8,10.7,19.6,18,31.9,24.1l7.7,3.7l-7.7,3.7
	c-23.7,11.6-42.4,31.7-51.7,55.4C1308.7,196.1,1298.9,237.6,1300.4,240.7z"/>
<path d="M1654.5,500.7c0.9,0.9,12.7-5.5,23-12.4c20.9-14.1,29.5-23.4,34.4-37c1.4-4,3.8-15.6,5.3-25.7c2.9-19.2,4.9-26.7,8.9-33.1
	c4.8-7.7,6.3-8.6,15.2-8.5c11,0.1,20.1-1,20.4-2.4c0.4-1.6-7.4-2.6-19.2-2.5l-9,0.1l-4.5-5c-6.3-7.1-8.8-14.9-12-37
	c-2.6-18.1-5.3-28.1-9.3-34.9c-3.7-6.1-21.3-22-32.3-29.1c-8.9-5.7-20.6-11.9-21.3-11.2c-0.6,0.6,6.2,32.3,9.2,43.1
	c6.5,23.1,12.3,34.2,25.3,48.3c11.8,12.8,19,18,37.8,27.5c1.4,0.7,0.7,1.2-4.6,3.7c-13.9,6.5-28.9,18.4-38.2,30.4
	c-10.5,13.5-17.4,29.7-23.6,55.8C1656.6,485,1653.8,500.1,1654.5,500.7z"/>
<path d="M1417.6,241.7l5.8-2.6c8.7-4,27-16.3,35.4-23.9c14.1-12.7,18-21.5,22.1-49.3c3.2-21.9,6.2-30.9,12.1-37.2l4.2-4.5l9.4-0.1
	c10.9-0.2,17.6-0.8,18.5-1.7c1.7-1.7-2.3-2.6-14.7-2.9L1497,119l-4.1-4.4c-5.8-6.2-8.8-15.4-12-37.1c-2.7-18.3-5.9-29.7-10.3-36.4
	c-6.6-10.1-31.8-29.7-47.2-36.7l-5.8-2.6l2,11.3c4.1,22.6,10.5,44.8,16.5,57.6c8.8,18.6,29.2,38.6,48.8,47.8
	c3.5,1.6,6.4,3.1,6.4,3.4c0,0.2-2.3,1.4-5.2,2.7c-19.6,8.8-39.6,27.7-48.9,46.2c-6.8,13.5-13.2,35.3-17.6,59.7L1417.6,241.7z"/>
<path d="M1772.2,501c0.8,0.8,12.7-5.7,23.6-12.9c13.3-8.8,25-19.4,29.7-27c4.4-7,7.1-16.8,9.7-35.3c3.1-21.9,5.6-29.7,11.9-36.8
	l4.5-5.1l8.9,0.1c11.8,0.1,19.5-0.8,19.1-2.4c-0.4-1.6-7.3-2.5-18.7-2.4l-9.2,0.1l-4.3-4.5c-6.1-6.2-9.1-15.6-12.4-37.7
	c-2.9-19.9-5.2-28-10.1-35.7c-4.6-7.3-16.3-17.9-29.4-26.6c-11.3-7.4-22.1-13.3-23-12.4c-1.4,1.4,6.6,37,11.9,52.9
	c9.5,28.6,29.5,51.5,55.4,63.3c3.4,1.5,6,2.9,5.9,3.1s-4,2.2-8.6,4.4c-11.7,5.8-20.2,12.5-30.7,24c-12.7,13.9-18.6,25.1-25,48
	C1778.3,468.7,1771.6,500.4,1772.2,501z"/>
<path d="M1536.7,240.8c1.7,0.4,12.2-5.3,23.8-13c8.2-5.4,13.2-9.4,19.2-15.5c13.1-13.1,15.7-19.6,19.6-48.6
	c2.6-19,5.5-27.9,11.5-34.9l4.4-5l6.5,0.2c9.1,0.3,21.6-0.9,21.9-2.2c0.4-1.8-3.4-2.4-16.3-2.5l-12.1-0.1l-4.3-4.9
	c-6-6.8-8.9-15.7-11.5-34.6c-3.4-24.9-5.8-32.5-13.4-42.2c-2.2-2.8-6.6-7.4-9.7-10.1c-10.5-9.2-36.4-25.6-39.5-24.9
	c-1.2,0.3,4.7,29.8,8.7,43.6c3.7,12.8,8.9,25.6,13.2,32.7c9.1,14.9,26.9,30.8,43.8,39.1l7.7,3.7l-7.7,3.7
	c-16.8,8.2-34.7,24.1-43.8,39.1c-4.4,7.2-9.6,20-13.2,32.7C1541.3,211.5,1535.5,240.6,1536.7,240.8z"/>
<path d="M1890.8,500.8c1.5,1.6,29.1-15.7,39.9-25.1c14-12.1,18.9-23,22.8-50.8c2.9-20.9,6.1-30.3,12.2-36.6l4.4-4.5l7.7,0.2
	c10.2,0.2,19.6-0.9,20-2.4c0.4-1.6-7.4-2.6-19.2-2.5l-9,0.1l-4.6-5.3c-6.2-7.2-8.5-14.3-11.7-36.7c-2.6-17.8-5.4-28.2-9.4-34.9
	c-3.7-6.1-21.3-22-32.3-29.1c-9-5.8-20.6-11.9-21.4-11.2c-0.5,0.5,6.5,33.5,9.1,42.9c2.8,10.1,7.4,22.3,11.2,29.5
	c8.6,16.5,29.7,36.2,47.5,44.2c2.8,1.2,5.3,2.5,5.5,2.8c0.3,0.3-2.3,1.8-5.6,3.3c-25.8,11.7-45.9,34.6-55.4,63.3
	C1897.3,463.8,1889.4,499.3,1890.8,500.8z"/>
<path d="M1654,241.6l5.9-2.7c15.1-6.9,38.9-25.2,45.9-35.4c5.1-7.5,8.9-20,11.5-38.5c1.3-9.1,3.2-19.3,4.3-22.6
	c2.2-6.7,7.3-14.7,10.5-16.6c1.2-0.7,7.9-1.4,15-1.7c7.1-0.2,13.3-0.8,13.8-1.4c2-2-1.4-2.8-13.8-3.2c-7.1-0.2-13.9-1-15-1.7
	c-3.3-1.9-8.3-9.9-10.5-16.6c-1.1-3.3-3.1-13.5-4.3-22.6c-2.6-18-5.3-28.2-9.5-35.7c-5.8-10.4-31.2-30.7-47.9-38.3l-5.9-2.7
	l1.9,11.2c5.2,30,13.5,55,22.8,68.7c9.4,13.9,28,29.9,42.5,36.7c3.5,1.6,6.3,3.1,6.3,3.3c0,0.2-2.9,1.7-6.3,3.3
	c-20.3,9.5-41.5,30.8-49.8,49.9c-6.6,15.3-13.5,41.1-16.8,63.2L1654,241.6z"/>
<path d="M2008.4,501.1c0.1,0.1,2.8-0.9,5.8-2.3c10-4.6,24.8-14.8,35-24.1c15.5-14.3,18.3-20.4,22.4-50.2
	c2.9-20.8,5.3-28.2,11.5-35.3l4.6-5.3l8.9,0.1c11.8,0.1,19.5-0.8,19.2-2.4c-0.4-1.6-7.3-2.5-18.7-2.4l-9.2,0.1l-4.3-4.5
	c-6-6.2-9.2-15.7-12.1-36.5c-2.7-19.2-5.5-29.1-10.3-36.8l0,0c-4.7-7.4-17-18.6-29.9-27c-10.8-7.1-21.7-12.9-22.5-12.1
	c-1.4,1.4,6.6,37.3,11.8,52.9c9.5,28.5,29.7,51.6,55.5,63.3c5.6,2.5,6.1,2.9,4.6,3.7c-17.5,8.9-24.4,13.6-34.6,23.8
	c-14.7,14.7-21.4,26.8-28.4,51.5C2015.1,466.8,2007.8,500.5,2008.4,501.1z"/>
<path d="M1772.8,240.7c0,0.1,0.1,0.1,0.2,0.2c1.6,0.4,12.4-5.5,23.7-13c7.8-5.2,13.4-9.6,18.9-15.1c12.9-12.8,15.9-20.1,19.9-48.5
	c2.8-20.2,5.5-28.4,11.5-35.3l4.4-5l6.5,0.2c9.1,0.3,21.6-0.9,21.9-2.2c0.4-1.8-3.4-2.4-16.3-2.5l-12.1-0.1l-4.3-4.9
	c-6-6.8-8.7-15-11.5-35.2c-3.4-23.9-5.9-31.9-13.4-41.6c-1.9-2.4-6.1-6.8-9.4-9.7c-10.9-9.7-36.7-26-39.8-25.2
	c-1.7,0.4,6.1,35.8,11.6,52c7.2,21.5,10.6,27.1,24.9,41.6c12,12.2,18.9,17.2,31.2,22.8l6,2.7l-6,2.7c-12.3,5.6-19.2,10.6-31.2,22.8
	c-13.6,13.8-17.4,19.8-23.6,37.6C1779.5,202.8,1771.3,238.1,1772.8,240.7z"/>
<path d="M2126.9,500.8c1.6,1.6,28.6-15.2,39.6-24.8c14.4-12.5,19.2-23.1,23.2-51.1c2.9-20.9,6.1-30.3,12.2-36.6l4.4-4.5l7.7,0.2
	c10.2,0.2,19.6-0.9,20-2.4c0.4-1.6-7.6-2.6-19.1-2.4l-8.9,0.1l-4.5-5.2c-6.1-7.1-8.7-14.9-11.6-35.4c-2.7-19.2-5-28-8.9-35
	c-4-7.1-20.4-22.5-31.7-29.8c-9.2-5.9-20-11.8-21.8-11.8c-1.9-0.1,5.6,33.9,11.1,50.8c7.5,22.8,10.8,28.4,25.9,43.4
	c12.7,12.7,21.5,19,32.2,23.1c2.4,0.9,4.3,1.8,4.2,1.9c-0.1,0.1-3,1.5-6.5,3.1c-13.6,6.1-27.7,17.3-37.8,29.8
	c-9.8,12.2-16.4,26.3-21.8,46.8C2132,471.7,2126.3,500.2,2126.9,500.8z"/>
<path d="M1890,241.7l5.8-2.7c15.8-7.2,40-25.9,46.7-36.2c4.9-7.5,8.4-19.6,11-37.9c3.1-21.9,5.1-28,11.6-35.2l5-5.6l13-0.2
	c12.4-0.2,16.1-1,14-3.1c-0.5-0.5-6.9-1.1-14.2-1.4l-13.3-0.4l-4.5-5c-6.2-6.9-8.8-14.9-11.7-35.3c-2.6-18.3-5.3-28.4-9.6-35.9l0,0
	c-3.7-6.5-13.8-16.5-23.3-23.3c-9-6.4-22.2-14.4-27.2-16.5l-3.4-1.4l2.7,14.2c5.8,30.1,13.1,52,21.9,65.3
	c9.1,13.8,28.1,30.4,42.8,37.2c3.5,1.6,6.3,3.1,6.3,3.3c0,0.2-2.9,1.7-6.3,3.3c-14.7,6.9-33.7,23.4-42.8,37.2
	c-8.8,13.3-16.1,35.2-21.9,65.3L1890,241.7z"/>
<path d="M2244.2,501.3l4.2-1.7c10.5-4.1,29.9-17.5,39.9-27.5c12.7-12.7,15.5-19.6,19.5-47.8c2.9-20.4,5.5-28.3,11.6-35.4l4.5-5.2
	l8.9,0.1c11.8,0.1,19.5-0.8,19.2-2.4c-0.4-1.6-7.3-2.5-18.7-2.4l-9.2,0.1l-4.4-4.6c-6.1-6.4-9.1-15.6-12-36.4
	c-2.4-17.4-6.2-31-10.5-37.5c-3.8-5.8-17.4-18-27.9-25.1c-10.2-6.9-23.5-14.1-24.4-13.2c-0.6,0.6,4.8,27.6,7.9,39.8
	c2.5,9.9,8.2,25.1,12.1,32.5c9,17.1,29,35.6,47.3,43.9c3.3,1.5,5.9,2.9,5.8,3.1c-0.2,0.2-3.4,1.8-7.2,3.7
	c-17.9,8.9-35.8,25.4-44.8,41.2c-6,10.5-14.1,35.8-18.4,57.2L2244.2,501.3z"/>
<path d="M2009.1,240.8c3.9,0.9,31.8-17.4,42.6-28.1c12.9-12.6,15.5-18.9,19.6-46.1c1.5-9.8,3.2-19.8,3.9-22.3
	c1.6-5.9,5.9-13.7,9.7-17.5c2.7-2.7,3.7-3,9.3-2.8c9,0.3,21.4-0.9,21.7-2.2c0.4-1.8-3.4-2.4-16.2-2.6c-11.1-0.2-12.3-0.4-15-3.1
	c-3.7-3.7-8-11.5-9.5-17.3c-0.7-2.5-2.4-12.5-3.8-22.3c-2.9-19.8-6.3-30.5-11.9-38c-5.2-6.8-14.6-15-27-23.4
	c-10.5-7.1-21.6-13.2-23.3-12.8c-1.9,0.4,5.6,34.8,11.5,52.5c2,5.9,5.1,13.8,7,17.6c9.3,18.6,30.3,38.2,50.1,46.8l5.1,2.2l-6,2.7
	c-12.4,5.6-19.2,10.6-31.2,22.8c-9.1,9.2-12,12.8-15.3,18.5c-4.3,7.4-11.2,25.8-14.2,37.9C2012.3,218.2,2008.2,240.6,2009.1,240.8z"
	/>
<path d="M2363.1,500.8c1.8,1.8,29.1-15.5,40.3-25.4c14.2-12.5,18.3-21.7,22.2-49.1c3.2-22.3,6.1-31.2,12.4-37.8l4.5-4.8l7,0.3
	c9.2,0.4,22.2-1.1,21.5-2.5c-0.7-1.5-16.5-3-23.3-2.3l-5.3,0.6l-4.7-5.4c-6.4-7.2-8.9-14.8-11.8-35.7c-2.9-20-4.1-24.9-8-33
	c-4.4-9-16.1-20.6-30.5-30.1c-10.5-7-21.8-13.3-24-13.4c-1,0,3,21.9,6.8,37c3,12,10,30.5,14.2,38c3.4,6,6,9.1,16.1,19.2
	c12.7,12.8,20.5,18.4,31.8,23c2.6,1.1,4.7,2,4.6,2.2c-0.1,0.1-3,1.5-6.4,3.1c-11,5-19.9,11.4-30.3,21.9
	c-14.7,14.8-21,26.1-27.8,49.8C2368.7,469.2,2362.2,500,2363.1,500.8z"/>
<path d="M2126.1,241.7l3.4-1.4c10.4-4.3,32.2-19.2,40.8-27.8c12.1-12.1,15.4-20.2,19.1-46.3c3.1-22.3,5.6-29.7,12.1-36.9l4.7-5.2
	l13-0.2c7.2-0.1,13.5-0.7,14-1.2c2.1-2.1-1.5-2.9-14-3.1l-13-0.2l-4.7-5.2c-6.5-7.2-9-14.6-12.1-36.8c-2.7-18.9-4.9-27.2-9.4-34.8
	c-3.9-6.5-18.8-20.3-29.9-27.6c-8.2-5.4-23.1-13.6-23.7-13.1c-0.5,0.5,5.3,28.6,8.1,39.3c3.4,12.9,9.2,28.3,13.5,36.1
	c4.2,7.4,21.2,25.6,29.4,31.6c3.5,2.5,9.9,6.4,14.3,8.6c4.4,2.2,8,4.2,8,4.3c0,0.1-2.9,1.6-6.4,3.3c-11.8,5.5-20.1,11.9-31.8,24.5
	c-6.7,7.2-11.7,13.3-13.6,16.7c-7.2,12.8-13.9,34.3-19.2,61.4L2126.1,241.7z"/>
<path d="M2481.6,501.1c0.1,0.1,0.1,0.1,0.2,0c0.5-0.1,3.6-1.7,7-3.4c19.9-10.3,40.6-27.6,46.7-39.1c4.4-8.3,5.8-14,8.7-34.2
	c2.9-20.6,5.4-28.4,11.6-35.4l4.5-5.2l8.2,0.1c10.2,0.2,20.4-0.8,20.4-2c0-1.7-5.9-2.7-17.2-2.7l-11.4-0.1l-4.3-4.5
	c-6-6.2-9.1-15.6-11.8-35.5c-3.2-23.2-4.9-29.3-11-38.9c-3.4-5.4-17.4-17.9-27.5-24.7c-10.1-6.7-23.5-14.1-24.3-13.3
	c-0.8,0.8,5.6,31.4,9.1,43.9c3.9,13.9,10.5,28.9,16.2,36.9c5.8,8.1,18.3,20.7,26.2,26.2c5.3,3.7,14.8,9,21.1,11.8
	c1.6,0.7,1.3,0.9-2.8,2.5c-11,4.2-19.6,10.4-32.3,23.2c-14.5,14.6-18,20.2-24.6,39.1C2487.7,463.9,2479.8,499.5,2481.6,501.1z"/>
<path d="M2245.7,240.8c0.1,0,0.1,0,0.2,0c3.3-0.8,13-6.3,22.6-12.7c28.4-19.3,34.7-29.1,39-60.8c3.3-24.2,6.3-33.1,13.5-40.4
	c2.7-2.7,3.7-3,9.3-2.8c9,0.3,21.4-0.9,21.7-2.2c0.4-1.8-3.4-2.4-16.2-2.6c-11.1-0.2-12.3-0.4-15-3.1c-7.1-7.1-10.1-16.2-13.4-40.2
	c-2.3-17-6.3-29.8-11.4-36.8c-4.9-6.7-15.1-15.6-27.6-24c-9.6-6.5-19.3-11.9-22.6-12.7c-2.3-0.5,3.4,27.7,9.6,47.9
	c7,22.7,12.4,32,27.3,46.9c10.9,10.9,18.5,16.3,30.2,21.7l6,2.7l-6,2.7c-11.5,5.2-19.3,10.8-29.8,21.3
	c-15.1,15.1-20.3,23.9-27.3,46.2C2249.6,211.8,2243.9,239.6,2245.7,240.8z"/>
<path d="M2599.3,500.8c0.8,0.8,14.3-6.5,24.8-13.5c6.9-4.6,12.2-8.9,18.5-15.2c13.2-13.2,15.4-18.3,19.5-47
	c3.1-21.5,5.9-30.1,12-36.5l4.5-4.8l7.7,0.2c12.4,0.3,22.5-1.3,20.6-3.2c-1-1-17.8-2.1-22.9-1.6l-5.3,0.6l-4.7-5.4
	c-6.2-7-8.9-15-11.4-33.5c-3.6-26.4-6.2-34.3-14.3-44.1c-6.1-7.3-11.7-12.2-23-20.1c-9.1-6.3-23.3-14.5-25.3-14.5
	c-2.3-0.1,5.9,36.7,12.3,55.1c6.6,18.9,10.1,24.5,24.6,39.1c12.7,12.8,20.5,18.4,31.8,23c2.6,1.1,4.7,2,4.6,2.2
	c-0.1,0.1-3.1,1.5-6.6,3.1c-14.3,6.5-32.3,21.6-42,35.4c-5.7,8.1-12.3,23.1-16.1,36.9C2604.8,469.7,2598.5,500.1,2599.3,500.8z"/>
<path d="M2362.6,241.5c0.1,0.1,3.5-1.4,7.5-3.5c17.6-9,37.6-24.7,44.7-35.2c5.4-8.1,8-16.6,10.9-36.6c3.4-23,5.6-30,12.1-37.2
	l4.8-5.3l5,0.3c8.1,0.4,23-0.9,23.2-2.1c0.4-1.8-2.9-2.3-16-2.5l-12.3-0.2l-4.8-5.2c-6.4-7-8.8-14.2-12-37
	c-2.7-18.9-4.9-27.1-9.4-34.6l0,0c-3.9-6.5-18.8-20.3-29.9-27.6c-8.2-5.4-23.1-13.6-23.7-13c-0.5,0.5,6.7,34.4,9.4,43.8
	c6.5,23.2,11.9,33.3,25.3,47.7c11.5,12.4,18.7,18,30.7,24c4.4,2.2,8,4.1,8,4.3c0,0.2-3.6,2.1-8,4.3c-12.1,6-19.2,11.6-30.8,24
	c-13.4,14.5-18.9,24.8-25.3,47.8C2369.3,207.4,2362.1,241,2362.6,241.5z"/>
<path d="M2717.7,500.8c0,0.1,0.1,0.1,0.1,0.1c2.1-0.1,13.6-6.5,24.1-13.6c14.2-9.4,25.2-20.2,29.8-29c4.2-8,5.8-14.3,8.6-34
	c2.9-20.7,5.4-28.4,11.5-35.4l4.5-5.2l8.2,0.1c10.2,0.2,20.4-0.8,20.4-2c0-1.7-5.8-2.7-16.6-2.7c-5.9,0-11.8-0.7-13.1-1.4
	c-3.4-2-8.1-9.5-10.6-16.6c-1.2-3.5-3.4-14.5-4.8-24.5c-2.8-19.1-5.4-28.5-10.1-35.5c-4.1-6.2-17.5-18.4-28.2-25.6
	c-9.7-6.5-23.5-14-24.3-13.1c-0.8,0.8,5.7,31.6,9.2,43.8c6.8,23.7,13.5,35.8,27.6,50.2c11,11.2,21.8,18.6,35.7,24.7
	c1.6,0.7,1.3,0.9-2.8,2.5c-11,4.2-19.6,10.4-32.3,23.2c-14.9,15-18.2,20.4-25.3,41.4C2724.4,463.2,2716.5,498.7,2717.7,500.8z"/>
<path d="M2481.5,240.9c1.6,0.4,12.8-5.8,23.2-12.8c28.6-19.3,34.4-28.5,39.1-62.6c3-21.4,6.1-30.7,12.5-37l4.6-4.6l10.6,0
	c11.1,0,17.1-0.7,17.1-2.2c0-1.5-6-2.2-17.1-2.2l-10.6,0l-4.6-4.6c-6.3-6.3-9.5-15.7-12.5-37c-2.6-18.4-6.3-31.2-11.3-38.2l0,0
	c-4.7-6.6-15.1-15.8-27.5-24.1c-10.9-7.3-22-13.5-23.7-13.1c-1.3,0.3,5.9,34.4,10.3,48.4c6.3,20.2,14.5,34.5,26.7,46.6
	c7,7,19.7,16.1,28.6,20.4l7.8,3.8l-7.8,3.8c-25.4,12.4-44.5,34.4-53.7,61.8C2488.3,202.6,2479.9,240.5,2481.5,240.9z"/>
<path d="M2598.8,241.5c0.6,0.6,15.5-7.6,23.7-13.1c11.1-7.3,24.9-19.8,29.1-26.1c4.8-7.4,7.8-18.1,10.5-36.8
	c3.1-22.2,5.5-29.3,11.8-36.2l4.8-5.2l12.3-0.2c13.1-0.2,16.5-0.7,16.1-2.5c-0.3-1.3-12.7-2.5-21.8-2.2l-6.5,0.2l-4.8-5.3
	c-6.4-7.1-8.7-14.1-11.9-36.3c-2.5-17.4-5.6-29.1-9.6-35.7l0,0c-3.4-5.6-19.9-20.7-30-27.3c-8.2-5.4-23.1-13.6-23.7-13
	c-0.5,0.5,6.8,34.3,9.4,43.6c7.6,26.6,14.5,38.4,31.9,54.6c10,9.4,19.3,15.7,28.3,19.4c2.1,0.9,3.8,1.8,3.8,2.2
	c0,0.4-1.7,1.3-3.8,2.2c-9,3.7-18.3,10-28.3,19.4c-17.4,16.2-24.3,28-31.9,54.6C2605.5,207.2,2598.3,241,2598.8,241.5z"/>
<path d="M2717.7,240.9c2.9,0.7,28-15,39.2-24.4c8.1-6.8,14.4-15.5,17.8-24.6c1.5-4,3.8-15.3,5.2-25.2c3.2-22.6,6.3-31.8,12.7-38.2
	l4.6-4.6l10.6,0c11.1,0,17.1-0.7,17.1-2.2c0-1.5-6-2.2-17.1-2.2l-10.6,0l-4.6-4.6c-6.4-6.4-9.5-15.7-12.7-38.2
	c-2.7-18.9-5.8-29.5-11.1-37l0,0c-4.6-6.6-16-16.6-28-24.6C2730.1,8,2718,1.4,2717.2,2.2c-0.5,0.5,5.2,28.9,8,39.4
	c6.4,24.8,15.6,42.2,29.9,56.4c6.6,6.6,18.9,15.2,27.9,19.7l8.1,4l-7.8,3.8c-25.4,12.4-44.6,34.4-53.7,61.8
	C2724.5,202.3,2716.1,240.5,2717.7,240.9z"/>
<path d="M2835,501.9l4.2-1.7c10.5-4.1,29.9-17.5,39.9-27.5c12.7-12.7,15.5-19.6,19.5-47.8c2.9-20.4,5.5-28.3,11.6-35.4l4.5-5.2
	l8.9,0.1c11.8,0.1,19.5-0.8,19.2-2.4c-0.4-1.6-7.3-2.5-18.7-2.4l-9.2,0.1l-4.4-4.6c-6.1-6.4-9.1-15.6-12-36.4
	c-2.4-17.4-6.2-31-10.5-37.5c-3.8-5.8-17.4-18-27.9-25.1c-10.2-6.9-23.5-14.1-24.4-13.2c-0.6,0.6,4.8,27.6,7.9,39.8
	c2.5,9.9,8.2,25.1,12.1,32.5c9,17.1,29,35.6,47.3,43.9c3.3,1.5,5.9,2.9,5.8,3.1c-0.2,0.2-3.4,1.8-7.2,3.7
	c-17.9,8.9-35.8,25.4-44.8,41.2c-6,10.5-14.1,35.8-18.4,57.2L2835,501.9z"/>
<path d="M2953.8,501.4c1.8,1.8,29.1-15.5,40.3-25.4c14.2-12.5,18.3-21.7,22.2-49.1c3.2-22.3,6.1-31.2,12.4-37.8l4.5-4.8l7,0.3
	c9.2,0.4,22.2-1.1,21.5-2.5c-0.7-1.5-16.5-3-23.3-2.3l-5.3,0.6l-4.7-5.4c-6.4-7.2-8.9-14.8-11.8-35.7c-2.9-20-4.1-24.9-8-33
	c-4.4-9-16.1-20.6-30.5-30.1c-10.5-7-21.8-13.3-24-13.4c-1,0,3,21.9,6.8,37c3,12,10,30.5,14.2,38c3.4,6,6,9.1,16.1,19.2
	c12.7,12.8,20.5,18.4,31.8,23c2.6,1.1,4.7,2,4.6,2.2c-0.1,0.1-3,1.5-6.4,3.1c-11,5-19.9,11.4-30.3,21.9
	c-14.7,14.8-21,26.1-27.8,49.8C2959.5,469.8,2953,500.6,2953.8,501.4z"/>
<path d="M3072.3,501.7c0.1,0.1,0.1,0.1,0.2,0c0.5-0.1,3.6-1.7,7-3.4c19.9-10.3,40.6-27.6,46.7-39.1c4.4-8.3,5.8-14,8.7-34.2
	c2.9-20.6,5.4-28.4,11.6-35.4l4.5-5.2l8.2,0.1c10.2,0.2,20.4-0.8,20.4-2c0-1.7-5.9-2.7-17.2-2.7l-11.4-0.1l-4.3-4.5
	c-6-6.2-9.1-15.6-11.8-35.5c-3.2-23.2-4.9-29.3-11-38.9c-3.4-5.4-17.4-17.9-27.5-24.7c-10.1-6.7-23.5-14.1-24.3-13.3
	c-0.8,0.8,5.6,31.4,9.1,43.9c3.9,13.9,10.5,28.9,16.2,36.9c5.8,8.1,18.3,20.7,26.2,26.2c5.3,3.7,14.8,9,21.1,11.8
	c1.6,0.7,1.3,0.9-2.8,2.5c-11,4.2-19.6,10.4-32.3,23.2c-14.5,14.6-18,20.2-24.6,39.1C3078.5,464.5,3070.6,500.1,3072.3,501.7z"/>
<path d="M2836.5,241.4c0.1,0,0.1,0,0.2,0c3.3-0.8,13-6.3,22.6-12.7c28.4-19.3,34.7-29.1,39-60.8c3.3-24.2,6.3-33.1,13.5-40.4
	c2.7-2.7,3.7-3,9.3-2.8c9,0.3,21.4-0.9,21.7-2.2c0.4-1.8-3.4-2.4-16.2-2.6c-11.1-0.2-12.3-0.4-15-3.1c-7.1-7.1-10.1-16.2-13.4-40.2
	c-2.3-17-6.3-29.8-11.4-36.8c-4.9-6.7-15.1-15.6-27.6-24c-9.6-6.5-19.3-11.9-22.6-12.7c-2.3-0.5,3.4,27.7,9.6,47.9
	c7,22.7,12.4,32,27.3,46.9c10.9,10.9,18.5,16.3,30.2,21.7l6,2.7l-6,2.7c-11.5,5.2-19.3,10.8-29.8,21.3
	c-15.1,15.1-20.3,23.9-27.3,46.2C2840.4,212.4,2834.7,240.2,2836.5,241.4z"/>
<path d="M3190.1,501.4c0.8,0.8,14.3-6.5,24.8-13.5c6.9-4.6,12.2-8.9,18.5-15.2c13.2-13.2,15.4-18.3,19.5-47
	c3.1-21.5,5.9-30.1,12-36.5l4.5-4.8l7.7,0.2c12.4,0.3,22.5-1.3,20.6-3.2c-1-1-17.8-2.1-22.9-1.6l-5.3,0.6l-4.7-5.4
	c-6.2-7-8.9-15-11.4-33.5c-3.6-26.4-6.2-34.3-14.3-44.1c-6.1-7.3-11.7-12.2-23-20.1c-9.1-6.3-23.3-14.5-25.3-14.5
	c-2.3-0.1,5.9,36.7,12.3,55.1c6.6,18.9,10.1,24.5,24.6,39.1c12.7,12.8,20.5,18.4,31.8,23c2.6,1.1,4.7,2,4.6,2.2
	c-0.1,0.1-3.1,1.5-6.6,3.1c-14.3,6.5-32.3,21.6-42,35.4c-5.7,8.1-12.3,23.1-16.1,36.9C3195.6,470.3,3189.3,500.7,3190.1,501.4z"/>
<path d="M2953.4,242.1c0.1,0.1,3.5-1.4,7.5-3.5c17.6-9,37.6-24.7,44.7-35.2c5.4-8.1,8-16.6,10.9-36.6c3.4-23,5.6-30,12.1-37.2
	l4.8-5.3l5,0.3c8.1,0.4,23-0.9,23.2-2.1c0.4-1.8-2.9-2.3-16-2.5l-12.3-0.2l-4.8-5.2c-6.4-7-8.8-14.2-12-37
	c-2.7-18.9-4.9-27.1-9.4-34.6l0,0c-3.9-6.5-18.8-20.3-29.9-27.6c-8.2-5.4-23.1-13.6-23.7-13c-0.5,0.5,6.7,34.4,9.4,43.8
	c6.5,23.2,11.9,33.3,25.3,47.7c11.5,12.4,18.7,18,30.7,24c4.4,2.2,8,4.1,8,4.3c0,0.2-3.6,2.1-8,4.3c-12.1,6-19.2,11.6-30.8,24
	c-13.4,14.5-18.9,24.8-25.3,47.8C2960.1,208,2952.9,241.6,2953.4,242.1z"/>
<path d="M3308.5,501.4c0,0.1,0.1,0.1,0.1,0.1c2.1-0.1,13.6-6.5,24.1-13.6c14.2-9.4,25.2-20.2,29.8-29c4.2-8,5.8-14.3,8.6-34
	c2.9-20.7,5.4-28.4,11.5-35.4l4.5-5.2l8.2,0.1c10.2,0.2,20.4-0.8,20.4-2c0-1.7-5.8-2.7-16.6-2.7c-5.9,0-11.8-0.7-13.1-1.4
	c-3.4-2-8.1-9.5-10.6-16.6c-1.2-3.5-3.4-14.5-4.8-24.5c-2.8-19.1-5.4-28.5-10.1-35.5c-4.1-6.2-17.5-18.4-28.2-25.6
	c-9.7-6.5-23.5-14-24.3-13.1c-0.8,0.8,5.7,31.6,9.2,43.8c6.8,23.7,13.5,35.8,27.6,50.2c11,11.2,21.8,18.6,35.7,24.7
	c1.6,0.7,1.3,0.9-2.8,2.5c-11,4.2-19.6,10.4-32.3,23.2c-14.9,15-18.2,20.4-25.3,41.4C3315.2,463.8,3307.3,499.3,3308.5,501.4z"/>
<path d="M3072.3,241.5c1.6,0.4,12.8-5.8,23.2-12.8c28.6-19.3,34.4-28.5,39.1-62.6c3-21.4,6.1-30.7,12.5-37l4.6-4.6l10.6,0
	c11.1,0,17.1-0.7,17.1-2.2c0-1.5-6-2.2-17.1-2.2l-10.6,0l-4.6-4.6c-6.3-6.3-9.5-15.7-12.5-37c-2.6-18.4-6.3-31.2-11.3-38.2l0,0
	c-4.7-6.6-15.1-15.8-27.5-24.1c-10.9-7.3-22-13.5-23.7-13.1c-1.3,0.3,5.9,34.4,10.3,48.4c6.3,20.2,14.5,34.5,26.7,46.6
	c7,7,19.7,16.1,28.6,20.4l7.8,3.8l-7.8,3.8c-25.4,12.4-44.5,34.4-53.7,61.8C3079,203.2,3070.7,241.1,3072.3,241.5z"/>
<path d="M3189.6,242.1c0.6,0.6,15.5-7.6,23.7-13.1c11.1-7.3,24.9-19.8,29.1-26.1c4.8-7.4,7.8-18.1,10.5-36.8
	c3.1-22.2,5.5-29.3,11.8-36.2l4.8-5.2l12.3-0.2c13.1-0.2,16.5-0.7,16.1-2.5c-0.3-1.3-12.7-2.5-21.8-2.2l-6.5,0.2l-4.8-5.3
	c-6.4-7.1-8.7-14.1-11.9-36.3c-2.5-17.4-5.6-29.1-9.6-35.7l0,0c-3.4-5.6-19.9-20.7-30-27.3c-8.2-5.4-23.1-13.6-23.7-13
	c-0.5,0.5,6.8,34.3,9.4,43.6c7.6,26.6,14.5,38.4,31.9,54.6c10,9.4,19.3,15.7,28.3,19.4c2.1,0.9,3.8,1.8,3.8,2.2
	c0,0.4-1.7,1.3-3.8,2.2c-9,3.7-18.3,10-28.3,19.4c-17.4,16.2-24.3,28-31.9,54.6C3196.3,207.8,3189.1,241.6,3189.6,242.1z"/>
<path d="M3308.5,241.5c2.9,0.7,28-15,39.2-24.4c8.1-6.8,14.4-15.5,17.8-24.6c1.5-4,3.8-15.3,5.2-25.2c3.2-22.6,6.3-31.8,12.7-38.2
	l4.6-4.6l10.6,0c11.1,0,17.1-0.7,17.1-2.2c0-1.5-6-2.2-17.1-2.2l-10.6,0l-4.6-4.6c-6.4-6.4-9.5-15.7-12.7-38.2
	c-2.7-18.9-5.8-29.5-11.1-37l0,0c-4.6-6.6-16-16.6-28-24.6C3320.9,8.6,3308.8,2,3308,2.8c-0.5,0.5,5.2,28.9,8,39.4
	c6.4,24.8,15.6,42.2,29.9,56.4c6.6,6.6,18.9,15.2,27.9,19.7l8.1,4l-7.8,3.8c-25.4,12.4-44.6,34.4-53.7,61.8
	C3315.3,202.9,3306.9,241.1,3308.5,241.5z"/>
<path d="M0.8,499c1.6,1.6,28.6-15.2,39.6-24.8c14.4-12.5,19.2-23.1,23.2-51.1c2.9-20.9,6.1-30.3,12.2-36.6l4.4-4.5l7.7,0.2
	c10.2,0.2,19.6-0.9,20-2.4c0.4-1.6-7.6-2.6-19.1-2.4l-8.9,0.1l-4.5-5.2c-6.1-7.1-8.7-14.9-11.6-35.4c-2.7-19.2-5-28-8.9-35
	c-4-7.1-20.4-22.5-31.7-29.8c-9.2-5.9-20-11.8-21.8-11.8c-1.9-0.1,5.6,33.9,11.1,50.8c7.5,22.8,10.8,28.4,25.9,43.4
	c12.7,12.7,21.5,19,32.2,23.1c2.4,0.9,4.3,1.8,4.2,1.9c-0.1,0.1-3,1.5-6.5,3.1c-13.6,6.1-27.7,17.3-37.8,29.8
	c-9.8,12.2-16.4,26.3-21.8,46.8C5.9,469.9,0.2,498.4,0.8,499z"/>
<path d="M118.1,499.5l4.2-1.7c10.5-4.1,29.9-17.5,39.9-27.5c12.7-12.7,15.5-19.6,19.5-47.8c2.9-20.4,5.5-28.3,11.6-35.4l4.5-5.2
	l8.9,0.1c11.8,0.1,19.5-0.8,19.2-2.4c-0.4-1.6-7.3-2.5-18.7-2.4l-9.2,0.1l-4.4-4.6c-6.1-6.4-9.1-15.6-12-36.4
	c-2.4-17.4-6.2-31-10.5-37.5c-3.8-5.8-17.4-18-27.9-25.1c-10.2-6.9-23.5-14.1-24.4-13.2c-0.6,0.6,4.8,27.6,7.9,39.8
	c2.5,9.9,8.2,25.1,12.1,32.5c9,17.1,29,35.6,47.3,43.9c3.3,1.5,5.9,2.9,5.8,3.1c-0.2,0.2-3.4,1.8-7.2,3.7
	c-17.9,8.9-35.8,25.4-44.8,41.2c-6,10.5-14.1,35.8-18.4,57.2L118.1,499.5z"/>
<path d="M236.9,499c1.8,1.8,29.1-15.5,40.3-25.4c14.2-12.5,18.3-21.7,22.2-49.1c3.2-22.3,6.1-31.2,12.4-37.8l4.5-4.8l7,0.3
	c9.2,0.4,22.2-1.1,21.5-2.5c-0.7-1.5-16.5-3-23.2-2.3l-5.3,0.6l-4.7-5.4c-6.4-7.2-8.9-14.8-11.8-35.7c-2.9-20-4.1-24.9-8-33
	c-4.4-9-16.1-20.6-30.5-30.1c-10.5-7-21.8-13.3-24-13.4c-1,0,3,21.9,6.8,37c3,12,10,30.5,14.2,38c3.4,6,6,9.1,16.1,19.2
	c12.7,12.8,20.5,18.4,31.8,23c2.6,1.1,4.7,2,4.6,2.2c-0.1,0.1-3,1.5-6.4,3.1c-11,5-19.9,11.4-30.3,21.9
	c-14.7,14.8-21,26.1-27.8,49.8C242.6,467.4,236.1,498.2,236.9,499z"/>
<path d="M0,239.9l3.4-1.4c10.4-4.3,32.2-19.2,40.8-27.8c12.1-12.1,15.4-20.2,19.1-46.3c3.1-22.3,5.6-29.7,12.1-36.9l4.7-5.2l13-0.2
	c7.2-0.1,13.5-0.7,14-1.2c2.1-2.1-1.5-2.9-14-3.1l-13-0.2l-4.7-5.2c-6.5-7.2-9-14.6-12.1-36.8c-2.7-18.9-4.9-27.2-9.4-34.8
	C50,34.2,35.1,20.4,24,13.1C15.9,7.7,0.9-0.5,0.3,0c-0.5,0.5,5.3,28.6,8.1,39.3c3.4,12.9,9.2,28.3,13.5,36.1
	c4.2,7.4,21.2,25.6,29.4,31.6c3.5,2.5,9.9,6.4,14.3,8.6c4.4,2.2,8,4.2,8,4.3c0,0.1-2.9,1.6-6.4,3.3c-11.8,5.5-20.1,11.9-31.8,24.5
	c-6.7,7.2-11.7,13.3-13.6,16.7C14.7,177.2,8,198.7,2.7,225.8L0,239.9z"/>
<path d="M355.4,499.3c0.1,0.1,0.1,0.1,0.2,0c0.5-0.1,3.6-1.7,7-3.4c19.9-10.3,40.6-27.6,46.7-39.1c4.4-8.3,5.8-14,8.7-34.2
	c2.9-20.6,5.4-28.4,11.6-35.4l4.5-5.2l8.2,0.1c10.2,0.2,20.4-0.8,20.4-2c0-1.7-5.9-2.7-17.2-2.7l-11.4-0.1l-4.3-4.5
	c-6-6.2-9.1-15.6-11.8-35.5c-3.2-23.2-4.9-29.3-11-38.9c-3.4-5.4-17.4-17.9-27.5-24.7c-10.1-6.7-23.5-14.1-24.3-13.3
	c-0.8,0.8,5.6,31.4,9.1,43.9c3.9,13.9,10.5,28.9,16.2,36.9c5.8,8.1,18.3,20.7,26.2,26.2c5.3,3.7,14.8,9,21.1,11.8
	c1.6,0.7,1.3,0.9-2.8,2.5c-11,4.2-19.6,10.4-32.3,23.2c-14.5,14.6-18,20.2-24.6,39.1C361.6,462.1,353.6,497.7,355.4,499.3z"/>
<path d="M119.5,239c0.1,0,0.1,0,0.2,0c3.3-0.8,13-6.3,22.6-12.7c28.4-19.3,34.7-29.1,39-60.8c3.3-24.2,6.3-33.1,13.5-40.4
	c2.7-2.7,3.7-3,9.3-2.8c9,0.3,21.4-0.9,21.7-2.2c0.4-1.8-3.4-2.4-16.2-2.6c-11.1-0.2-12.3-0.4-15-3.1c-7.1-7.1-10.1-16.2-13.4-40.2
	c-2.3-17-6.3-29.8-11.4-36.8c-4.9-6.7-15.1-15.6-27.6-24C132.7,7,123,1.5,119.7,0.7c-2.3-0.5,3.4,27.7,9.6,47.9
	c7,22.7,12.4,32,27.3,46.9c10.9,10.9,18.5,16.3,30.2,21.7l6,2.7l-6,2.7c-11.5,5.2-19.3,10.8-29.8,21.3
	c-15.1,15.1-20.3,23.9-27.3,46.2C123.4,210,117.7,237.8,119.5,239z"/>
<path d="M473.1,499c0.8,0.8,14.3-6.5,24.8-13.5c6.9-4.6,12.2-8.9,18.5-15.2c13.2-13.2,15.4-18.3,19.5-47c3.1-21.5,5.9-30.1,12-36.5
	l4.5-4.8l7.7,0.2c12.4,0.3,22.5-1.3,20.6-3.2c-1-1-17.8-2.1-22.9-1.6l-5.3,0.6l-4.7-5.4c-6.2-7-8.9-15-11.4-33.5
	c-3.6-26.4-6.2-34.3-14.3-44.1c-6.1-7.3-11.7-12.2-23-20.1c-9.1-6.3-23.3-14.5-25.3-14.5c-2.3-0.1,5.9,36.7,12.3,55.1
	c6.6,18.9,10.1,24.5,24.6,39.1c12.7,12.8,20.5,18.4,31.8,23c2.6,1.1,4.7,2,4.6,2.2c-0.1,0.1-3.1,1.5-6.6,3.1
	c-14.3,6.5-32.3,21.6-42,35.4c-5.7,8.1-12.3,23.1-16.1,36.9C478.7,467.9,472.4,498.3,473.1,499z"/>
<path d="M236.5,239.7c0.1,0.1,3.5-1.4,7.5-3.5c17.6-9,37.6-24.7,44.7-35.2c5.4-8.1,8-16.6,10.9-36.6c3.4-23,5.6-30,12.1-37.2
	l4.8-5.3l5,0.3c8.1,0.4,23-0.9,23.2-2.1c0.4-1.8-2.9-2.3-16-2.5l-12.3-0.2l-4.8-5.2c-6.4-7-8.8-14.2-12-37
	c-2.7-18.9-4.9-27.1-9.4-34.6l0,0c-3.9-6.5-18.8-20.3-29.9-27.6C252,7.7,237.1-0.5,236.5,0c-0.5,0.5,6.7,34.4,9.4,43.8
	c6.5,23.2,11.9,33.3,25.3,47.7c11.5,12.4,18.7,18,30.7,24c4.4,2.2,8,4.1,8,4.3c0,0.2-3.6,2.1-8,4.3c-12.1,6-19.2,11.6-30.8,24
	c-13.4,14.5-18.9,24.8-25.3,47.8C243.2,205.6,236,239.2,236.5,239.7z"/>
<path d="M355.4,239.1c1.6,0.4,12.8-5.8,23.2-12.8c28.6-19.3,34.4-28.5,39.1-62.6c3-21.4,6.1-30.7,12.5-37l4.6-4.6l10.6,0
	c11.1,0,17.1-0.7,17.1-2.2c0-1.5-6-2.2-17.1-2.2l-10.6,0l-4.6-4.6c-6.3-6.3-9.5-15.7-12.5-37c-2.6-18.4-6.3-31.2-11.3-38.2l0,0
	c-4.7-6.6-15.1-15.8-27.5-24.1c-10.9-7.3-22-13.5-23.7-13.1c-1.3,0.3,5.9,34.4,10.3,48.4c6.3,20.2,14.5,34.5,26.7,46.6
	c7,7,19.7,16.1,28.6,20.4l7.8,3.8l-7.8,3.8c-25.4,12.4-44.5,34.4-53.7,61.8C362.1,200.8,353.7,238.7,355.4,239.1z"/>
<path d="M472.7,239.7c0.6,0.6,15.5-7.6,23.7-13.1c11.1-7.3,24.9-19.8,29.1-26.1c4.8-7.4,7.8-18.1,10.5-36.8
	c3.1-22.2,5.5-29.3,11.8-36.2l4.8-5.2l12.3-0.2c13.1-0.2,16.5-0.7,16.1-2.5c-0.3-1.3-12.7-2.5-21.8-2.2l-6.5,0.2l-4.8-5.3
	c-6.4-7.1-8.7-14.1-11.9-36.3c-2.5-17.4-5.6-29.1-9.6-35.7l0,0c-3.4-5.6-19.9-20.7-30-27.3c-8.2-5.4-23.1-13.6-23.7-13
	c-0.5,0.5,6.8,34.3,9.4,43.6c7.6,26.6,14.5,38.4,31.9,54.6c10,9.4,19.3,15.7,28.3,19.4c2.1,0.9,3.8,1.8,3.8,2.2
	c0,0.4-1.7,1.3-3.8,2.2c-9,3.7-18.3,10-28.3,19.4c-17.4,16.2-24.3,28-31.9,54.6C479.4,205.4,472.1,239.2,472.7,239.7z"/>
</svg>
